<?xml version="1.0" encoding="utf-8" standalone="no"?>
<!DOCTYPE svg PUBLIC "-//W3C//DTD SVG 1.1//EN"
  "http://www.w3.org/Graphics/SVG/1.1/DTD/svg11.dtd">
<!-- Created with matplotlib (https://matplotlib.org/) -->
<svg height="576pt" version="1.1" viewBox="0 0 576 576" width="576pt" xmlns="http://www.w3.org/2000/svg" xmlns:xlink="http://www.w3.org/1999/xlink">
 <defs>
  <style type="text/css">
*{stroke-linecap:butt;stroke-linejoin:round;}
  </style>
 </defs>
 <g id="figure_1">
  <g id="patch_1">
   <path d="M 0 576 
L 576 576 
L 576 0 
L 0 0 
z
" style="fill:#ffffff;"/>
  </g>
  <g id="axes_1">
   <g id="patch_2">
    <path d="M 99.335 492.54 
L 547.39625 492.54 
L 547.39625 41.96 
L 99.335 41.96 
z
" style="fill:#eaeaf2;"/>
   </g>
   <g id="matplotlib.axis_1">
    <g id="xtick_1">
     <g id="text_1">
      <!-- 1 -->
      <defs>
       <path d="M 12.40625 8.296875 
L 28.515625 8.296875 
L 28.515625 63.921875 
L 10.984375 60.40625 
L 10.984375 69.390625 
L 28.421875 72.90625 
L 38.28125 72.90625 
L 38.28125 8.296875 
L 54.390625 8.296875 
L 54.390625 0 
L 12.40625 0 
z
" id="DejaVuSans-49"/>
      </defs>
      <g style="fill:#262626;" transform="translate(110.952983 522.935703)scale(0.275 -0.275)">
       <use xlink:href="#DejaVuSans-49"/>
      </g>
     </g>
    </g>
    <g id="xtick_2">
     <g id="text_2">
      <!-- 2 -->
      <defs>
       <path d="M 19.1875 8.296875 
L 53.609375 8.296875 
L 53.609375 0 
L 7.328125 0 
L 7.328125 8.296875 
Q 12.9375 14.109375 22.625 23.890625 
Q 32.328125 33.6875 34.8125 36.53125 
Q 39.546875 41.84375 41.421875 45.53125 
Q 43.3125 49.21875 43.3125 52.78125 
Q 43.3125 58.59375 39.234375 62.25 
Q 35.15625 65.921875 28.609375 65.921875 
Q 23.96875 65.921875 18.8125 64.3125 
Q 13.671875 62.703125 7.8125 59.421875 
L 7.8125 69.390625 
Q 13.765625 71.78125 18.9375 73 
Q 24.125 74.21875 28.421875 74.21875 
Q 39.75 74.21875 46.484375 68.546875 
Q 53.21875 62.890625 53.21875 53.421875 
Q 53.21875 48.921875 51.53125 44.890625 
Q 49.859375 40.875 45.40625 35.40625 
Q 44.1875 33.984375 37.640625 27.21875 
Q 31.109375 20.453125 19.1875 8.296875 
z
" id="DejaVuSans-50"/>
      </defs>
      <g style="fill:#262626;" transform="translate(156.211695 522.935703)scale(0.275 -0.275)">
       <use xlink:href="#DejaVuSans-50"/>
      </g>
     </g>
    </g>
    <g id="xtick_3">
     <g id="text_3">
      <!-- 3 -->
      <defs>
       <path d="M 40.578125 39.3125 
Q 47.65625 37.796875 51.625 33 
Q 55.609375 28.21875 55.609375 21.1875 
Q 55.609375 10.40625 48.1875 4.484375 
Q 40.765625 -1.421875 27.09375 -1.421875 
Q 22.515625 -1.421875 17.65625 -0.515625 
Q 12.796875 0.390625 7.625 2.203125 
L 7.625 11.71875 
Q 11.71875 9.328125 16.59375 8.109375 
Q 21.484375 6.890625 26.8125 6.890625 
Q 36.078125 6.890625 40.9375 10.546875 
Q 45.796875 14.203125 45.796875 21.1875 
Q 45.796875 27.640625 41.28125 31.265625 
Q 36.765625 34.90625 28.71875 34.90625 
L 20.21875 34.90625 
L 20.21875 43.015625 
L 29.109375 43.015625 
Q 36.375 43.015625 40.234375 45.921875 
Q 44.09375 48.828125 44.09375 54.296875 
Q 44.09375 59.90625 40.109375 62.90625 
Q 36.140625 65.921875 28.71875 65.921875 
Q 24.65625 65.921875 20.015625 65.03125 
Q 15.375 64.15625 9.8125 62.3125 
L 9.8125 71.09375 
Q 15.4375 72.65625 20.34375 73.4375 
Q 25.25 74.21875 29.59375 74.21875 
Q 40.828125 74.21875 47.359375 69.109375 
Q 53.90625 64.015625 53.90625 55.328125 
Q 53.90625 49.265625 50.4375 45.09375 
Q 46.96875 40.921875 40.578125 39.3125 
z
" id="DejaVuSans-51"/>
      </defs>
      <g style="fill:#262626;" transform="translate(201.470407 522.935703)scale(0.275 -0.275)">
       <use xlink:href="#DejaVuSans-51"/>
      </g>
     </g>
    </g>
    <g id="xtick_4">
     <g id="text_4">
      <!-- 4 -->
      <defs>
       <path d="M 37.796875 64.3125 
L 12.890625 25.390625 
L 37.796875 25.390625 
z
M 35.203125 72.90625 
L 47.609375 72.90625 
L 47.609375 25.390625 
L 58.015625 25.390625 
L 58.015625 17.1875 
L 47.609375 17.1875 
L 47.609375 0 
L 37.796875 0 
L 37.796875 17.1875 
L 4.890625 17.1875 
L 4.890625 26.703125 
z
" id="DejaVuSans-52"/>
      </defs>
      <g style="fill:#262626;" transform="translate(246.729119 522.935703)scale(0.275 -0.275)">
       <use xlink:href="#DejaVuSans-52"/>
      </g>
     </g>
    </g>
    <g id="xtick_5">
     <g id="text_5">
      <!-- 5 -->
      <defs>
       <path d="M 10.796875 72.90625 
L 49.515625 72.90625 
L 49.515625 64.59375 
L 19.828125 64.59375 
L 19.828125 46.734375 
Q 21.96875 47.46875 24.109375 47.828125 
Q 26.265625 48.1875 28.421875 48.1875 
Q 40.625 48.1875 47.75 41.5 
Q 54.890625 34.8125 54.890625 23.390625 
Q 54.890625 11.625 47.5625 5.09375 
Q 40.234375 -1.421875 26.90625 -1.421875 
Q 22.3125 -1.421875 17.546875 -0.640625 
Q 12.796875 0.140625 7.71875 1.703125 
L 7.71875 11.625 
Q 12.109375 9.234375 16.796875 8.0625 
Q 21.484375 6.890625 26.703125 6.890625 
Q 35.15625 6.890625 40.078125 11.328125 
Q 45.015625 15.765625 45.015625 23.390625 
Q 45.015625 31 40.078125 35.4375 
Q 35.15625 39.890625 26.703125 39.890625 
Q 22.75 39.890625 18.8125 39.015625 
Q 14.890625 38.140625 10.796875 36.28125 
z
" id="DejaVuSans-53"/>
      </defs>
      <g style="fill:#262626;" transform="translate(291.987831 522.935703)scale(0.275 -0.275)">
       <use xlink:href="#DejaVuSans-53"/>
      </g>
     </g>
    </g>
    <g id="xtick_6">
     <g id="text_6">
      <!-- 6 -->
      <defs>
       <path d="M 33.015625 40.375 
Q 26.375 40.375 22.484375 35.828125 
Q 18.609375 31.296875 18.609375 23.390625 
Q 18.609375 15.53125 22.484375 10.953125 
Q 26.375 6.390625 33.015625 6.390625 
Q 39.65625 6.390625 43.53125 10.953125 
Q 47.40625 15.53125 47.40625 23.390625 
Q 47.40625 31.296875 43.53125 35.828125 
Q 39.65625 40.375 33.015625 40.375 
z
M 52.59375 71.296875 
L 52.59375 62.3125 
Q 48.875 64.0625 45.09375 64.984375 
Q 41.3125 65.921875 37.59375 65.921875 
Q 27.828125 65.921875 22.671875 59.328125 
Q 17.53125 52.734375 16.796875 39.40625 
Q 19.671875 43.65625 24.015625 45.921875 
Q 28.375 48.1875 33.59375 48.1875 
Q 44.578125 48.1875 50.953125 41.515625 
Q 57.328125 34.859375 57.328125 23.390625 
Q 57.328125 12.15625 50.6875 5.359375 
Q 44.046875 -1.421875 33.015625 -1.421875 
Q 20.359375 -1.421875 13.671875 8.265625 
Q 6.984375 17.96875 6.984375 36.375 
Q 6.984375 53.65625 15.1875 63.9375 
Q 23.390625 74.21875 37.203125 74.21875 
Q 40.921875 74.21875 44.703125 73.484375 
Q 48.484375 72.75 52.59375 71.296875 
z
" id="DejaVuSans-54"/>
      </defs>
      <g style="fill:#262626;" transform="translate(337.246544 522.935703)scale(0.275 -0.275)">
       <use xlink:href="#DejaVuSans-54"/>
      </g>
     </g>
    </g>
    <g id="xtick_7">
     <g id="text_7">
      <!-- 7 -->
      <defs>
       <path d="M 8.203125 72.90625 
L 55.078125 72.90625 
L 55.078125 68.703125 
L 28.609375 0 
L 18.3125 0 
L 43.21875 64.59375 
L 8.203125 64.59375 
z
" id="DejaVuSans-55"/>
      </defs>
      <g style="fill:#262626;" transform="translate(382.505256 522.935703)scale(0.275 -0.275)">
       <use xlink:href="#DejaVuSans-55"/>
      </g>
     </g>
    </g>
    <g id="xtick_8">
     <g id="text_8">
      <!-- 8 -->
      <defs>
       <path d="M 31.78125 34.625 
Q 24.75 34.625 20.71875 30.859375 
Q 16.703125 27.09375 16.703125 20.515625 
Q 16.703125 13.921875 20.71875 10.15625 
Q 24.75 6.390625 31.78125 6.390625 
Q 38.8125 6.390625 42.859375 10.171875 
Q 46.921875 13.96875 46.921875 20.515625 
Q 46.921875 27.09375 42.890625 30.859375 
Q 38.875 34.625 31.78125 34.625 
z
M 21.921875 38.8125 
Q 15.578125 40.375 12.03125 44.71875 
Q 8.5 49.078125 8.5 55.328125 
Q 8.5 64.0625 14.71875 69.140625 
Q 20.953125 74.21875 31.78125 74.21875 
Q 42.671875 74.21875 48.875 69.140625 
Q 55.078125 64.0625 55.078125 55.328125 
Q 55.078125 49.078125 51.53125 44.71875 
Q 48 40.375 41.703125 38.8125 
Q 48.828125 37.15625 52.796875 32.3125 
Q 56.78125 27.484375 56.78125 20.515625 
Q 56.78125 9.90625 50.3125 4.234375 
Q 43.84375 -1.421875 31.78125 -1.421875 
Q 19.734375 -1.421875 13.25 4.234375 
Q 6.78125 9.90625 6.78125 20.515625 
Q 6.78125 27.484375 10.78125 32.3125 
Q 14.796875 37.15625 21.921875 38.8125 
z
M 18.3125 54.390625 
Q 18.3125 48.734375 21.84375 45.5625 
Q 25.390625 42.390625 31.78125 42.390625 
Q 38.140625 42.390625 41.71875 45.5625 
Q 45.3125 48.734375 45.3125 54.390625 
Q 45.3125 60.0625 41.71875 63.234375 
Q 38.140625 66.40625 31.78125 66.40625 
Q 25.390625 66.40625 21.84375 63.234375 
Q 18.3125 60.0625 18.3125 54.390625 
z
" id="DejaVuSans-56"/>
      </defs>
      <g style="fill:#262626;" transform="translate(427.763968 522.935703)scale(0.275 -0.275)">
       <use xlink:href="#DejaVuSans-56"/>
      </g>
     </g>
    </g>
    <g id="xtick_9">
     <g id="text_9">
      <!-- 9 -->
      <defs>
       <path d="M 10.984375 1.515625 
L 10.984375 10.5 
Q 14.703125 8.734375 18.5 7.8125 
Q 22.3125 6.890625 25.984375 6.890625 
Q 35.75 6.890625 40.890625 13.453125 
Q 46.046875 20.015625 46.78125 33.40625 
Q 43.953125 29.203125 39.59375 26.953125 
Q 35.25 24.703125 29.984375 24.703125 
Q 19.046875 24.703125 12.671875 31.3125 
Q 6.296875 37.9375 6.296875 49.421875 
Q 6.296875 60.640625 12.9375 67.421875 
Q 19.578125 74.21875 30.609375 74.21875 
Q 43.265625 74.21875 49.921875 64.515625 
Q 56.59375 54.828125 56.59375 36.375 
Q 56.59375 19.140625 48.40625 8.859375 
Q 40.234375 -1.421875 26.421875 -1.421875 
Q 22.703125 -1.421875 18.890625 -0.6875 
Q 15.09375 0.046875 10.984375 1.515625 
z
M 30.609375 32.421875 
Q 37.25 32.421875 41.125 36.953125 
Q 45.015625 41.5 45.015625 49.421875 
Q 45.015625 57.28125 41.125 61.84375 
Q 37.25 66.40625 30.609375 66.40625 
Q 23.96875 66.40625 20.09375 61.84375 
Q 16.21875 57.28125 16.21875 49.421875 
Q 16.21875 41.5 20.09375 36.953125 
Q 23.96875 32.421875 30.609375 32.421875 
z
" id="DejaVuSans-57"/>
      </defs>
      <g style="fill:#262626;" transform="translate(473.02268 522.935703)scale(0.275 -0.275)">
       <use xlink:href="#DejaVuSans-57"/>
      </g>
     </g>
    </g>
    <g id="xtick_10">
     <g id="text_10">
      <!-- 10 -->
      <defs>
       <path d="M 31.78125 66.40625 
Q 24.171875 66.40625 20.328125 58.90625 
Q 16.5 51.421875 16.5 36.375 
Q 16.5 21.390625 20.328125 13.890625 
Q 24.171875 6.390625 31.78125 6.390625 
Q 39.453125 6.390625 43.28125 13.890625 
Q 47.125 21.390625 47.125 36.375 
Q 47.125 51.421875 43.28125 58.90625 
Q 39.453125 66.40625 31.78125 66.40625 
z
M 31.78125 74.21875 
Q 44.046875 74.21875 50.515625 64.515625 
Q 56.984375 54.828125 56.984375 36.375 
Q 56.984375 17.96875 50.515625 8.265625 
Q 44.046875 -1.421875 31.78125 -1.421875 
Q 19.53125 -1.421875 13.0625 8.265625 
Q 6.59375 17.96875 6.59375 36.375 
Q 6.59375 54.828125 13.0625 64.515625 
Q 19.53125 74.21875 31.78125 74.21875 
z
" id="DejaVuSans-48"/>
      </defs>
      <g style="fill:#262626;" transform="translate(509.532955 522.935703)scale(0.275 -0.275)">
       <use xlink:href="#DejaVuSans-49"/>
       <use x="63.623047" xlink:href="#DejaVuSans-48"/>
      </g>
     </g>
    </g>
    <g id="text_11">
     <!-- Number of tasks seen -->
     <defs>
      <path d="M 9.8125 72.90625 
L 23.09375 72.90625 
L 55.421875 11.921875 
L 55.421875 72.90625 
L 64.984375 72.90625 
L 64.984375 0 
L 51.703125 0 
L 19.390625 60.984375 
L 19.390625 0 
L 9.8125 0 
z
" id="DejaVuSans-78"/>
      <path d="M 8.5 21.578125 
L 8.5 54.6875 
L 17.484375 54.6875 
L 17.484375 21.921875 
Q 17.484375 14.15625 20.5 10.265625 
Q 23.53125 6.390625 29.59375 6.390625 
Q 36.859375 6.390625 41.078125 11.03125 
Q 45.3125 15.671875 45.3125 23.6875 
L 45.3125 54.6875 
L 54.296875 54.6875 
L 54.296875 0 
L 45.3125 0 
L 45.3125 8.40625 
Q 42.046875 3.421875 37.71875 1 
Q 33.40625 -1.421875 27.6875 -1.421875 
Q 18.265625 -1.421875 13.375 4.4375 
Q 8.5 10.296875 8.5 21.578125 
z
M 31.109375 56 
z
" id="DejaVuSans-117"/>
      <path d="M 52 44.1875 
Q 55.375 50.25 60.0625 53.125 
Q 64.75 56 71.09375 56 
Q 79.640625 56 84.28125 50.015625 
Q 88.921875 44.046875 88.921875 33.015625 
L 88.921875 0 
L 79.890625 0 
L 79.890625 32.71875 
Q 79.890625 40.578125 77.09375 44.375 
Q 74.3125 48.1875 68.609375 48.1875 
Q 61.625 48.1875 57.5625 43.546875 
Q 53.515625 38.921875 53.515625 30.90625 
L 53.515625 0 
L 44.484375 0 
L 44.484375 32.71875 
Q 44.484375 40.625 41.703125 44.40625 
Q 38.921875 48.1875 33.109375 48.1875 
Q 26.21875 48.1875 22.15625 43.53125 
Q 18.109375 38.875 18.109375 30.90625 
L 18.109375 0 
L 9.078125 0 
L 9.078125 54.6875 
L 18.109375 54.6875 
L 18.109375 46.1875 
Q 21.1875 51.21875 25.484375 53.609375 
Q 29.78125 56 35.6875 56 
Q 41.65625 56 45.828125 52.96875 
Q 50 49.953125 52 44.1875 
z
" id="DejaVuSans-109"/>
      <path d="M 48.6875 27.296875 
Q 48.6875 37.203125 44.609375 42.84375 
Q 40.53125 48.484375 33.40625 48.484375 
Q 26.265625 48.484375 22.1875 42.84375 
Q 18.109375 37.203125 18.109375 27.296875 
Q 18.109375 17.390625 22.1875 11.75 
Q 26.265625 6.109375 33.40625 6.109375 
Q 40.53125 6.109375 44.609375 11.75 
Q 48.6875 17.390625 48.6875 27.296875 
z
M 18.109375 46.390625 
Q 20.953125 51.265625 25.265625 53.625 
Q 29.59375 56 35.59375 56 
Q 45.5625 56 51.78125 48.09375 
Q 58.015625 40.1875 58.015625 27.296875 
Q 58.015625 14.40625 51.78125 6.484375 
Q 45.5625 -1.421875 35.59375 -1.421875 
Q 29.59375 -1.421875 25.265625 0.953125 
Q 20.953125 3.328125 18.109375 8.203125 
L 18.109375 0 
L 9.078125 0 
L 9.078125 75.984375 
L 18.109375 75.984375 
z
" id="DejaVuSans-98"/>
      <path d="M 56.203125 29.59375 
L 56.203125 25.203125 
L 14.890625 25.203125 
Q 15.484375 15.921875 20.484375 11.0625 
Q 25.484375 6.203125 34.421875 6.203125 
Q 39.59375 6.203125 44.453125 7.46875 
Q 49.3125 8.734375 54.109375 11.28125 
L 54.109375 2.78125 
Q 49.265625 0.734375 44.1875 -0.34375 
Q 39.109375 -1.421875 33.890625 -1.421875 
Q 20.796875 -1.421875 13.15625 6.1875 
Q 5.515625 13.8125 5.515625 26.8125 
Q 5.515625 40.234375 12.765625 48.109375 
Q 20.015625 56 32.328125 56 
Q 43.359375 56 49.78125 48.890625 
Q 56.203125 41.796875 56.203125 29.59375 
z
M 47.21875 32.234375 
Q 47.125 39.59375 43.09375 43.984375 
Q 39.0625 48.390625 32.421875 48.390625 
Q 24.90625 48.390625 20.390625 44.140625 
Q 15.875 39.890625 15.1875 32.171875 
z
" id="DejaVuSans-101"/>
      <path d="M 41.109375 46.296875 
Q 39.59375 47.171875 37.8125 47.578125 
Q 36.03125 48 33.890625 48 
Q 26.265625 48 22.1875 43.046875 
Q 18.109375 38.09375 18.109375 28.8125 
L 18.109375 0 
L 9.078125 0 
L 9.078125 54.6875 
L 18.109375 54.6875 
L 18.109375 46.1875 
Q 20.953125 51.171875 25.484375 53.578125 
Q 30.03125 56 36.53125 56 
Q 37.453125 56 38.578125 55.875 
Q 39.703125 55.765625 41.0625 55.515625 
z
" id="DejaVuSans-114"/>
      <path id="DejaVuSans-32"/>
      <path d="M 30.609375 48.390625 
Q 23.390625 48.390625 19.1875 42.75 
Q 14.984375 37.109375 14.984375 27.296875 
Q 14.984375 17.484375 19.15625 11.84375 
Q 23.34375 6.203125 30.609375 6.203125 
Q 37.796875 6.203125 41.984375 11.859375 
Q 46.1875 17.53125 46.1875 27.296875 
Q 46.1875 37.015625 41.984375 42.703125 
Q 37.796875 48.390625 30.609375 48.390625 
z
M 30.609375 56 
Q 42.328125 56 49.015625 48.375 
Q 55.71875 40.765625 55.71875 27.296875 
Q 55.71875 13.875 49.015625 6.21875 
Q 42.328125 -1.421875 30.609375 -1.421875 
Q 18.84375 -1.421875 12.171875 6.21875 
Q 5.515625 13.875 5.515625 27.296875 
Q 5.515625 40.765625 12.171875 48.375 
Q 18.84375 56 30.609375 56 
z
" id="DejaVuSans-111"/>
      <path d="M 37.109375 75.984375 
L 37.109375 68.5 
L 28.515625 68.5 
Q 23.6875 68.5 21.796875 66.546875 
Q 19.921875 64.59375 19.921875 59.515625 
L 19.921875 54.6875 
L 34.71875 54.6875 
L 34.71875 47.703125 
L 19.921875 47.703125 
L 19.921875 0 
L 10.890625 0 
L 10.890625 47.703125 
L 2.296875 47.703125 
L 2.296875 54.6875 
L 10.890625 54.6875 
L 10.890625 58.5 
Q 10.890625 67.625 15.140625 71.796875 
Q 19.390625 75.984375 28.609375 75.984375 
z
" id="DejaVuSans-102"/>
      <path d="M 18.3125 70.21875 
L 18.3125 54.6875 
L 36.8125 54.6875 
L 36.8125 47.703125 
L 18.3125 47.703125 
L 18.3125 18.015625 
Q 18.3125 11.328125 20.140625 9.421875 
Q 21.96875 7.515625 27.59375 7.515625 
L 36.8125 7.515625 
L 36.8125 0 
L 27.59375 0 
Q 17.1875 0 13.234375 3.875 
Q 9.28125 7.765625 9.28125 18.015625 
L 9.28125 47.703125 
L 2.6875 47.703125 
L 2.6875 54.6875 
L 9.28125 54.6875 
L 9.28125 70.21875 
z
" id="DejaVuSans-116"/>
      <path d="M 34.28125 27.484375 
Q 23.390625 27.484375 19.1875 25 
Q 14.984375 22.515625 14.984375 16.5 
Q 14.984375 11.71875 18.140625 8.90625 
Q 21.296875 6.109375 26.703125 6.109375 
Q 34.1875 6.109375 38.703125 11.40625 
Q 43.21875 16.703125 43.21875 25.484375 
L 43.21875 27.484375 
z
M 52.203125 31.203125 
L 52.203125 0 
L 43.21875 0 
L 43.21875 8.296875 
Q 40.140625 3.328125 35.546875 0.953125 
Q 30.953125 -1.421875 24.3125 -1.421875 
Q 15.921875 -1.421875 10.953125 3.296875 
Q 6 8.015625 6 15.921875 
Q 6 25.140625 12.171875 29.828125 
Q 18.359375 34.515625 30.609375 34.515625 
L 43.21875 34.515625 
L 43.21875 35.40625 
Q 43.21875 41.609375 39.140625 45 
Q 35.0625 48.390625 27.6875 48.390625 
Q 23 48.390625 18.546875 47.265625 
Q 14.109375 46.140625 10.015625 43.890625 
L 10.015625 52.203125 
Q 14.9375 54.109375 19.578125 55.046875 
Q 24.21875 56 28.609375 56 
Q 40.484375 56 46.34375 49.84375 
Q 52.203125 43.703125 52.203125 31.203125 
z
" id="DejaVuSans-97"/>
      <path d="M 44.28125 53.078125 
L 44.28125 44.578125 
Q 40.484375 46.53125 36.375 47.5 
Q 32.28125 48.484375 27.875 48.484375 
Q 21.1875 48.484375 17.84375 46.4375 
Q 14.5 44.390625 14.5 40.28125 
Q 14.5 37.15625 16.890625 35.375 
Q 19.28125 33.59375 26.515625 31.984375 
L 29.59375 31.296875 
Q 39.15625 29.25 43.1875 25.515625 
Q 47.21875 21.78125 47.21875 15.09375 
Q 47.21875 7.46875 41.1875 3.015625 
Q 35.15625 -1.421875 24.609375 -1.421875 
Q 20.21875 -1.421875 15.453125 -0.5625 
Q 10.6875 0.296875 5.421875 2 
L 5.421875 11.28125 
Q 10.40625 8.6875 15.234375 7.390625 
Q 20.0625 6.109375 24.8125 6.109375 
Q 31.15625 6.109375 34.5625 8.28125 
Q 37.984375 10.453125 37.984375 14.40625 
Q 37.984375 18.0625 35.515625 20.015625 
Q 33.0625 21.96875 24.703125 23.78125 
L 21.578125 24.515625 
Q 13.234375 26.265625 9.515625 29.90625 
Q 5.8125 33.546875 5.8125 39.890625 
Q 5.8125 47.609375 11.28125 51.796875 
Q 16.75 56 26.8125 56 
Q 31.78125 56 36.171875 55.265625 
Q 40.578125 54.546875 44.28125 53.078125 
z
" id="DejaVuSans-115"/>
      <path d="M 9.078125 75.984375 
L 18.109375 75.984375 
L 18.109375 31.109375 
L 44.921875 54.6875 
L 56.390625 54.6875 
L 27.390625 29.109375 
L 57.625 0 
L 45.90625 0 
L 18.109375 26.703125 
L 18.109375 0 
L 9.078125 0 
z
" id="DejaVuSans-107"/>
      <path d="M 54.890625 33.015625 
L 54.890625 0 
L 45.90625 0 
L 45.90625 32.71875 
Q 45.90625 40.484375 42.875 44.328125 
Q 39.84375 48.1875 33.796875 48.1875 
Q 26.515625 48.1875 22.3125 43.546875 
Q 18.109375 38.921875 18.109375 30.90625 
L 18.109375 0 
L 9.078125 0 
L 9.078125 54.6875 
L 18.109375 54.6875 
L 18.109375 46.1875 
Q 21.34375 51.125 25.703125 53.5625 
Q 30.078125 56 35.796875 56 
Q 45.21875 56 50.046875 50.171875 
Q 54.890625 44.34375 54.890625 33.015625 
z
" id="DejaVuSans-110"/>
     </defs>
     <g style="fill:#262626;" transform="translate(159.18125 555.450156)scale(0.3 -0.3)">
      <use xlink:href="#DejaVuSans-78"/>
      <use x="74.804688" xlink:href="#DejaVuSans-117"/>
      <use x="138.183594" xlink:href="#DejaVuSans-109"/>
      <use x="235.595703" xlink:href="#DejaVuSans-98"/>
      <use x="299.072266" xlink:href="#DejaVuSans-101"/>
      <use x="360.595703" xlink:href="#DejaVuSans-114"/>
      <use x="401.708984" xlink:href="#DejaVuSans-32"/>
      <use x="433.496094" xlink:href="#DejaVuSans-111"/>
      <use x="494.677734" xlink:href="#DejaVuSans-102"/>
      <use x="529.882812" xlink:href="#DejaVuSans-32"/>
      <use x="561.669922" xlink:href="#DejaVuSans-116"/>
      <use x="600.878906" xlink:href="#DejaVuSans-97"/>
      <use x="662.158203" xlink:href="#DejaVuSans-115"/>
      <use x="714.257812" xlink:href="#DejaVuSans-107"/>
      <use x="772.167969" xlink:href="#DejaVuSans-115"/>
      <use x="824.267578" xlink:href="#DejaVuSans-32"/>
      <use x="856.054688" xlink:href="#DejaVuSans-115"/>
      <use x="908.154297" xlink:href="#DejaVuSans-101"/>
      <use x="969.677734" xlink:href="#DejaVuSans-101"/>
      <use x="1031.201172" xlink:href="#DejaVuSans-110"/>
     </g>
    </g>
   </g>
   <g id="matplotlib.axis_2">
    <g id="ytick_1">
     <g id="line2d_1">
      <path clip-path="url(#pe44330ef98)" d="M 99.335 488.516964 
L 547.39625 488.516964 
" style="fill:none;stroke:#ffffff;stroke-linecap:round;"/>
     </g>
     <g id="text_12">
      <!-- 0.5 -->
      <defs>
       <path d="M 10.6875 12.40625 
L 21 12.40625 
L 21 0 
L 10.6875 0 
z
" id="DejaVuSans-46"/>
      </defs>
      <g style="fill:#262626;" transform="translate(46.101406 498.964816)scale(0.275 -0.275)">
       <use xlink:href="#DejaVuSans-48"/>
       <use x="63.623047" xlink:href="#DejaVuSans-46"/>
       <use x="95.410156" xlink:href="#DejaVuSans-53"/>
      </g>
     </g>
    </g>
    <g id="ytick_2">
     <g id="line2d_2">
      <path clip-path="url(#pe44330ef98)" d="M 99.335 287.365179 
L 547.39625 287.365179 
" style="fill:none;stroke:#ffffff;stroke-linecap:round;"/>
     </g>
     <g id="text_13">
      <!-- 1.0 -->
      <g style="fill:#262626;" transform="translate(46.101406 297.81303)scale(0.275 -0.275)">
       <use xlink:href="#DejaVuSans-49"/>
       <use x="63.623047" xlink:href="#DejaVuSans-46"/>
       <use x="95.410156" xlink:href="#DejaVuSans-48"/>
      </g>
     </g>
    </g>
    <g id="ytick_3">
     <g id="line2d_3">
      <path clip-path="url(#pe44330ef98)" d="M 99.335 86.213393 
L 547.39625 86.213393 
" style="fill:none;stroke:#ffffff;stroke-linecap:round;"/>
     </g>
     <g id="text_14">
      <!-- 1.5 -->
      <g style="fill:#262626;" transform="translate(46.101406 96.661244)scale(0.275 -0.275)">
       <use xlink:href="#DejaVuSans-49"/>
       <use x="63.623047" xlink:href="#DejaVuSans-46"/>
       <use x="95.410156" xlink:href="#DejaVuSans-53"/>
      </g>
     </g>
    </g>
    <g id="text_15">
     <!-- Transfer Efficiency -->
     <defs>
      <path d="M -0.296875 72.90625 
L 61.375 72.90625 
L 61.375 64.59375 
L 35.5 64.59375 
L 35.5 0 
L 25.59375 0 
L 25.59375 64.59375 
L -0.296875 64.59375 
z
" id="DejaVuSans-84"/>
      <path d="M 9.8125 72.90625 
L 55.90625 72.90625 
L 55.90625 64.59375 
L 19.671875 64.59375 
L 19.671875 43.015625 
L 54.390625 43.015625 
L 54.390625 34.71875 
L 19.671875 34.71875 
L 19.671875 8.296875 
L 56.78125 8.296875 
L 56.78125 0 
L 9.8125 0 
z
" id="DejaVuSans-69"/>
      <path d="M 9.421875 54.6875 
L 18.40625 54.6875 
L 18.40625 0 
L 9.421875 0 
z
M 9.421875 75.984375 
L 18.40625 75.984375 
L 18.40625 64.59375 
L 9.421875 64.59375 
z
" id="DejaVuSans-105"/>
      <path d="M 48.78125 52.59375 
L 48.78125 44.1875 
Q 44.96875 46.296875 41.140625 47.34375 
Q 37.3125 48.390625 33.40625 48.390625 
Q 24.65625 48.390625 19.8125 42.84375 
Q 14.984375 37.3125 14.984375 27.296875 
Q 14.984375 17.28125 19.8125 11.734375 
Q 24.65625 6.203125 33.40625 6.203125 
Q 37.3125 6.203125 41.140625 7.25 
Q 44.96875 8.296875 48.78125 10.40625 
L 48.78125 2.09375 
Q 45.015625 0.34375 40.984375 -0.53125 
Q 36.96875 -1.421875 32.421875 -1.421875 
Q 20.0625 -1.421875 12.78125 6.34375 
Q 5.515625 14.109375 5.515625 27.296875 
Q 5.515625 40.671875 12.859375 48.328125 
Q 20.21875 56 33.015625 56 
Q 37.15625 56 41.109375 55.140625 
Q 45.0625 54.296875 48.78125 52.59375 
z
" id="DejaVuSans-99"/>
      <path d="M 32.171875 -5.078125 
Q 28.375 -14.84375 24.75 -17.8125 
Q 21.140625 -20.796875 15.09375 -20.796875 
L 7.90625 -20.796875 
L 7.90625 -13.28125 
L 13.1875 -13.28125 
Q 16.890625 -13.28125 18.9375 -11.515625 
Q 21 -9.765625 23.484375 -3.21875 
L 25.09375 0.875 
L 2.984375 54.6875 
L 12.5 54.6875 
L 29.59375 11.921875 
L 46.6875 54.6875 
L 56.203125 54.6875 
z
" id="DejaVuSans-121"/>
     </defs>
     <g style="fill:#262626;" transform="translate(35.862344 406.984375)rotate(-90)scale(0.3 -0.3)">
      <use xlink:href="#DejaVuSans-84"/>
      <use x="60.865234" xlink:href="#DejaVuSans-114"/>
      <use x="101.978516" xlink:href="#DejaVuSans-97"/>
      <use x="163.257812" xlink:href="#DejaVuSans-110"/>
      <use x="226.636719" xlink:href="#DejaVuSans-115"/>
      <use x="278.736328" xlink:href="#DejaVuSans-102"/>
      <use x="313.941406" xlink:href="#DejaVuSans-101"/>
      <use x="375.464844" xlink:href="#DejaVuSans-114"/>
      <use x="416.578125" xlink:href="#DejaVuSans-32"/>
      <use x="448.365234" xlink:href="#DejaVuSans-69"/>
      <use x="511.548828" xlink:href="#DejaVuSans-102"/>
      <use x="546.753906" xlink:href="#DejaVuSans-102"/>
      <use x="581.958984" xlink:href="#DejaVuSans-105"/>
      <use x="609.742188" xlink:href="#DejaVuSans-99"/>
      <use x="664.722656" xlink:href="#DejaVuSans-105"/>
      <use x="692.505859" xlink:href="#DejaVuSans-101"/>
      <use x="754.029297" xlink:href="#DejaVuSans-110"/>
      <use x="817.408203" xlink:href="#DejaVuSans-99"/>
      <use x="872.388672" xlink:href="#DejaVuSans-121"/>
     </g>
    </g>
   </g>
   <g id="PolyCollection_1">
    <defs>
     <path d="M 119.70142 -288.634821 
L 119.70142 -288.634821 
L 164.960133 -316.772611 
L 210.218845 -320.989357 
L 255.477557 -309.233206 
L 300.736269 -302.610762 
L 345.994981 -290.616503 
L 391.253693 -282.626561 
L 436.512405 -277.737804 
L 481.771117 -268.958507 
L 527.02983 -262.956867 
L 527.02983 -262.956867 
L 527.02983 -250.654113 
L 481.771117 -257.500994 
L 436.512405 -265.358124 
L 391.253693 -269.640132 
L 345.994981 -278.703919 
L 300.736269 -287.102115 
L 255.477557 -295.292663 
L 210.218845 -303.277768 
L 164.960133 -301.793873 
L 119.70142 -288.634821 
z
" id="m8d0b7834fc" style="stroke:#ffffff;stroke-opacity:0.15;"/>
    </defs>
    <g clip-path="url(#pe44330ef98)">
     <use style="fill-opacity:0.15;stroke:#ffffff;stroke-opacity:0.15;" x="0" xlink:href="#m8d0b7834fc" y="576"/>
    </g>
   </g>
   <g id="PolyCollection_2">
    <defs>
     <path d="M 119.70142 -288.634821 
L 119.70142 -288.634821 
L 164.960133 -278.065659 
L 210.218845 -258.689948 
L 255.477557 -243.619786 
L 300.736269 -231.731282 
L 345.994981 -216.30057 
L 391.253693 -209.064636 
L 436.512405 -198.647523 
L 481.771117 -188.475416 
L 527.02983 -182.02699 
L 527.02983 -182.02699 
L 527.02983 -173.72791 
L 481.771117 -180.918243 
L 436.512405 -190.053936 
L 391.253693 -200.217108 
L 345.994981 -205.287258 
L 300.736269 -221.564834 
L 255.477557 -231.560627 
L 210.218845 -247.636439 
L 164.960133 -266.103032 
L 119.70142 -288.634821 
z
" id="m605532ab2d" style="stroke:#ffffff;stroke-opacity:0.15;"/>
    </defs>
    <g clip-path="url(#pe44330ef98)">
     <use style="fill-opacity:0.15;stroke:#ffffff;stroke-opacity:0.15;" x="0" xlink:href="#m605532ab2d" y="576"/>
    </g>
   </g>
   <g id="PolyCollection_3">
    <defs>
     <path d="M 119.70142 -288.634821 
L 119.70142 -288.634821 
L 164.960133 -278.658067 
L 210.218845 -264.428216 
L 255.477557 -248.512948 
L 300.736269 -241.012465 
L 345.994981 -231.486663 
L 391.253693 -222.645921 
L 436.512405 -212.677534 
L 481.771117 -204.3742 
L 527.02983 -197.763612 
L 527.02983 -197.763612 
L 527.02983 -190.504307 
L 481.771117 -196.941579 
L 436.512405 -203.958956 
L 391.253693 -215.424847 
L 345.994981 -224.014727 
L 300.736269 -232.255835 
L 255.477557 -242.080364 
L 210.218845 -256.711953 
L 164.960133 -271.347966 
L 119.70142 -288.634821 
z
" id="mf57dc5165f" style="stroke:#ffffff;stroke-opacity:0.15;"/>
    </defs>
    <g clip-path="url(#pe44330ef98)">
     <use style="fill-opacity:0.15;stroke:#ffffff;stroke-opacity:0.15;" x="0" xlink:href="#mf57dc5165f" y="576"/>
    </g>
   </g>
   <g id="PolyCollection_4">
    <defs>
     <path d="M 119.70142 -288.634821 
L 119.70142 -288.634821 
L 164.960133 -287.852533 
L 210.218845 -278.055224 
L 255.477557 -274.761848 
L 300.736269 -264.508684 
L 345.994981 -259.061674 
L 391.253693 -255.212305 
L 436.512405 -248.085117 
L 481.771117 -243.505409 
L 527.02983 -242.447279 
L 527.02983 -242.447279 
L 527.02983 -233.494841 
L 481.771117 -235.21648 
L 436.512405 -240.082841 
L 391.253693 -246.192512 
L 345.994981 -250.386484 
L 300.736269 -257.428241 
L 255.477557 -266.155867 
L 210.218845 -270.224215 
L 164.960133 -278.551492 
L 119.70142 -288.634821 
z
" id="m09191e89d4" style="stroke:#ffffff;stroke-opacity:0.15;"/>
    </defs>
    <g clip-path="url(#pe44330ef98)">
     <use style="fill-opacity:0.15;stroke:#ffffff;stroke-opacity:0.15;" x="0" xlink:href="#m09191e89d4" y="576"/>
    </g>
   </g>
   <g id="line2d_4">
    <path clip-path="url(#pe44330ef98)" d="M 119.70142 287.365179 
L 164.960133 266.716758 
L 210.218845 263.866437 
L 255.477557 273.737065 
L 300.736269 281.143562 
L 345.994981 291.339789 
L 391.253693 299.866653 
L 436.512405 304.452036 
L 481.771117 312.77025 
L 527.02983 319.19451 
" style="fill:none;stroke:#000000;stroke-linecap:round;stroke-width:3;"/>
   </g>
   <g id="line2d_5">
    <path clip-path="url(#pe44330ef98)" d="M 119.70142 287.365179 
L 164.960133 303.915654 
L 210.218845 322.836807 
L 255.477557 338.409794 
L 300.736269 349.351942 
L 345.994981 365.206086 
L 391.253693 371.359128 
L 436.512405 381.649271 
L 481.771117 391.303171 
L 527.02983 398.12255 
" style="fill:none;stroke:#000000;stroke-dasharray:11.1,4.8;stroke-dashoffset:0;stroke-width:3;"/>
   </g>
   <g id="line2d_6">
    <path clip-path="url(#pe44330ef98)" d="M 119.70142 287.365179 
L 164.960133 300.996984 
L 210.218845 315.429916 
L 255.477557 330.703344 
L 300.736269 339.36585 
L 345.994981 348.249305 
L 391.253693 356.964616 
L 436.512405 367.681755 
L 481.771117 375.34211 
L 527.02983 381.86604 
" style="fill:none;stroke:#000000;stroke-dasharray:19.2,4.8,3,4.8;stroke-dashoffset:0;stroke-width:3;"/>
   </g>
   <g id="line2d_7">
    <path clip-path="url(#pe44330ef98)" d="M 119.70142 287.365179 
L 164.960133 292.797988 
L 210.218845 301.86028 
L 255.477557 305.541143 
L 300.736269 315.031538 
L 345.994981 321.275921 
L 391.253693 325.297591 
L 436.512405 331.916021 
L 481.771117 336.639055 
L 527.02983 338.02894 
" style="fill:none;stroke:#000000;stroke-dasharray:3,4.95;stroke-dashoffset:0;stroke-width:3;"/>
   </g>
   <g id="PolyCollection_5">
    <defs>
     <path d="M 164.960133 -322.63987 
L 164.960133 -322.63987 
L 210.218845 -360.37489 
L 255.477557 -376.605934 
L 300.736269 -381.077641 
L 345.994981 -380.442851 
L 391.253693 -374.845451 
L 436.512405 -379.610955 
L 481.771117 -376.088446 
L 527.02983 -371.439084 
L 527.02983 -371.439084 
L 527.02983 -360.151732 
L 481.771117 -364.96373 
L 436.512405 -367.143635 
L 391.253693 -363.813625 
L 345.994981 -369.585504 
L 300.736269 -367.09146 
L 255.477557 -364.791096 
L 210.218845 -350.089807 
L 164.960133 -316.75068 
z
" id="mf90b34835d" style="stroke:#ffffff;stroke-opacity:0.15;"/>
    </defs>
    <g clip-path="url(#pe44330ef98)">
     <use style="fill:#b00026;fill-opacity:0.15;stroke:#ffffff;stroke-opacity:0.15;" x="0" xlink:href="#mf90b34835d" y="576"/>
    </g>
   </g>
   <g id="PolyCollection_6">
    <defs>
     <path d="M 164.960133 -354.55339 
L 164.960133 -354.55339 
L 210.218845 -382.252046 
L 255.477557 -389.849195 
L 300.736269 -393.535753 
L 345.994981 -392.496118 
L 391.253693 -389.723895 
L 436.512405 -390.299365 
L 481.771117 -383.501705 
L 527.02983 -381.14625 
L 527.02983 -381.14625 
L 527.02983 -370.84016 
L 481.771117 -373.9846 
L 436.512405 -379.458176 
L 391.253693 -378.450277 
L 345.994981 -381.147176 
L 300.736269 -382.92425 
L 255.477557 -380.424804 
L 210.218845 -371.721198 
L 164.960133 -347.53041 
z
" id="md0f1763582" style="stroke:#ffffff;stroke-opacity:0.15;"/>
    </defs>
    <g clip-path="url(#pe44330ef98)">
     <use style="fill:#b00026;fill-opacity:0.15;stroke:#ffffff;stroke-opacity:0.15;" x="0" xlink:href="#md0f1763582" y="576"/>
    </g>
   </g>
   <g id="PolyCollection_7">
    <defs>
     <path d="M 164.960133 -368.047592 
L 164.960133 -368.047592 
L 210.218845 -392.297648 
L 255.477557 -404.159034 
L 300.736269 -401.91923 
L 345.994981 -403.202836 
L 391.253693 -396.952156 
L 436.512405 -398.487193 
L 481.771117 -394.130254 
L 527.02983 -386.858723 
L 527.02983 -386.858723 
L 527.02983 -375.062102 
L 481.771117 -381.270185 
L 436.512405 -387.305229 
L 391.253693 -386.781395 
L 345.994981 -390.987116 
L 300.736269 -391.220359 
L 255.477557 -390.818131 
L 210.218845 -382.568885 
L 164.960133 -361.667475 
z
" id="mb40b24432c" style="stroke:#ffffff;stroke-opacity:0.15;"/>
    </defs>
    <g clip-path="url(#pe44330ef98)">
     <use style="fill:#b00026;fill-opacity:0.15;stroke:#ffffff;stroke-opacity:0.15;" x="0" xlink:href="#mb40b24432c" y="576"/>
    </g>
   </g>
   <g id="PolyCollection_8">
    <defs>
     <path d="M 164.960133 -377.167871 
L 164.960133 -377.167871 
L 210.218845 -403.958452 
L 255.477557 -411.067105 
L 300.736269 -414.440282 
L 345.994981 -407.80109 
L 391.253693 -402.058009 
L 436.512405 -399.181502 
L 481.771117 -398.318716 
L 527.02983 -391.484866 
L 527.02983 -391.484866 
L 527.02983 -380.844986 
L 481.771117 -385.799274 
L 436.512405 -388.700625 
L 391.253693 -392.822321 
L 345.994981 -395.855762 
L 300.736269 -404.469241 
L 255.477557 -398.273548 
L 210.218845 -392.969763 
L 164.960133 -370.843112 
z
" id="m714febe1e0" style="stroke:#ffffff;stroke-opacity:0.15;"/>
    </defs>
    <g clip-path="url(#pe44330ef98)">
     <use style="fill:#b00026;fill-opacity:0.15;stroke:#ffffff;stroke-opacity:0.15;" x="0" xlink:href="#m714febe1e0" y="576"/>
    </g>
   </g>
   <g id="line2d_8">
    <path clip-path="url(#pe44330ef98)" d="M 164.960133 256.304725 
L 210.218845 220.767652 
L 255.477557 205.301485 
L 300.736269 201.91545 
L 345.994981 200.985822 
L 391.253693 206.670462 
L 436.512405 202.622705 
L 481.771117 205.473912 
L 527.02983 210.204592 
" style="fill:none;stroke:#b00026;stroke-linecap:round;stroke-width:3;"/>
   </g>
   <g id="line2d_9">
    <path clip-path="url(#pe44330ef98)" d="M 164.960133 224.9581 
L 210.218845 199.013378 
L 255.477557 190.863 
L 300.736269 187.769998 
L 345.994981 189.178353 
L 391.253693 191.912914 
L 436.512405 191.12123 
L 481.771117 197.256848 
L 527.02983 200.006795 
" style="fill:none;stroke:#b00026;stroke-dasharray:11.1,4.8;stroke-dashoffset:0;stroke-width:3;"/>
   </g>
   <g id="line2d_10">
    <path clip-path="url(#pe44330ef98)" d="M 164.960133 211.142467 
L 210.218845 188.566734 
L 255.477557 178.511417 
L 300.736269 179.430205 
L 345.994981 178.905024 
L 391.253693 184.133225 
L 436.512405 183.103789 
L 481.771117 188.299781 
L 527.02983 195.039588 
" style="fill:none;stroke:#b00026;stroke-dasharray:19.2,4.8,3,4.8;stroke-dashoffset:0;stroke-width:3;"/>
   </g>
   <g id="line2d_11">
    <path clip-path="url(#pe44330ef98)" d="M 164.960133 201.994509 
L 210.218845 177.535893 
L 255.477557 171.329674 
L 300.736269 166.545239 
L 345.994981 174.171574 
L 391.253693 178.559835 
L 436.512405 182.058936 
L 481.771117 183.941005 
L 527.02983 189.835074 
" style="fill:none;stroke:#b00026;stroke-dasharray:3,4.95;stroke-dashoffset:0;stroke-width:3;"/>
   </g>
   <g id="patch_3">
    <path d="M 99.335 492.54 
L 99.335 41.96 
" style="fill:none;stroke:#ffffff;stroke-linecap:square;stroke-linejoin:miter;stroke-width:1.25;"/>
   </g>
   <g id="patch_4">
    <path d="M 547.39625 492.54 
L 547.39625 41.96 
" style="fill:none;stroke:#ffffff;stroke-linecap:square;stroke-linejoin:miter;stroke-width:1.25;"/>
   </g>
   <g id="patch_5">
    <path d="M 99.335 492.54 
L 547.39625 492.54 
" style="fill:none;stroke:#ffffff;stroke-linecap:square;stroke-linejoin:miter;stroke-width:1.25;"/>
   </g>
   <g id="patch_6">
    <path d="M 99.335 41.96 
L 547.39625 41.96 
" style="fill:none;stroke:#ffffff;stroke-linecap:square;stroke-linejoin:miter;stroke-width:1.25;"/>
   </g>
   <g id="PolyCollection_9">
    <defs>
     <path d="M 210.218845 -357.182524 
L 210.218845 -357.182524 
L 255.477557 -372.939033 
L 300.736269 -381.965351 
L 345.994981 -381.081657 
L 391.253693 -383.070702 
L 436.512405 -381.73311 
L 481.771117 -378.711914 
L 527.02983 -377.848164 
L 527.02983 -377.848164 
L 527.02983 -366.447741 
L 481.771117 -368.324232 
L 436.512405 -370.917335 
L 391.253693 -371.421636 
L 345.994981 -372.406701 
L 300.736269 -370.184587 
L 255.477557 -360.874532 
L 210.218845 -351.769589 
z
" id="m9d215b1cb3" style="stroke:#ffffff;stroke-opacity:0.15;"/>
    </defs>
    <g clip-path="url(#pe44330ef98)">
     <use style="fill:#d41020;fill-opacity:0.15;stroke:#ffffff;stroke-opacity:0.15;" x="0" xlink:href="#m9d215b1cb3" y="576"/>
    </g>
   </g>
   <g id="PolyCollection_10">
    <defs>
     <path d="M 210.218845 -376.601086 
L 210.218845 -376.601086 
L 255.477557 -390.854657 
L 300.736269 -395.688623 
L 345.994981 -394.868959 
L 391.253693 -393.501513 
L 436.512405 -392.454064 
L 481.771117 -389.504234 
L 527.02983 -385.572812 
L 527.02983 -385.572812 
L 527.02983 -374.163166 
L 481.771117 -378.767733 
L 436.512405 -381.996177 
L 391.253693 -381.291696 
L 345.994981 -382.020178 
L 300.736269 -383.426191 
L 255.477557 -379.743383 
L 210.218845 -369.777868 
z
" id="m9a5b09554e" style="stroke:#ffffff;stroke-opacity:0.15;"/>
    </defs>
    <g clip-path="url(#pe44330ef98)">
     <use style="fill:#d41020;fill-opacity:0.15;stroke:#ffffff;stroke-opacity:0.15;" x="0" xlink:href="#m9a5b09554e" y="576"/>
    </g>
   </g>
   <g id="PolyCollection_11">
    <defs>
     <path d="M 210.218845 -387.675926 
L 210.218845 -387.675926 
L 255.477557 -393.959192 
L 300.736269 -402.900796 
L 345.994981 -402.878832 
L 391.253693 -398.459076 
L 436.512405 -396.352169 
L 481.771117 -393.987905 
L 527.02983 -391.404623 
L 527.02983 -391.404623 
L 527.02983 -381.516638 
L 481.771117 -382.112999 
L 436.512405 -384.876313 
L 391.253693 -384.550941 
L 345.994981 -390.231508 
L 300.736269 -390.66349 
L 255.477557 -381.734369 
L 210.218845 -379.740011 
z
" id="mf4db90427e" style="stroke:#ffffff;stroke-opacity:0.15;"/>
    </defs>
    <g clip-path="url(#pe44330ef98)">
     <use style="fill:#d41020;fill-opacity:0.15;stroke:#ffffff;stroke-opacity:0.15;" x="0" xlink:href="#mf4db90427e" y="576"/>
    </g>
   </g>
   <g id="PolyCollection_12">
    <defs>
     <path d="M 210.218845 -395.934448 
L 210.218845 -395.934448 
L 255.477557 -401.481243 
L 300.736269 -408.427609 
L 345.994981 -404.99144 
L 391.253693 -403.599219 
L 436.512405 -400.895445 
L 481.771117 -396.922391 
L 527.02983 -393.74859 
L 527.02983 -393.74859 
L 527.02983 -382.398342 
L 481.771117 -386.231964 
L 436.512405 -388.750412 
L 391.253693 -395.034838 
L 345.994981 -394.258203 
L 300.736269 -398.45647 
L 255.477557 -391.779597 
L 210.218845 -389.825289 
z
" id="m8a177d4a52" style="stroke:#ffffff;stroke-opacity:0.15;"/>
    </defs>
    <g clip-path="url(#pe44330ef98)">
     <use style="fill:#d41020;fill-opacity:0.15;stroke:#ffffff;stroke-opacity:0.15;" x="0" xlink:href="#m8a177d4a52" y="576"/>
    </g>
   </g>
   <g id="line2d_12">
    <path clip-path="url(#pe44330ef98)" d="M 210.218845 221.523943 
L 255.477557 209.093218 
L 300.736269 199.925031 
L 345.994981 199.255821 
L 391.253693 198.753831 
L 436.512405 199.674778 
L 481.771117 202.481927 
L 527.02983 203.852047 
" style="fill:none;stroke:#d41020;stroke-linecap:round;stroke-width:3;"/>
   </g>
   <g id="line2d_13">
    <path clip-path="url(#pe44330ef98)" d="M 210.218845 202.810523 
L 255.477557 190.70098 
L 300.736269 186.442593 
L 345.994981 187.555431 
L 391.253693 188.603396 
L 436.512405 188.77488 
L 481.771117 191.864017 
L 527.02983 196.132011 
" style="fill:none;stroke:#d41020;stroke-dasharray:11.1,4.8;stroke-dashoffset:0;stroke-width:3;"/>
   </g>
   <g id="line2d_14">
    <path clip-path="url(#pe44330ef98)" d="M 210.218845 192.292031 
L 255.477557 188.15322 
L 300.736269 179.217857 
L 345.994981 179.44483 
L 391.253693 184.494991 
L 436.512405 185.385759 
L 481.771117 187.949548 
L 527.02983 189.539369 
" style="fill:none;stroke:#d41020;stroke-dasharray:19.2,4.8,3,4.8;stroke-dashoffset:0;stroke-width:3;"/>
   </g>
   <g id="line2d_15">
    <path clip-path="url(#pe44330ef98)" d="M 210.218845 183.120132 
L 255.477557 179.36958 
L 300.736269 172.557961 
L 345.994981 176.375178 
L 391.253693 176.682971 
L 436.512405 181.177071 
L 481.771117 184.422822 
L 527.02983 187.926534 
" style="fill:none;stroke:#d41020;stroke-dasharray:3,4.95;stroke-dashoffset:0;stroke-width:3;"/>
   </g>
   <g id="text_16">
    <!-- Lifelong Forests on R-XOR Suite -->
    <defs>
     <path d="M 9.8125 72.90625 
L 19.671875 72.90625 
L 19.671875 8.296875 
L 55.171875 8.296875 
L 55.171875 0 
L 9.8125 0 
z
" id="DejaVuSans-76"/>
     <path d="M 9.421875 75.984375 
L 18.40625 75.984375 
L 18.40625 0 
L 9.421875 0 
z
" id="DejaVuSans-108"/>
     <path d="M 45.40625 27.984375 
Q 45.40625 37.75 41.375 43.109375 
Q 37.359375 48.484375 30.078125 48.484375 
Q 22.859375 48.484375 18.828125 43.109375 
Q 14.796875 37.75 14.796875 27.984375 
Q 14.796875 18.265625 18.828125 12.890625 
Q 22.859375 7.515625 30.078125 7.515625 
Q 37.359375 7.515625 41.375 12.890625 
Q 45.40625 18.265625 45.40625 27.984375 
z
M 54.390625 6.78125 
Q 54.390625 -7.171875 48.1875 -13.984375 
Q 42 -20.796875 29.203125 -20.796875 
Q 24.46875 -20.796875 20.265625 -20.09375 
Q 16.0625 -19.390625 12.109375 -17.921875 
L 12.109375 -9.1875 
Q 16.0625 -11.328125 19.921875 -12.34375 
Q 23.78125 -13.375 27.78125 -13.375 
Q 36.625 -13.375 41.015625 -8.765625 
Q 45.40625 -4.15625 45.40625 5.171875 
L 45.40625 9.625 
Q 42.625 4.78125 38.28125 2.390625 
Q 33.9375 0 27.875 0 
Q 17.828125 0 11.671875 7.65625 
Q 5.515625 15.328125 5.515625 27.984375 
Q 5.515625 40.671875 11.671875 48.328125 
Q 17.828125 56 27.875 56 
Q 33.9375 56 38.28125 53.609375 
Q 42.625 51.21875 45.40625 46.390625 
L 45.40625 54.6875 
L 54.390625 54.6875 
z
" id="DejaVuSans-103"/>
     <path d="M 9.8125 72.90625 
L 51.703125 72.90625 
L 51.703125 64.59375 
L 19.671875 64.59375 
L 19.671875 43.109375 
L 48.578125 43.109375 
L 48.578125 34.8125 
L 19.671875 34.8125 
L 19.671875 0 
L 9.8125 0 
z
" id="DejaVuSans-70"/>
     <path d="M 44.390625 34.1875 
Q 47.5625 33.109375 50.5625 29.59375 
Q 53.5625 26.078125 56.59375 19.921875 
L 66.609375 0 
L 56 0 
L 46.6875 18.703125 
Q 43.0625 26.03125 39.671875 28.421875 
Q 36.28125 30.8125 30.421875 30.8125 
L 19.671875 30.8125 
L 19.671875 0 
L 9.8125 0 
L 9.8125 72.90625 
L 32.078125 72.90625 
Q 44.578125 72.90625 50.734375 67.671875 
Q 56.890625 62.453125 56.890625 51.90625 
Q 56.890625 45.015625 53.6875 40.46875 
Q 50.484375 35.9375 44.390625 34.1875 
z
M 19.671875 64.796875 
L 19.671875 38.921875 
L 32.078125 38.921875 
Q 39.203125 38.921875 42.84375 42.21875 
Q 46.484375 45.515625 46.484375 51.90625 
Q 46.484375 58.296875 42.84375 61.546875 
Q 39.203125 64.796875 32.078125 64.796875 
z
" id="DejaVuSans-82"/>
     <path d="M 4.890625 31.390625 
L 31.203125 31.390625 
L 31.203125 23.390625 
L 4.890625 23.390625 
z
" id="DejaVuSans-45"/>
     <path d="M 6.296875 72.90625 
L 16.890625 72.90625 
L 35.015625 45.796875 
L 53.21875 72.90625 
L 63.8125 72.90625 
L 40.375 37.890625 
L 65.375 0 
L 54.78125 0 
L 34.28125 31 
L 13.625 0 
L 2.984375 0 
L 29 38.921875 
z
" id="DejaVuSans-88"/>
     <path d="M 39.40625 66.21875 
Q 28.65625 66.21875 22.328125 58.203125 
Q 16.015625 50.203125 16.015625 36.375 
Q 16.015625 22.609375 22.328125 14.59375 
Q 28.65625 6.59375 39.40625 6.59375 
Q 50.140625 6.59375 56.421875 14.59375 
Q 62.703125 22.609375 62.703125 36.375 
Q 62.703125 50.203125 56.421875 58.203125 
Q 50.140625 66.21875 39.40625 66.21875 
z
M 39.40625 74.21875 
Q 54.734375 74.21875 63.90625 63.9375 
Q 73.09375 53.65625 73.09375 36.375 
Q 73.09375 19.140625 63.90625 8.859375 
Q 54.734375 -1.421875 39.40625 -1.421875 
Q 24.03125 -1.421875 14.8125 8.828125 
Q 5.609375 19.09375 5.609375 36.375 
Q 5.609375 53.65625 14.8125 63.9375 
Q 24.03125 74.21875 39.40625 74.21875 
z
" id="DejaVuSans-79"/>
     <path d="M 53.515625 70.515625 
L 53.515625 60.890625 
Q 47.90625 63.578125 42.921875 64.890625 
Q 37.9375 66.21875 33.296875 66.21875 
Q 25.25 66.21875 20.875 63.09375 
Q 16.5 59.96875 16.5 54.203125 
Q 16.5 49.359375 19.40625 46.890625 
Q 22.3125 44.4375 30.421875 42.921875 
L 36.375 41.703125 
Q 47.40625 39.59375 52.65625 34.296875 
Q 57.90625 29 57.90625 20.125 
Q 57.90625 9.515625 50.796875 4.046875 
Q 43.703125 -1.421875 29.984375 -1.421875 
Q 24.8125 -1.421875 18.96875 -0.25 
Q 13.140625 0.921875 6.890625 3.21875 
L 6.890625 13.375 
Q 12.890625 10.015625 18.65625 8.296875 
Q 24.421875 6.59375 29.984375 6.59375 
Q 38.421875 6.59375 43.015625 9.90625 
Q 47.609375 13.234375 47.609375 19.390625 
Q 47.609375 24.75 44.3125 27.78125 
Q 41.015625 30.8125 33.5 32.328125 
L 27.484375 33.5 
Q 16.453125 35.6875 11.515625 40.375 
Q 6.59375 45.0625 6.59375 53.421875 
Q 6.59375 63.09375 13.40625 68.65625 
Q 20.21875 74.21875 32.171875 74.21875 
Q 37.3125 74.21875 42.625 73.28125 
Q 47.953125 72.359375 53.515625 70.515625 
z
" id="DejaVuSans-83"/>
    </defs>
    <g style="fill:#262626;" transform="translate(84.89375 35.96)scale(0.3 -0.3)">
     <use xlink:href="#DejaVuSans-76"/>
     <use x="55.712891" xlink:href="#DejaVuSans-105"/>
     <use x="83.496094" xlink:href="#DejaVuSans-102"/>
     <use x="118.701172" xlink:href="#DejaVuSans-101"/>
     <use x="180.224609" xlink:href="#DejaVuSans-108"/>
     <use x="208.007812" xlink:href="#DejaVuSans-111"/>
     <use x="269.189453" xlink:href="#DejaVuSans-110"/>
     <use x="332.568359" xlink:href="#DejaVuSans-103"/>
     <use x="396.044922" xlink:href="#DejaVuSans-32"/>
     <use x="427.832031" xlink:href="#DejaVuSans-70"/>
     <use x="485.304688" xlink:href="#DejaVuSans-111"/>
     <use x="546.486328" xlink:href="#DejaVuSans-114"/>
     <use x="587.568359" xlink:href="#DejaVuSans-101"/>
     <use x="649.091797" xlink:href="#DejaVuSans-115"/>
     <use x="701.191406" xlink:href="#DejaVuSans-116"/>
     <use x="740.400391" xlink:href="#DejaVuSans-115"/>
     <use x="792.5" xlink:href="#DejaVuSans-32"/>
     <use x="824.287109" xlink:href="#DejaVuSans-111"/>
     <use x="885.46875" xlink:href="#DejaVuSans-110"/>
     <use x="948.847656" xlink:href="#DejaVuSans-32"/>
     <use x="980.634766" xlink:href="#DejaVuSans-82"/>
     <use x="1050.054688" xlink:href="#DejaVuSans-45"/>
     <use x="1086.060547" xlink:href="#DejaVuSans-88"/>
     <use x="1154.472656" xlink:href="#DejaVuSans-79"/>
     <use x="1233.183594" xlink:href="#DejaVuSans-82"/>
     <use x="1302.666016" xlink:href="#DejaVuSans-32"/>
     <use x="1334.453125" xlink:href="#DejaVuSans-83"/>
     <use x="1397.929688" xlink:href="#DejaVuSans-117"/>
     <use x="1461.308594" xlink:href="#DejaVuSans-105"/>
     <use x="1489.091797" xlink:href="#DejaVuSans-116"/>
     <use x="1528.300781" xlink:href="#DejaVuSans-101"/>
    </g>
   </g>
   <g id="PolyCollection_13">
    <defs>
     <path d="M 255.477557 -375.522722 
L 255.477557 -375.522722 
L 300.736269 -381.336297 
L 345.994981 -388.073797 
L 391.253693 -385.698222 
L 436.512405 -386.810316 
L 481.771117 -386.497603 
L 527.02983 -383.042479 
L 527.02983 -383.042479 
L 527.02983 -372.586179 
L 481.771117 -376.836785 
L 436.512405 -375.710242 
L 391.253693 -376.23556 
L 345.994981 -377.385367 
L 300.736269 -371.508711 
L 255.477557 -368.786619 
z
" id="ma4a3c80df2" style="stroke:#ffffff;stroke-opacity:0.15;"/>
    </defs>
    <g clip-path="url(#pe44330ef98)">
     <use style="fill:#ed2e21;fill-opacity:0.15;stroke:#ffffff;stroke-opacity:0.15;" x="0" xlink:href="#ma4a3c80df2" y="576"/>
    </g>
   </g>
   <g id="PolyCollection_14">
    <defs>
     <path d="M 255.477557 -386.66702 
L 255.477557 -386.66702 
L 300.736269 -392.600517 
L 345.994981 -394.626585 
L 391.253693 -395.435056 
L 436.512405 -395.275134 
L 481.771117 -393.800768 
L 527.02983 -391.658062 
L 527.02983 -391.658062 
L 527.02983 -380.197305 
L 481.771117 -381.898718 
L 436.512405 -384.147316 
L 391.253693 -385.270035 
L 345.994981 -383.849808 
L 300.736269 -382.370782 
L 255.477557 -380.64715 
z
" id="mbe66928ee7" style="stroke:#ffffff;stroke-opacity:0.15;"/>
    </defs>
    <g clip-path="url(#pe44330ef98)">
     <use style="fill:#ed2e21;fill-opacity:0.15;stroke:#ffffff;stroke-opacity:0.15;" x="0" xlink:href="#mbe66928ee7" y="576"/>
    </g>
   </g>
   <g id="PolyCollection_15">
    <defs>
     <path d="M 255.477557 -393.002456 
L 255.477557 -393.002456 
L 300.736269 -404.766927 
L 345.994981 -409.553657 
L 391.253693 -406.24282 
L 436.512405 -406.270505 
L 481.771117 -403.118015 
L 527.02983 -399.285394 
L 527.02983 -399.285394 
L 527.02983 -389.834255 
L 481.771117 -391.805452 
L 436.512405 -393.78674 
L 391.253693 -394.257205 
L 345.994981 -398.590494 
L 300.736269 -392.806107 
L 255.477557 -386.680985 
z
" id="m4b44cfae3d" style="stroke:#ffffff;stroke-opacity:0.15;"/>
    </defs>
    <g clip-path="url(#pe44330ef98)">
     <use style="fill:#ed2e21;fill-opacity:0.15;stroke:#ffffff;stroke-opacity:0.15;" x="0" xlink:href="#m4b44cfae3d" y="576"/>
    </g>
   </g>
   <g id="PolyCollection_16">
    <defs>
     <path d="M 255.477557 -398.620336 
L 255.477557 -398.620336 
L 300.736269 -405.544977 
L 345.994981 -403.470026 
L 391.253693 -406.580198 
L 436.512405 -404.705673 
L 481.771117 -404.071876 
L 527.02983 -398.203079 
L 527.02983 -398.203079 
L 527.02983 -387.906951 
L 481.771117 -392.694868 
L 436.512405 -393.428154 
L 391.253693 -395.620947 
L 345.994981 -392.19645 
L 300.736269 -393.629338 
L 255.477557 -391.611626 
z
" id="mfefb44eaa9" style="stroke:#ffffff;stroke-opacity:0.15;"/>
    </defs>
    <g clip-path="url(#pe44330ef98)">
     <use style="fill:#ed2e21;fill-opacity:0.15;stroke:#ffffff;stroke-opacity:0.15;" x="0" xlink:href="#mfefb44eaa9" y="576"/>
    </g>
   </g>
   <g id="line2d_16">
    <path clip-path="url(#pe44330ef98)" d="M 255.477557 203.84533 
L 300.736269 199.577496 
L 345.994981 193.270418 
L 391.253693 195.033109 
L 436.512405 194.739721 
L 481.771117 194.332806 
L 527.02983 198.185671 
" style="fill:none;stroke:#ed2e21;stroke-linecap:round;stroke-width:3;"/>
   </g>
   <g id="line2d_17">
    <path clip-path="url(#pe44330ef98)" d="M 255.477557 192.342915 
L 300.736269 188.51435 
L 345.994981 186.761803 
L 391.253693 185.647454 
L 436.512405 186.288775 
L 481.771117 188.150257 
L 527.02983 190.072317 
" style="fill:none;stroke:#ed2e21;stroke-dasharray:11.1,4.8;stroke-dashoffset:0;stroke-width:3;"/>
   </g>
   <g id="line2d_18">
    <path clip-path="url(#pe44330ef98)" d="M 255.477557 186.158279 
L 300.736269 177.213483 
L 345.994981 171.927925 
L 391.253693 175.749987 
L 436.512405 175.971377 
L 481.771117 178.538267 
L 527.02983 181.440175 
" style="fill:none;stroke:#ed2e21;stroke-dasharray:19.2,4.8,3,4.8;stroke-dashoffset:0;stroke-width:3;"/>
   </g>
   <g id="line2d_19">
    <path clip-path="url(#pe44330ef98)" d="M 255.477557 180.884019 
L 300.736269 176.412842 
L 345.994981 178.166762 
L 391.253693 174.899427 
L 436.512405 176.933086 
L 481.771117 177.616628 
L 527.02983 182.944985 
" style="fill:none;stroke:#ed2e21;stroke-dasharray:3,4.95;stroke-dashoffset:0;stroke-width:3;"/>
   </g>
   <g id="PolyCollection_17">
    <defs>
     <path d="M 300.736269 -383.449307 
L 300.736269 -383.449307 
L 345.994981 -381.85083 
L 391.253693 -391.519295 
L 436.512405 -392.849928 
L 481.771117 -389.667795 
L 527.02983 -389.422671 
L 527.02983 -389.422671 
L 527.02983 -382.372675 
L 481.771117 -378.435622 
L 436.512405 -383.367841 
L 391.253693 -382.503695 
L 345.994981 -373.780007 
L 300.736269 -377.190301 
z
" id="m5b0934dcd6" style="stroke:#ffffff;stroke-opacity:0.15;"/>
    </defs>
    <g clip-path="url(#pe44330ef98)">
     <use style="fill:#fc5b2e;fill-opacity:0.15;stroke:#ffffff;stroke-opacity:0.15;" x="0" xlink:href="#m5b0934dcd6" y="576"/>
    </g>
   </g>
   <g id="PolyCollection_18">
    <defs>
     <path d="M 300.736269 -390.04454 
L 300.736269 -390.04454 
L 345.994981 -396.194559 
L 391.253693 -395.288099 
L 436.512405 -397.645215 
L 481.771117 -395.046628 
L 527.02983 -395.647854 
L 527.02983 -395.647854 
L 527.02983 -384.045796 
L 481.771117 -384.059252 
L 436.512405 -388.706298 
L 391.253693 -385.218677 
L 345.994981 -385.793237 
L 300.736269 -382.65382 
z
" id="m9e0b2c645d" style="stroke:#ffffff;stroke-opacity:0.15;"/>
    </defs>
    <g clip-path="url(#pe44330ef98)">
     <use style="fill:#fc5b2e;fill-opacity:0.15;stroke:#ffffff;stroke-opacity:0.15;" x="0" xlink:href="#m9e0b2c645d" y="576"/>
    </g>
   </g>
   <g id="PolyCollection_19">
    <defs>
     <path d="M 300.736269 -389.796911 
L 300.736269 -389.796911 
L 345.994981 -393.936615 
L 391.253693 -392.713184 
L 436.512405 -394.791921 
L 481.771117 -395.67406 
L 527.02983 -392.571253 
L 527.02983 -392.571253 
L 527.02983 -382.956136 
L 481.771117 -386.960782 
L 436.512405 -384.574076 
L 391.253693 -382.724792 
L 345.994981 -383.810089 
L 300.736269 -381.271024 
z
" id="m7ded64d426" style="stroke:#ffffff;stroke-opacity:0.15;"/>
    </defs>
    <g clip-path="url(#pe44330ef98)">
     <use style="fill:#fc5b2e;fill-opacity:0.15;stroke:#ffffff;stroke-opacity:0.15;" x="0" xlink:href="#m7ded64d426" y="576"/>
    </g>
   </g>
   <g id="PolyCollection_20">
    <defs>
     <path d="M 300.736269 -399.356263 
L 300.736269 -399.356263 
L 345.994981 -404.101128 
L 391.253693 -400.756427 
L 436.512405 -403.857936 
L 481.771117 -401.811346 
L 527.02983 -400.11854 
L 527.02983 -400.11854 
L 527.02983 -387.63859 
L 481.771117 -390.153182 
L 436.512405 -391.405862 
L 391.253693 -389.203927 
L 345.994981 -390.341393 
L 300.736269 -392.391009 
z
" id="m03e79a5dbf" style="stroke:#ffffff;stroke-opacity:0.15;"/>
    </defs>
    <g clip-path="url(#pe44330ef98)">
     <use style="fill:#fc5b2e;fill-opacity:0.15;stroke:#ffffff;stroke-opacity:0.15;" x="0" xlink:href="#m03e79a5dbf" y="576"/>
    </g>
   </g>
   <g id="line2d_20">
    <path clip-path="url(#pe44330ef98)" d="M 300.736269 195.680196 
L 345.994981 198.184582 
L 391.253693 188.988505 
L 436.512405 187.891115 
L 481.771117 191.948291 
L 527.02983 190.102327 
" style="fill:none;stroke:#fc5b2e;stroke-linecap:round;stroke-width:3;"/>
   </g>
   <g id="line2d_21">
    <path clip-path="url(#pe44330ef98)" d="M 300.736269 189.65082 
L 345.994981 185.006102 
L 391.253693 185.746612 
L 436.512405 182.824243 
L 481.771117 186.44706 
L 527.02983 186.153175 
" style="fill:none;stroke:#fc5b2e;stroke-dasharray:11.1,4.8;stroke-dashoffset:0;stroke-width:3;"/>
   </g>
   <g id="line2d_22">
    <path clip-path="url(#pe44330ef98)" d="M 300.736269 190.466032 
L 345.994981 187.126648 
L 391.253693 188.281012 
L 436.512405 186.317002 
L 481.771117 184.682579 
L 527.02983 188.236306 
" style="fill:none;stroke:#fc5b2e;stroke-dasharray:19.2,4.8,3,4.8;stroke-dashoffset:0;stroke-width:3;"/>
   </g>
   <g id="line2d_23">
    <path clip-path="url(#pe44330ef98)" d="M 300.736269 180.126364 
L 345.994981 178.778739 
L 391.253693 181.019823 
L 436.512405 178.368101 
L 481.771117 180.017736 
L 527.02983 182.121435 
" style="fill:none;stroke:#fc5b2e;stroke-dasharray:3,4.95;stroke-dashoffset:0;stroke-width:3;"/>
   </g>
   <g id="legend_1">
    <g id="patch_7">
     <path d="M 393.454062 162.0425 
L 534.79625 162.0425 
Q 538.39625 162.0425 538.39625 158.4425 
L 538.39625 54.56 
Q 538.39625 50.96 534.79625 50.96 
L 393.454062 50.96 
Q 389.854062 50.96 389.854062 54.56 
L 389.854062 158.4425 
Q 389.854062 162.0425 393.454062 162.0425 
z
" style="fill:#eaeaf2;opacity:0.8;stroke:#cccccc;stroke-linejoin:miter;"/>
    </g>
    <g id="line2d_24">
     <path d="M 397.054062 65.537187 
L 433.054062 65.537187 
" style="fill:none;stroke:#000000;stroke-linecap:round;stroke-width:3;"/>
    </g>
    <g id="line2d_25"/>
    <g id="text_17">
     <!-- n1 = 50 -->
     <defs>
      <path d="M 10.59375 45.40625 
L 73.1875 45.40625 
L 73.1875 37.203125 
L 10.59375 37.203125 
z
M 10.59375 25.484375 
L 73.1875 25.484375 
L 73.1875 17.1875 
L 10.59375 17.1875 
z
" id="DejaVuSans-61"/>
     </defs>
     <g style="fill:#262626;" transform="translate(447.454062 71.837187)scale(0.18 -0.18)">
      <use xlink:href="#DejaVuSans-110"/>
      <use x="63.378906" xlink:href="#DejaVuSans-49"/>
      <use x="127.001953" xlink:href="#DejaVuSans-32"/>
      <use x="158.789062" xlink:href="#DejaVuSans-61"/>
      <use x="242.578125" xlink:href="#DejaVuSans-32"/>
      <use x="274.365234" xlink:href="#DejaVuSans-53"/>
      <use x="337.988281" xlink:href="#DejaVuSans-48"/>
     </g>
    </g>
    <g id="line2d_26">
     <path d="M 397.054062 91.957812 
L 433.054062 91.957812 
" style="fill:none;stroke:#000000;stroke-dasharray:11.1,4.8;stroke-dashoffset:0;stroke-width:3;"/>
    </g>
    <g id="line2d_27"/>
    <g id="text_18">
     <!-- n1 = 100 -->
     <g style="fill:#262626;" transform="translate(447.454062 98.257812)scale(0.18 -0.18)">
      <use xlink:href="#DejaVuSans-110"/>
      <use x="63.378906" xlink:href="#DejaVuSans-49"/>
      <use x="127.001953" xlink:href="#DejaVuSans-32"/>
      <use x="158.789062" xlink:href="#DejaVuSans-61"/>
      <use x="242.578125" xlink:href="#DejaVuSans-32"/>
      <use x="274.365234" xlink:href="#DejaVuSans-49"/>
      <use x="337.988281" xlink:href="#DejaVuSans-48"/>
      <use x="401.611328" xlink:href="#DejaVuSans-48"/>
     </g>
    </g>
    <g id="line2d_28">
     <path d="M 397.054062 118.378437 
L 433.054062 118.378437 
" style="fill:none;stroke:#000000;stroke-dasharray:19.2,4.8,3,4.8;stroke-dashoffset:0;stroke-width:3;"/>
    </g>
    <g id="line2d_29"/>
    <g id="text_19">
     <!-- n1 = 200 -->
     <g style="fill:#262626;" transform="translate(447.454062 124.678437)scale(0.18 -0.18)">
      <use xlink:href="#DejaVuSans-110"/>
      <use x="63.378906" xlink:href="#DejaVuSans-49"/>
      <use x="127.001953" xlink:href="#DejaVuSans-32"/>
      <use x="158.789062" xlink:href="#DejaVuSans-61"/>
      <use x="242.578125" xlink:href="#DejaVuSans-32"/>
      <use x="274.365234" xlink:href="#DejaVuSans-50"/>
      <use x="337.988281" xlink:href="#DejaVuSans-48"/>
      <use x="401.611328" xlink:href="#DejaVuSans-48"/>
     </g>
    </g>
    <g id="line2d_30">
     <path d="M 397.054062 144.799062 
L 433.054062 144.799062 
" style="fill:none;stroke:#000000;stroke-dasharray:3,4.95;stroke-dashoffset:0;stroke-width:3;"/>
    </g>
    <g id="line2d_31"/>
    <g id="text_20">
     <!-- n1 = 500 -->
     <g style="fill:#262626;" transform="translate(447.454062 151.099062)scale(0.18 -0.18)">
      <use xlink:href="#DejaVuSans-110"/>
      <use x="63.378906" xlink:href="#DejaVuSans-49"/>
      <use x="127.001953" xlink:href="#DejaVuSans-32"/>
      <use x="158.789062" xlink:href="#DejaVuSans-61"/>
      <use x="242.578125" xlink:href="#DejaVuSans-32"/>
      <use x="274.365234" xlink:href="#DejaVuSans-53"/>
      <use x="337.988281" xlink:href="#DejaVuSans-48"/>
      <use x="401.611328" xlink:href="#DejaVuSans-48"/>
     </g>
    </g>
   </g>
   <g id="PolyCollection_21">
    <defs>
     <path d="M 345.994981 -382.006596 
L 345.994981 -382.006596 
L 391.253693 -388.899813 
L 436.512405 -391.806086 
L 481.771117 -393.50314 
L 527.02983 -390.741439 
L 527.02983 -390.741439 
L 527.02983 -380.784592 
L 481.771117 -381.472467 
L 436.512405 -381.749976 
L 391.253693 -378.851634 
L 345.994981 -374.976633 
z
" id="ma5dbc87e8f" style="stroke:#ffffff;stroke-opacity:0.15;"/>
    </defs>
    <g clip-path="url(#pe44330ef98)">
     <use style="fill:#fd8c3c;fill-opacity:0.15;stroke:#ffffff;stroke-opacity:0.15;" x="0" xlink:href="#ma5dbc87e8f" y="576"/>
    </g>
   </g>
   <g id="PolyCollection_22">
    <defs>
     <path d="M 345.994981 -390.389647 
L 345.994981 -390.389647 
L 391.253693 -401.03891 
L 436.512405 -396.438947 
L 481.771117 -397.259912 
L 527.02983 -396.571696 
L 527.02983 -396.571696 
L 527.02983 -386.096548 
L 481.771117 -387.970282 
L 436.512405 -385.982254 
L 391.253693 -390.451269 
L 345.994981 -384.486619 
z
" id="m5d45c15bfc" style="stroke:#ffffff;stroke-opacity:0.15;"/>
    </defs>
    <g clip-path="url(#pe44330ef98)">
     <use style="fill:#fd8c3c;fill-opacity:0.15;stroke:#ffffff;stroke-opacity:0.15;" x="0" xlink:href="#m5d45c15bfc" y="576"/>
    </g>
   </g>
   <g id="PolyCollection_23">
    <defs>
     <path d="M 345.994981 -390.460057 
L 345.994981 -390.460057 
L 391.253693 -396.210829 
L 436.512405 -398.879389 
L 481.771117 -397.402244 
L 527.02983 -399.99116 
L 527.02983 -399.99116 
L 527.02983 -388.954624 
L 481.771117 -388.137293 
L 436.512405 -390.309239 
L 391.253693 -387.791677 
L 345.994981 -384.653013 
z
" id="m30668b5435" style="stroke:#ffffff;stroke-opacity:0.15;"/>
    </defs>
    <g clip-path="url(#pe44330ef98)">
     <use style="fill:#fd8c3c;fill-opacity:0.15;stroke:#ffffff;stroke-opacity:0.15;" x="0" xlink:href="#m30668b5435" y="576"/>
    </g>
   </g>
   <g id="PolyCollection_24">
    <defs>
     <path d="M 345.994981 -394.457523 
L 345.994981 -394.457523 
L 391.253693 -396.353607 
L 436.512405 -398.866159 
L 481.771117 -397.660946 
L 527.02983 -393.950237 
L 527.02983 -393.950237 
L 527.02983 -386.492619 
L 481.771117 -388.631633 
L 436.512405 -386.671341 
L 391.253693 -387.544773 
L 345.994981 -387.758171 
z
" id="mf60becfe9c" style="stroke:#ffffff;stroke-opacity:0.15;"/>
    </defs>
    <g clip-path="url(#pe44330ef98)">
     <use style="fill:#fd8c3c;fill-opacity:0.15;stroke:#ffffff;stroke-opacity:0.15;" x="0" xlink:href="#mf60becfe9c" y="576"/>
    </g>
   </g>
   <g id="line2d_32">
    <path clip-path="url(#pe44330ef98)" d="M 345.994981 197.508386 
L 391.253693 192.124276 
L 436.512405 189.221969 
L 481.771117 188.512197 
L 527.02983 190.236984 
" style="fill:none;stroke:#fd8c3c;stroke-linecap:round;stroke-width:3;"/>
   </g>
   <g id="line2d_33">
    <path clip-path="url(#pe44330ef98)" d="M 345.994981 188.561867 
L 391.253693 180.254911 
L 436.512405 184.789399 
L 481.771117 183.384903 
L 527.02983 184.665878 
" style="fill:none;stroke:#fd8c3c;stroke-dasharray:11.1,4.8;stroke-dashoffset:0;stroke-width:3;"/>
   </g>
   <g id="line2d_34">
    <path clip-path="url(#pe44330ef98)" d="M 345.994981 188.443465 
L 391.253693 183.998747 
L 436.512405 181.405686 
L 481.771117 183.230231 
L 527.02983 181.527108 
" style="fill:none;stroke:#fd8c3c;stroke-dasharray:19.2,4.8,3,4.8;stroke-dashoffset:0;stroke-width:3;"/>
   </g>
   <g id="line2d_35">
    <path clip-path="url(#pe44330ef98)" d="M 345.994981 184.892153 
L 391.253693 184.05081 
L 436.512405 183.23125 
L 481.771117 182.853711 
L 527.02983 185.778572 
" style="fill:none;stroke:#fd8c3c;stroke-dasharray:3,4.95;stroke-dashoffset:0;stroke-width:3;"/>
   </g>
   <g id="PolyCollection_25">
    <defs>
     <path d="M 391.253693 -386.950208 
L 391.253693 -386.950208 
L 436.512405 -389.34201 
L 481.771117 -392.07907 
L 527.02983 -393.42885 
L 527.02983 -393.42885 
L 527.02983 -383.740262 
L 481.771117 -382.465106 
L 436.512405 -379.101946 
L 391.253693 -380.36306 
z
" id="m6192a38b5d" style="stroke:#ffffff;stroke-opacity:0.15;"/>
    </defs>
    <g clip-path="url(#pe44330ef98)">
     <use style="fill:#feab49;fill-opacity:0.15;stroke:#ffffff;stroke-opacity:0.15;" x="0" xlink:href="#m6192a38b5d" y="576"/>
    </g>
   </g>
   <g id="PolyCollection_26">
    <defs>
     <path d="M 391.253693 -388.941688 
L 391.253693 -388.941688 
L 436.512405 -393.095567 
L 481.771117 -395.110713 
L 527.02983 -396.826505 
L 527.02983 -396.826505 
L 527.02983 -384.460698 
L 481.771117 -383.701003 
L 436.512405 -382.206814 
L 391.253693 -380.393618 
z
" id="ma82c6a877f" style="stroke:#ffffff;stroke-opacity:0.15;"/>
    </defs>
    <g clip-path="url(#pe44330ef98)">
     <use style="fill:#feab49;fill-opacity:0.15;stroke:#ffffff;stroke-opacity:0.15;" x="0" xlink:href="#ma82c6a877f" y="576"/>
    </g>
   </g>
   <g id="PolyCollection_27">
    <defs>
     <path d="M 391.253693 -390.911463 
L 391.253693 -390.911463 
L 436.512405 -393.895062 
L 481.771117 -393.554448 
L 527.02983 -393.886482 
L 527.02983 -393.886482 
L 527.02983 -384.432016 
L 481.771117 -381.514045 
L 436.512405 -382.571597 
L 391.253693 -384.447674 
z
" id="m2e4911b284" style="stroke:#ffffff;stroke-opacity:0.15;"/>
    </defs>
    <g clip-path="url(#pe44330ef98)">
     <use style="fill:#feab49;fill-opacity:0.15;stroke:#ffffff;stroke-opacity:0.15;" x="0" xlink:href="#m2e4911b284" y="576"/>
    </g>
   </g>
   <g id="PolyCollection_28">
    <defs>
     <path d="M 391.253693 -391.098927 
L 391.253693 -391.098927 
L 436.512405 -390.652043 
L 481.771117 -396.675063 
L 527.02983 -399.487066 
L 527.02983 -399.487066 
L 527.02983 -389.499238 
L 481.771117 -386.723618 
L 436.512405 -381.55581 
L 391.253693 -383.905809 
z
" id="m40b77a3565" style="stroke:#ffffff;stroke-opacity:0.15;"/>
    </defs>
    <g clip-path="url(#pe44330ef98)">
     <use style="fill:#feab49;fill-opacity:0.15;stroke:#ffffff;stroke-opacity:0.15;" x="0" xlink:href="#m40b77a3565" y="576"/>
    </g>
   </g>
   <g id="line2d_36">
    <path clip-path="url(#pe44330ef98)" d="M 391.253693 192.343366 
L 436.512405 191.778022 
L 481.771117 188.727912 
L 527.02983 187.415444 
" style="fill:none;stroke:#feab49;stroke-linecap:round;stroke-width:3;"/>
   </g>
   <g id="line2d_37">
    <path clip-path="url(#pe44330ef98)" d="M 391.253693 191.332347 
L 436.512405 188.34881 
L 481.771117 186.594142 
L 527.02983 185.356399 
" style="fill:none;stroke:#feab49;stroke-dasharray:11.1,4.8;stroke-dashoffset:0;stroke-width:3;"/>
   </g>
   <g id="line2d_38">
    <path clip-path="url(#pe44330ef98)" d="M 391.253693 188.320432 
L 436.512405 187.76667 
L 481.771117 188.465753 
L 527.02983 186.840751 
" style="fill:none;stroke:#feab49;stroke-dasharray:19.2,4.8,3,4.8;stroke-dashoffset:0;stroke-width:3;"/>
   </g>
   <g id="line2d_39">
    <path clip-path="url(#pe44330ef98)" d="M 391.253693 188.497632 
L 436.512405 189.896073 
L 481.771117 184.300659 
L 527.02983 181.506848 
" style="fill:none;stroke:#feab49;stroke-dasharray:3,4.95;stroke-dashoffset:0;stroke-width:3;"/>
   </g>
   <g id="PolyCollection_29">
    <defs>
     <path d="M 436.512405 -387.153945 
L 436.512405 -387.153945 
L 481.771117 -397.26681 
L 527.02983 -393.698604 
L 527.02983 -393.698604 
L 527.02983 -381.841363 
L 481.771117 -386.466948 
L 436.512405 -380.164201 
z
" id="m11de082ea4" style="stroke:#ffffff;stroke-opacity:0.15;"/>
    </defs>
    <g clip-path="url(#pe44330ef98)">
     <use style="fill:#feca66;fill-opacity:0.15;stroke:#ffffff;stroke-opacity:0.15;" x="0" xlink:href="#m11de082ea4" y="576"/>
    </g>
   </g>
   <g id="PolyCollection_30">
    <defs>
     <path d="M 436.512405 -390.356208 
L 436.512405 -390.356208 
L 481.771117 -392.609056 
L 527.02983 -391.433251 
L 527.02983 -391.433251 
L 527.02983 -381.960077 
L 481.771117 -384.80813 
L 436.512405 -382.188671 
z
" id="mefd1716035" style="stroke:#ffffff;stroke-opacity:0.15;"/>
    </defs>
    <g clip-path="url(#pe44330ef98)">
     <use style="fill:#feca66;fill-opacity:0.15;stroke:#ffffff;stroke-opacity:0.15;" x="0" xlink:href="#mefd1716035" y="576"/>
    </g>
   </g>
   <g id="PolyCollection_31">
    <defs>
     <path d="M 436.512405 -388.145527 
L 436.512405 -388.145527 
L 481.771117 -393.847528 
L 527.02983 -394.834054 
L 527.02983 -394.834054 
L 527.02983 -385.301823 
L 481.771117 -382.92748 
L 436.512405 -381.882559 
z
" id="mfe474b01b1" style="stroke:#ffffff;stroke-opacity:0.15;"/>
    </defs>
    <g clip-path="url(#pe44330ef98)">
     <use style="fill:#feca66;fill-opacity:0.15;stroke:#ffffff;stroke-opacity:0.15;" x="0" xlink:href="#mfe474b01b1" y="576"/>
    </g>
   </g>
   <g id="PolyCollection_32">
    <defs>
     <path d="M 436.512405 -391.711035 
L 436.512405 -391.711035 
L 481.771117 -394.437139 
L 527.02983 -397.000781 
L 527.02983 -397.000781 
L 527.02983 -385.988667 
L 481.771117 -383.800166 
L 436.512405 -385.041459 
z
" id="m3f9cbafa3c" style="stroke:#ffffff;stroke-opacity:0.15;"/>
    </defs>
    <g clip-path="url(#pe44330ef98)">
     <use style="fill:#feca66;fill-opacity:0.15;stroke:#ffffff;stroke-opacity:0.15;" x="0" xlink:href="#m3f9cbafa3c" y="576"/>
    </g>
   </g>
   <g id="line2d_40">
    <path clip-path="url(#pe44330ef98)" d="M 436.512405 192.340927 
L 481.771117 184.133121 
L 527.02983 188.230017 
" style="fill:none;stroke:#feca66;stroke-linecap:round;stroke-width:3;"/>
   </g>
   <g id="line2d_41">
    <path clip-path="url(#pe44330ef98)" d="M 436.512405 189.727561 
L 481.771117 187.291407 
L 527.02983 189.303336 
" style="fill:none;stroke:#feca66;stroke-dasharray:11.1,4.8;stroke-dashoffset:0;stroke-width:3;"/>
   </g>
   <g id="line2d_42">
    <path clip-path="url(#pe44330ef98)" d="M 436.512405 190.985957 
L 481.771117 187.612496 
L 527.02983 185.932062 
" style="fill:none;stroke:#feca66;stroke-dasharray:19.2,4.8,3,4.8;stroke-dashoffset:0;stroke-width:3;"/>
   </g>
   <g id="line2d_43">
    <path clip-path="url(#pe44330ef98)" d="M 436.512405 187.623753 
L 481.771117 186.881347 
L 527.02983 184.505276 
" style="fill:none;stroke:#feca66;stroke-dasharray:3,4.95;stroke-dashoffset:0;stroke-width:3;"/>
   </g>
   <g id="PolyCollection_33">
    <defs>
     <path d="M 481.771117 -384.866128 
L 481.771117 -384.866128 
L 527.02983 -387.802167 
L 527.02983 -387.802167 
L 527.02983 -379.618431 
L 481.771117 -377.566467 
z
" id="m4847581807" style="stroke:#ffffff;stroke-opacity:0.15;"/>
    </defs>
    <g clip-path="url(#pe44330ef98)">
     <use style="fill:#fee187;fill-opacity:0.15;stroke:#ffffff;stroke-opacity:0.15;" x="0" xlink:href="#m4847581807" y="576"/>
    </g>
   </g>
   <g id="PolyCollection_34">
    <defs>
     <path d="M 481.771117 -383.898869 
L 481.771117 -383.898869 
L 527.02983 -393.347534 
L 527.02983 -393.347534 
L 527.02983 -384.07222 
L 481.771117 -378.155315 
z
" id="m695331d973" style="stroke:#ffffff;stroke-opacity:0.15;"/>
    </defs>
    <g clip-path="url(#pe44330ef98)">
     <use style="fill:#fee187;fill-opacity:0.15;stroke:#ffffff;stroke-opacity:0.15;" x="0" xlink:href="#m695331d973" y="576"/>
    </g>
   </g>
   <g id="PolyCollection_35">
    <defs>
     <path d="M 481.771117 -387.974949 
L 481.771117 -387.974949 
L 527.02983 -389.096596 
L 527.02983 -389.096596 
L 527.02983 -378.505999 
L 481.771117 -382.151596 
z
" id="mde3aeefe6d" style="stroke:#ffffff;stroke-opacity:0.15;"/>
    </defs>
    <g clip-path="url(#pe44330ef98)">
     <use style="fill:#fee187;fill-opacity:0.15;stroke:#ffffff;stroke-opacity:0.15;" x="0" xlink:href="#mde3aeefe6d" y="576"/>
    </g>
   </g>
   <g id="PolyCollection_36">
    <defs>
     <path d="M 481.771117 -385.917128 
L 481.771117 -385.917128 
L 527.02983 -388.194757 
L 527.02983 -388.194757 
L 527.02983 -379.099251 
L 481.771117 -379.73872 
z
" id="m1862e2ef89" style="stroke:#ffffff;stroke-opacity:0.15;"/>
    </defs>
    <g clip-path="url(#pe44330ef98)">
     <use style="fill:#fee187;fill-opacity:0.15;stroke:#ffffff;stroke-opacity:0.15;" x="0" xlink:href="#m1862e2ef89" y="576"/>
    </g>
   </g>
   <g id="line2d_44">
    <path clip-path="url(#pe44330ef98)" d="M 481.771117 194.783703 
L 527.02983 192.289701 
" style="fill:none;stroke:#fee187;stroke-linecap:round;stroke-width:3;"/>
   </g>
   <g id="line2d_45">
    <path clip-path="url(#pe44330ef98)" d="M 481.771117 194.972908 
L 527.02983 187.290123 
" style="fill:none;stroke:#fee187;stroke-dasharray:11.1,4.8;stroke-dashoffset:0;stroke-width:3;"/>
   </g>
   <g id="line2d_46">
    <path clip-path="url(#pe44330ef98)" d="M 481.771117 190.936728 
L 527.02983 192.198703 
" style="fill:none;stroke:#fee187;stroke-dasharray:19.2,4.8,3,4.8;stroke-dashoffset:0;stroke-width:3;"/>
   </g>
   <g id="line2d_47">
    <path clip-path="url(#pe44330ef98)" d="M 481.771117 193.172076 
L 527.02983 192.352996 
" style="fill:none;stroke:#fee187;stroke-dasharray:3,4.95;stroke-dashoffset:0;stroke-width:3;"/>
   </g>
  </g>
 </g>
 <defs>
  <clipPath id="pe44330ef98">
   <rect height="450.58" width="448.06125" x="99.335" y="41.96"/>
  </clipPath>
 </defs>
</svg>
