<?xml version="1.0" encoding="utf-8" standalone="no"?>
<!DOCTYPE svg PUBLIC "-//W3C//DTD SVG 1.1//EN"
  "http://www.w3.org/Graphics/SVG/1.1/DTD/svg11.dtd">
<!-- Created with matplotlib (https://matplotlib.org/) -->
<svg height="576pt" version="1.1" viewBox="0 0 576 576" width="576pt" xmlns="http://www.w3.org/2000/svg" xmlns:xlink="http://www.w3.org/1999/xlink">
 <defs>
  <style type="text/css">
*{stroke-linecap:butt;stroke-linejoin:round;}
  </style>
 </defs>
 <g id="figure_1">
  <g id="patch_1">
   <path d="M 0 576 
L 576 576 
L 576 0 
L 0 0 
z
" style="fill:#ffffff;"/>
  </g>
  <g id="axes_1">
   <g id="patch_2">
    <path d="M 99.21 492.54 
L 555.887996 492.54 
L 555.887996 41.96 
L 99.21 41.96 
z
" style="fill:#eaeaf2;"/>
   </g>
   <g id="matplotlib.axis_1">
    <g id="xtick_1">
     <g id="line2d_1">
      <path clip-path="url(#p7c17193c23)" d="M 119.968091 492.54 
L 119.968091 41.96 
" style="fill:none;stroke:#ffffff;stroke-linecap:round;"/>
     </g>
     <g id="text_1">
      <!-- 0 -->
      <defs>
       <path d="M 31.78125 66.40625 
Q 24.171875 66.40625 20.328125 58.90625 
Q 16.5 51.421875 16.5 36.375 
Q 16.5 21.390625 20.328125 13.890625 
Q 24.171875 6.390625 31.78125 6.390625 
Q 39.453125 6.390625 43.28125 13.890625 
Q 47.125 21.390625 47.125 36.375 
Q 47.125 51.421875 43.28125 58.90625 
Q 39.453125 66.40625 31.78125 66.40625 
z
M 31.78125 74.21875 
Q 44.046875 74.21875 50.515625 64.515625 
Q 56.984375 54.828125 56.984375 36.375 
Q 56.984375 17.96875 50.515625 8.265625 
Q 44.046875 -1.421875 31.78125 -1.421875 
Q 19.53125 -1.421875 13.0625 8.265625 
Q 6.59375 17.96875 6.59375 36.375 
Q 6.59375 54.828125 13.0625 64.515625 
Q 19.53125 74.21875 31.78125 74.21875 
z
" id="DejaVuSans-48"/>
      </defs>
      <g style="fill:#262626;" transform="translate(111.219653 522.935703)scale(0.275 -0.275)">
       <use xlink:href="#DejaVuSans-48"/>
      </g>
     </g>
    </g>
    <g id="xtick_2">
     <g id="line2d_2">
      <path clip-path="url(#p7c17193c23)" d="M 224.047654 492.54 
L 224.047654 41.96 
" style="fill:none;stroke:#ffffff;stroke-linecap:round;"/>
     </g>
     <g id="text_2">
      <!-- 90 -->
      <defs>
       <path d="M 10.984375 1.515625 
L 10.984375 10.5 
Q 14.703125 8.734375 18.5 7.8125 
Q 22.3125 6.890625 25.984375 6.890625 
Q 35.75 6.890625 40.890625 13.453125 
Q 46.046875 20.015625 46.78125 33.40625 
Q 43.953125 29.203125 39.59375 26.953125 
Q 35.25 24.703125 29.984375 24.703125 
Q 19.046875 24.703125 12.671875 31.3125 
Q 6.296875 37.9375 6.296875 49.421875 
Q 6.296875 60.640625 12.9375 67.421875 
Q 19.578125 74.21875 30.609375 74.21875 
Q 43.265625 74.21875 49.921875 64.515625 
Q 56.59375 54.828125 56.59375 36.375 
Q 56.59375 19.140625 48.40625 8.859375 
Q 40.234375 -1.421875 26.421875 -1.421875 
Q 22.703125 -1.421875 18.890625 -0.6875 
Q 15.09375 0.046875 10.984375 1.515625 
z
M 30.609375 32.421875 
Q 37.25 32.421875 41.125 36.953125 
Q 45.015625 41.5 45.015625 49.421875 
Q 45.015625 57.28125 41.125 61.84375 
Q 37.25 66.40625 30.609375 66.40625 
Q 23.96875 66.40625 20.09375 61.84375 
Q 16.21875 57.28125 16.21875 49.421875 
Q 16.21875 41.5 20.09375 36.953125 
Q 23.96875 32.421875 30.609375 32.421875 
z
" id="DejaVuSans-57"/>
      </defs>
      <g style="fill:#262626;" transform="translate(206.550779 522.935703)scale(0.275 -0.275)">
       <use xlink:href="#DejaVuSans-57"/>
       <use x="63.623047" xlink:href="#DejaVuSans-48"/>
      </g>
     </g>
    </g>
    <g id="xtick_3">
     <g id="line2d_3">
      <path clip-path="url(#p7c17193c23)" d="M 328.127218 492.54 
L 328.127218 41.96 
" style="fill:none;stroke:#ffffff;stroke-linecap:round;"/>
     </g>
     <g id="text_3">
      <!-- 180 -->
      <defs>
       <path d="M 12.40625 8.296875 
L 28.515625 8.296875 
L 28.515625 63.921875 
L 10.984375 60.40625 
L 10.984375 69.390625 
L 28.421875 72.90625 
L 38.28125 72.90625 
L 38.28125 8.296875 
L 54.390625 8.296875 
L 54.390625 0 
L 12.40625 0 
z
" id="DejaVuSans-49"/>
       <path d="M 31.78125 34.625 
Q 24.75 34.625 20.71875 30.859375 
Q 16.703125 27.09375 16.703125 20.515625 
Q 16.703125 13.921875 20.71875 10.15625 
Q 24.75 6.390625 31.78125 6.390625 
Q 38.8125 6.390625 42.859375 10.171875 
Q 46.921875 13.96875 46.921875 20.515625 
Q 46.921875 27.09375 42.890625 30.859375 
Q 38.875 34.625 31.78125 34.625 
z
M 21.921875 38.8125 
Q 15.578125 40.375 12.03125 44.71875 
Q 8.5 49.078125 8.5 55.328125 
Q 8.5 64.0625 14.71875 69.140625 
Q 20.953125 74.21875 31.78125 74.21875 
Q 42.671875 74.21875 48.875 69.140625 
Q 55.078125 64.0625 55.078125 55.328125 
Q 55.078125 49.078125 51.53125 44.71875 
Q 48 40.375 41.703125 38.8125 
Q 48.828125 37.15625 52.796875 32.3125 
Q 56.78125 27.484375 56.78125 20.515625 
Q 56.78125 9.90625 50.3125 4.234375 
Q 43.84375 -1.421875 31.78125 -1.421875 
Q 19.734375 -1.421875 13.25 4.234375 
Q 6.78125 9.90625 6.78125 20.515625 
Q 6.78125 27.484375 10.78125 32.3125 
Q 14.796875 37.15625 21.921875 38.8125 
z
M 18.3125 54.390625 
Q 18.3125 48.734375 21.84375 45.5625 
Q 25.390625 42.390625 31.78125 42.390625 
Q 38.140625 42.390625 41.71875 45.5625 
Q 45.3125 48.734375 45.3125 54.390625 
Q 45.3125 60.0625 41.71875 63.234375 
Q 38.140625 66.40625 31.78125 66.40625 
Q 25.390625 66.40625 21.84375 63.234375 
Q 18.3125 60.0625 18.3125 54.390625 
z
" id="DejaVuSans-56"/>
      </defs>
      <g style="fill:#262626;" transform="translate(301.881905 522.935703)scale(0.275 -0.275)">
       <use xlink:href="#DejaVuSans-49"/>
       <use x="63.623047" xlink:href="#DejaVuSans-56"/>
       <use x="127.246094" xlink:href="#DejaVuSans-48"/>
      </g>
     </g>
    </g>
    <g id="xtick_4">
     <g id="line2d_4">
      <path clip-path="url(#p7c17193c23)" d="M 432.206782 492.54 
L 432.206782 41.96 
" style="fill:none;stroke:#ffffff;stroke-linecap:round;"/>
     </g>
     <g id="text_4">
      <!-- 270 -->
      <defs>
       <path d="M 19.1875 8.296875 
L 53.609375 8.296875 
L 53.609375 0 
L 7.328125 0 
L 7.328125 8.296875 
Q 12.9375 14.109375 22.625 23.890625 
Q 32.328125 33.6875 34.8125 36.53125 
Q 39.546875 41.84375 41.421875 45.53125 
Q 43.3125 49.21875 43.3125 52.78125 
Q 43.3125 58.59375 39.234375 62.25 
Q 35.15625 65.921875 28.609375 65.921875 
Q 23.96875 65.921875 18.8125 64.3125 
Q 13.671875 62.703125 7.8125 59.421875 
L 7.8125 69.390625 
Q 13.765625 71.78125 18.9375 73 
Q 24.125 74.21875 28.421875 74.21875 
Q 39.75 74.21875 46.484375 68.546875 
Q 53.21875 62.890625 53.21875 53.421875 
Q 53.21875 48.921875 51.53125 44.890625 
Q 49.859375 40.875 45.40625 35.40625 
Q 44.1875 33.984375 37.640625 27.21875 
Q 31.109375 20.453125 19.1875 8.296875 
z
" id="DejaVuSans-50"/>
       <path d="M 8.203125 72.90625 
L 55.078125 72.90625 
L 55.078125 68.703125 
L 28.609375 0 
L 18.3125 0 
L 43.21875 64.59375 
L 8.203125 64.59375 
z
" id="DejaVuSans-55"/>
      </defs>
      <g style="fill:#262626;" transform="translate(405.961469 522.935703)scale(0.275 -0.275)">
       <use xlink:href="#DejaVuSans-50"/>
       <use x="63.623047" xlink:href="#DejaVuSans-55"/>
       <use x="127.246094" xlink:href="#DejaVuSans-48"/>
      </g>
     </g>
    </g>
    <g id="xtick_5">
     <g id="line2d_5">
      <path clip-path="url(#p7c17193c23)" d="M 536.286345 492.54 
L 536.286345 41.96 
" style="fill:none;stroke:#ffffff;stroke-linecap:round;"/>
     </g>
     <g id="text_5">
      <!-- 360 -->
      <defs>
       <path d="M 40.578125 39.3125 
Q 47.65625 37.796875 51.625 33 
Q 55.609375 28.21875 55.609375 21.1875 
Q 55.609375 10.40625 48.1875 4.484375 
Q 40.765625 -1.421875 27.09375 -1.421875 
Q 22.515625 -1.421875 17.65625 -0.515625 
Q 12.796875 0.390625 7.625 2.203125 
L 7.625 11.71875 
Q 11.71875 9.328125 16.59375 8.109375 
Q 21.484375 6.890625 26.8125 6.890625 
Q 36.078125 6.890625 40.9375 10.546875 
Q 45.796875 14.203125 45.796875 21.1875 
Q 45.796875 27.640625 41.28125 31.265625 
Q 36.765625 34.90625 28.71875 34.90625 
L 20.21875 34.90625 
L 20.21875 43.015625 
L 29.109375 43.015625 
Q 36.375 43.015625 40.234375 45.921875 
Q 44.09375 48.828125 44.09375 54.296875 
Q 44.09375 59.90625 40.109375 62.90625 
Q 36.140625 65.921875 28.71875 65.921875 
Q 24.65625 65.921875 20.015625 65.03125 
Q 15.375 64.15625 9.8125 62.3125 
L 9.8125 71.09375 
Q 15.4375 72.65625 20.34375 73.4375 
Q 25.25 74.21875 29.59375 74.21875 
Q 40.828125 74.21875 47.359375 69.109375 
Q 53.90625 64.015625 53.90625 55.328125 
Q 53.90625 49.265625 50.4375 45.09375 
Q 46.96875 40.921875 40.578125 39.3125 
z
" id="DejaVuSans-51"/>
       <path d="M 33.015625 40.375 
Q 26.375 40.375 22.484375 35.828125 
Q 18.609375 31.296875 18.609375 23.390625 
Q 18.609375 15.53125 22.484375 10.953125 
Q 26.375 6.390625 33.015625 6.390625 
Q 39.65625 6.390625 43.53125 10.953125 
Q 47.40625 15.53125 47.40625 23.390625 
Q 47.40625 31.296875 43.53125 35.828125 
Q 39.65625 40.375 33.015625 40.375 
z
M 52.59375 71.296875 
L 52.59375 62.3125 
Q 48.875 64.0625 45.09375 64.984375 
Q 41.3125 65.921875 37.59375 65.921875 
Q 27.828125 65.921875 22.671875 59.328125 
Q 17.53125 52.734375 16.796875 39.40625 
Q 19.671875 43.65625 24.015625 45.921875 
Q 28.375 48.1875 33.59375 48.1875 
Q 44.578125 48.1875 50.953125 41.515625 
Q 57.328125 34.859375 57.328125 23.390625 
Q 57.328125 12.15625 50.6875 5.359375 
Q 44.046875 -1.421875 33.015625 -1.421875 
Q 20.359375 -1.421875 13.671875 8.265625 
Q 6.984375 17.96875 6.984375 36.375 
Q 6.984375 53.65625 15.1875 63.9375 
Q 23.390625 74.21875 37.203125 74.21875 
Q 40.921875 74.21875 44.703125 73.484375 
Q 48.484375 72.75 52.59375 71.296875 
z
" id="DejaVuSans-54"/>
      </defs>
      <g style="fill:#262626;" transform="translate(510.041033 522.935703)scale(0.275 -0.275)">
       <use xlink:href="#DejaVuSans-51"/>
       <use x="63.623047" xlink:href="#DejaVuSans-54"/>
       <use x="127.246094" xlink:href="#DejaVuSans-48"/>
      </g>
     </g>
    </g>
    <g id="text_6">
     <!-- Rotation Angle (Degree) -->
     <defs>
      <path d="M 44.390625 34.1875 
Q 47.5625 33.109375 50.5625 29.59375 
Q 53.5625 26.078125 56.59375 19.921875 
L 66.609375 0 
L 56 0 
L 46.6875 18.703125 
Q 43.0625 26.03125 39.671875 28.421875 
Q 36.28125 30.8125 30.421875 30.8125 
L 19.671875 30.8125 
L 19.671875 0 
L 9.8125 0 
L 9.8125 72.90625 
L 32.078125 72.90625 
Q 44.578125 72.90625 50.734375 67.671875 
Q 56.890625 62.453125 56.890625 51.90625 
Q 56.890625 45.015625 53.6875 40.46875 
Q 50.484375 35.9375 44.390625 34.1875 
z
M 19.671875 64.796875 
L 19.671875 38.921875 
L 32.078125 38.921875 
Q 39.203125 38.921875 42.84375 42.21875 
Q 46.484375 45.515625 46.484375 51.90625 
Q 46.484375 58.296875 42.84375 61.546875 
Q 39.203125 64.796875 32.078125 64.796875 
z
" id="DejaVuSans-82"/>
      <path d="M 30.609375 48.390625 
Q 23.390625 48.390625 19.1875 42.75 
Q 14.984375 37.109375 14.984375 27.296875 
Q 14.984375 17.484375 19.15625 11.84375 
Q 23.34375 6.203125 30.609375 6.203125 
Q 37.796875 6.203125 41.984375 11.859375 
Q 46.1875 17.53125 46.1875 27.296875 
Q 46.1875 37.015625 41.984375 42.703125 
Q 37.796875 48.390625 30.609375 48.390625 
z
M 30.609375 56 
Q 42.328125 56 49.015625 48.375 
Q 55.71875 40.765625 55.71875 27.296875 
Q 55.71875 13.875 49.015625 6.21875 
Q 42.328125 -1.421875 30.609375 -1.421875 
Q 18.84375 -1.421875 12.171875 6.21875 
Q 5.515625 13.875 5.515625 27.296875 
Q 5.515625 40.765625 12.171875 48.375 
Q 18.84375 56 30.609375 56 
z
" id="DejaVuSans-111"/>
      <path d="M 18.3125 70.21875 
L 18.3125 54.6875 
L 36.8125 54.6875 
L 36.8125 47.703125 
L 18.3125 47.703125 
L 18.3125 18.015625 
Q 18.3125 11.328125 20.140625 9.421875 
Q 21.96875 7.515625 27.59375 7.515625 
L 36.8125 7.515625 
L 36.8125 0 
L 27.59375 0 
Q 17.1875 0 13.234375 3.875 
Q 9.28125 7.765625 9.28125 18.015625 
L 9.28125 47.703125 
L 2.6875 47.703125 
L 2.6875 54.6875 
L 9.28125 54.6875 
L 9.28125 70.21875 
z
" id="DejaVuSans-116"/>
      <path d="M 34.28125 27.484375 
Q 23.390625 27.484375 19.1875 25 
Q 14.984375 22.515625 14.984375 16.5 
Q 14.984375 11.71875 18.140625 8.90625 
Q 21.296875 6.109375 26.703125 6.109375 
Q 34.1875 6.109375 38.703125 11.40625 
Q 43.21875 16.703125 43.21875 25.484375 
L 43.21875 27.484375 
z
M 52.203125 31.203125 
L 52.203125 0 
L 43.21875 0 
L 43.21875 8.296875 
Q 40.140625 3.328125 35.546875 0.953125 
Q 30.953125 -1.421875 24.3125 -1.421875 
Q 15.921875 -1.421875 10.953125 3.296875 
Q 6 8.015625 6 15.921875 
Q 6 25.140625 12.171875 29.828125 
Q 18.359375 34.515625 30.609375 34.515625 
L 43.21875 34.515625 
L 43.21875 35.40625 
Q 43.21875 41.609375 39.140625 45 
Q 35.0625 48.390625 27.6875 48.390625 
Q 23 48.390625 18.546875 47.265625 
Q 14.109375 46.140625 10.015625 43.890625 
L 10.015625 52.203125 
Q 14.9375 54.109375 19.578125 55.046875 
Q 24.21875 56 28.609375 56 
Q 40.484375 56 46.34375 49.84375 
Q 52.203125 43.703125 52.203125 31.203125 
z
" id="DejaVuSans-97"/>
      <path d="M 9.421875 54.6875 
L 18.40625 54.6875 
L 18.40625 0 
L 9.421875 0 
z
M 9.421875 75.984375 
L 18.40625 75.984375 
L 18.40625 64.59375 
L 9.421875 64.59375 
z
" id="DejaVuSans-105"/>
      <path d="M 54.890625 33.015625 
L 54.890625 0 
L 45.90625 0 
L 45.90625 32.71875 
Q 45.90625 40.484375 42.875 44.328125 
Q 39.84375 48.1875 33.796875 48.1875 
Q 26.515625 48.1875 22.3125 43.546875 
Q 18.109375 38.921875 18.109375 30.90625 
L 18.109375 0 
L 9.078125 0 
L 9.078125 54.6875 
L 18.109375 54.6875 
L 18.109375 46.1875 
Q 21.34375 51.125 25.703125 53.5625 
Q 30.078125 56 35.796875 56 
Q 45.21875 56 50.046875 50.171875 
Q 54.890625 44.34375 54.890625 33.015625 
z
" id="DejaVuSans-110"/>
      <path id="DejaVuSans-32"/>
      <path d="M 34.1875 63.1875 
L 20.796875 26.90625 
L 47.609375 26.90625 
z
M 28.609375 72.90625 
L 39.796875 72.90625 
L 67.578125 0 
L 57.328125 0 
L 50.6875 18.703125 
L 17.828125 18.703125 
L 11.1875 0 
L 0.78125 0 
z
" id="DejaVuSans-65"/>
      <path d="M 45.40625 27.984375 
Q 45.40625 37.75 41.375 43.109375 
Q 37.359375 48.484375 30.078125 48.484375 
Q 22.859375 48.484375 18.828125 43.109375 
Q 14.796875 37.75 14.796875 27.984375 
Q 14.796875 18.265625 18.828125 12.890625 
Q 22.859375 7.515625 30.078125 7.515625 
Q 37.359375 7.515625 41.375 12.890625 
Q 45.40625 18.265625 45.40625 27.984375 
z
M 54.390625 6.78125 
Q 54.390625 -7.171875 48.1875 -13.984375 
Q 42 -20.796875 29.203125 -20.796875 
Q 24.46875 -20.796875 20.265625 -20.09375 
Q 16.0625 -19.390625 12.109375 -17.921875 
L 12.109375 -9.1875 
Q 16.0625 -11.328125 19.921875 -12.34375 
Q 23.78125 -13.375 27.78125 -13.375 
Q 36.625 -13.375 41.015625 -8.765625 
Q 45.40625 -4.15625 45.40625 5.171875 
L 45.40625 9.625 
Q 42.625 4.78125 38.28125 2.390625 
Q 33.9375 0 27.875 0 
Q 17.828125 0 11.671875 7.65625 
Q 5.515625 15.328125 5.515625 27.984375 
Q 5.515625 40.671875 11.671875 48.328125 
Q 17.828125 56 27.875 56 
Q 33.9375 56 38.28125 53.609375 
Q 42.625 51.21875 45.40625 46.390625 
L 45.40625 54.6875 
L 54.390625 54.6875 
z
" id="DejaVuSans-103"/>
      <path d="M 9.421875 75.984375 
L 18.40625 75.984375 
L 18.40625 0 
L 9.421875 0 
z
" id="DejaVuSans-108"/>
      <path d="M 56.203125 29.59375 
L 56.203125 25.203125 
L 14.890625 25.203125 
Q 15.484375 15.921875 20.484375 11.0625 
Q 25.484375 6.203125 34.421875 6.203125 
Q 39.59375 6.203125 44.453125 7.46875 
Q 49.3125 8.734375 54.109375 11.28125 
L 54.109375 2.78125 
Q 49.265625 0.734375 44.1875 -0.34375 
Q 39.109375 -1.421875 33.890625 -1.421875 
Q 20.796875 -1.421875 13.15625 6.1875 
Q 5.515625 13.8125 5.515625 26.8125 
Q 5.515625 40.234375 12.765625 48.109375 
Q 20.015625 56 32.328125 56 
Q 43.359375 56 49.78125 48.890625 
Q 56.203125 41.796875 56.203125 29.59375 
z
M 47.21875 32.234375 
Q 47.125 39.59375 43.09375 43.984375 
Q 39.0625 48.390625 32.421875 48.390625 
Q 24.90625 48.390625 20.390625 44.140625 
Q 15.875 39.890625 15.1875 32.171875 
z
" id="DejaVuSans-101"/>
      <path d="M 31 75.875 
Q 24.46875 64.65625 21.28125 53.65625 
Q 18.109375 42.671875 18.109375 31.390625 
Q 18.109375 20.125 21.3125 9.0625 
Q 24.515625 -2 31 -13.1875 
L 23.1875 -13.1875 
Q 15.875 -1.703125 12.234375 9.375 
Q 8.59375 20.453125 8.59375 31.390625 
Q 8.59375 42.28125 12.203125 53.3125 
Q 15.828125 64.359375 23.1875 75.875 
z
" id="DejaVuSans-40"/>
      <path d="M 19.671875 64.796875 
L 19.671875 8.109375 
L 31.59375 8.109375 
Q 46.6875 8.109375 53.6875 14.9375 
Q 60.6875 21.78125 60.6875 36.53125 
Q 60.6875 51.171875 53.6875 57.984375 
Q 46.6875 64.796875 31.59375 64.796875 
z
M 9.8125 72.90625 
L 30.078125 72.90625 
Q 51.265625 72.90625 61.171875 64.09375 
Q 71.09375 55.28125 71.09375 36.53125 
Q 71.09375 17.671875 61.125 8.828125 
Q 51.171875 0 30.078125 0 
L 9.8125 0 
z
" id="DejaVuSans-68"/>
      <path d="M 41.109375 46.296875 
Q 39.59375 47.171875 37.8125 47.578125 
Q 36.03125 48 33.890625 48 
Q 26.265625 48 22.1875 43.046875 
Q 18.109375 38.09375 18.109375 28.8125 
L 18.109375 0 
L 9.078125 0 
L 9.078125 54.6875 
L 18.109375 54.6875 
L 18.109375 46.1875 
Q 20.953125 51.171875 25.484375 53.578125 
Q 30.03125 56 36.53125 56 
Q 37.453125 56 38.578125 55.875 
Q 39.703125 55.765625 41.0625 55.515625 
z
" id="DejaVuSans-114"/>
      <path d="M 8.015625 75.875 
L 15.828125 75.875 
Q 23.140625 64.359375 26.78125 53.3125 
Q 30.421875 42.28125 30.421875 31.390625 
Q 30.421875 20.453125 26.78125 9.375 
Q 23.140625 -1.703125 15.828125 -13.1875 
L 8.015625 -13.1875 
Q 14.5 -2 17.703125 9.0625 
Q 20.90625 20.125 20.90625 31.390625 
Q 20.90625 42.671875 17.703125 53.65625 
Q 14.5 64.65625 8.015625 75.875 
z
" id="DejaVuSans-41"/>
     </defs>
     <g style="fill:#262626;" transform="translate(145.303686 555.450156)scale(0.3 -0.3)">
      <use xlink:href="#DejaVuSans-82"/>
      <use x="69.419922" xlink:href="#DejaVuSans-111"/>
      <use x="130.601562" xlink:href="#DejaVuSans-116"/>
      <use x="169.810547" xlink:href="#DejaVuSans-97"/>
      <use x="231.089844" xlink:href="#DejaVuSans-116"/>
      <use x="270.298828" xlink:href="#DejaVuSans-105"/>
      <use x="298.082031" xlink:href="#DejaVuSans-111"/>
      <use x="359.263672" xlink:href="#DejaVuSans-110"/>
      <use x="422.642578" xlink:href="#DejaVuSans-32"/>
      <use x="454.429688" xlink:href="#DejaVuSans-65"/>
      <use x="522.837891" xlink:href="#DejaVuSans-110"/>
      <use x="586.216797" xlink:href="#DejaVuSans-103"/>
      <use x="649.693359" xlink:href="#DejaVuSans-108"/>
      <use x="677.476562" xlink:href="#DejaVuSans-101"/>
      <use x="739" xlink:href="#DejaVuSans-32"/>
      <use x="770.787109" xlink:href="#DejaVuSans-40"/>
      <use x="809.800781" xlink:href="#DejaVuSans-68"/>
      <use x="886.802734" xlink:href="#DejaVuSans-101"/>
      <use x="948.326172" xlink:href="#DejaVuSans-103"/>
      <use x="1011.802734" xlink:href="#DejaVuSans-114"/>
      <use x="1052.884766" xlink:href="#DejaVuSans-101"/>
      <use x="1114.408203" xlink:href="#DejaVuSans-101"/>
      <use x="1175.931641" xlink:href="#DejaVuSans-41"/>
     </g>
    </g>
   </g>
   <g id="matplotlib.axis_2">
    <g id="ytick_1">
     <g id="line2d_6">
      <path clip-path="url(#p7c17193c23)" d="M 99.21 452.782941 
L 555.887996 452.782941 
" style="fill:none;stroke:#ffffff;stroke-linecap:round;"/>
     </g>
     <g id="text_7">
      <!-- 0.9 -->
      <defs>
       <path d="M 10.6875 12.40625 
L 21 12.40625 
L 21 0 
L 10.6875 0 
z
" id="DejaVuSans-46"/>
      </defs>
      <g style="fill:#262626;" transform="translate(45.976406 463.230793)scale(0.275 -0.275)">
       <use xlink:href="#DejaVuSans-48"/>
       <use x="63.623047" xlink:href="#DejaVuSans-46"/>
       <use x="95.410156" xlink:href="#DejaVuSans-57"/>
      </g>
     </g>
    </g>
    <g id="ytick_2">
     <g id="line2d_7">
      <path clip-path="url(#p7c17193c23)" d="M 99.21 320.259412 
L 555.887996 320.259412 
" style="fill:none;stroke:#ffffff;stroke-linecap:round;"/>
     </g>
     <g id="text_8">
      <!-- 1.0 -->
      <g style="fill:#262626;" transform="translate(45.976406 330.707263)scale(0.275 -0.275)">
       <use xlink:href="#DejaVuSans-49"/>
       <use x="63.623047" xlink:href="#DejaVuSans-46"/>
       <use x="95.410156" xlink:href="#DejaVuSans-48"/>
      </g>
     </g>
    </g>
    <g id="ytick_3">
     <g id="line2d_8">
      <path clip-path="url(#p7c17193c23)" d="M 99.21 187.735882 
L 555.887996 187.735882 
" style="fill:none;stroke:#ffffff;stroke-linecap:round;"/>
     </g>
     <g id="text_9">
      <!-- 1.1 -->
      <g style="fill:#262626;" transform="translate(45.976406 198.183734)scale(0.275 -0.275)">
       <use xlink:href="#DejaVuSans-49"/>
       <use x="63.623047" xlink:href="#DejaVuSans-46"/>
       <use x="95.410156" xlink:href="#DejaVuSans-49"/>
      </g>
     </g>
    </g>
    <g id="ytick_4">
     <g id="line2d_9">
      <path clip-path="url(#p7c17193c23)" d="M 99.21 55.212353 
L 555.887996 55.212353 
" style="fill:none;stroke:#ffffff;stroke-linecap:round;"/>
     </g>
     <g id="text_10">
      <!-- 1.2 -->
      <g style="fill:#262626;" transform="translate(45.976406 65.660205)scale(0.275 -0.275)">
       <use xlink:href="#DejaVuSans-49"/>
       <use x="63.623047" xlink:href="#DejaVuSans-46"/>
       <use x="95.410156" xlink:href="#DejaVuSans-50"/>
      </g>
     </g>
    </g>
    <g id="text_11">
     <!-- Backward Transfer Efficiency -->
     <defs>
      <path d="M 19.671875 34.8125 
L 19.671875 8.109375 
L 35.5 8.109375 
Q 43.453125 8.109375 47.28125 11.40625 
Q 51.125 14.703125 51.125 21.484375 
Q 51.125 28.328125 47.28125 31.5625 
Q 43.453125 34.8125 35.5 34.8125 
z
M 19.671875 64.796875 
L 19.671875 42.828125 
L 34.28125 42.828125 
Q 41.5 42.828125 45.03125 45.53125 
Q 48.578125 48.25 48.578125 53.8125 
Q 48.578125 59.328125 45.03125 62.0625 
Q 41.5 64.796875 34.28125 64.796875 
z
M 9.8125 72.90625 
L 35.015625 72.90625 
Q 46.296875 72.90625 52.390625 68.21875 
Q 58.5 63.53125 58.5 54.890625 
Q 58.5 48.1875 55.375 44.234375 
Q 52.25 40.28125 46.1875 39.3125 
Q 53.46875 37.75 57.5 32.78125 
Q 61.53125 27.828125 61.53125 20.40625 
Q 61.53125 10.640625 54.890625 5.3125 
Q 48.25 0 35.984375 0 
L 9.8125 0 
z
" id="DejaVuSans-66"/>
      <path d="M 48.78125 52.59375 
L 48.78125 44.1875 
Q 44.96875 46.296875 41.140625 47.34375 
Q 37.3125 48.390625 33.40625 48.390625 
Q 24.65625 48.390625 19.8125 42.84375 
Q 14.984375 37.3125 14.984375 27.296875 
Q 14.984375 17.28125 19.8125 11.734375 
Q 24.65625 6.203125 33.40625 6.203125 
Q 37.3125 6.203125 41.140625 7.25 
Q 44.96875 8.296875 48.78125 10.40625 
L 48.78125 2.09375 
Q 45.015625 0.34375 40.984375 -0.53125 
Q 36.96875 -1.421875 32.421875 -1.421875 
Q 20.0625 -1.421875 12.78125 6.34375 
Q 5.515625 14.109375 5.515625 27.296875 
Q 5.515625 40.671875 12.859375 48.328125 
Q 20.21875 56 33.015625 56 
Q 37.15625 56 41.109375 55.140625 
Q 45.0625 54.296875 48.78125 52.59375 
z
" id="DejaVuSans-99"/>
      <path d="M 9.078125 75.984375 
L 18.109375 75.984375 
L 18.109375 31.109375 
L 44.921875 54.6875 
L 56.390625 54.6875 
L 27.390625 29.109375 
L 57.625 0 
L 45.90625 0 
L 18.109375 26.703125 
L 18.109375 0 
L 9.078125 0 
z
" id="DejaVuSans-107"/>
      <path d="M 4.203125 54.6875 
L 13.1875 54.6875 
L 24.421875 12.015625 
L 35.59375 54.6875 
L 46.1875 54.6875 
L 57.421875 12.015625 
L 68.609375 54.6875 
L 77.59375 54.6875 
L 63.28125 0 
L 52.6875 0 
L 40.921875 44.828125 
L 29.109375 0 
L 18.5 0 
z
" id="DejaVuSans-119"/>
      <path d="M 45.40625 46.390625 
L 45.40625 75.984375 
L 54.390625 75.984375 
L 54.390625 0 
L 45.40625 0 
L 45.40625 8.203125 
Q 42.578125 3.328125 38.25 0.953125 
Q 33.9375 -1.421875 27.875 -1.421875 
Q 17.96875 -1.421875 11.734375 6.484375 
Q 5.515625 14.40625 5.515625 27.296875 
Q 5.515625 40.1875 11.734375 48.09375 
Q 17.96875 56 27.875 56 
Q 33.9375 56 38.25 53.625 
Q 42.578125 51.265625 45.40625 46.390625 
z
M 14.796875 27.296875 
Q 14.796875 17.390625 18.875 11.75 
Q 22.953125 6.109375 30.078125 6.109375 
Q 37.203125 6.109375 41.296875 11.75 
Q 45.40625 17.390625 45.40625 27.296875 
Q 45.40625 37.203125 41.296875 42.84375 
Q 37.203125 48.484375 30.078125 48.484375 
Q 22.953125 48.484375 18.875 42.84375 
Q 14.796875 37.203125 14.796875 27.296875 
z
" id="DejaVuSans-100"/>
      <path d="M -0.296875 72.90625 
L 61.375 72.90625 
L 61.375 64.59375 
L 35.5 64.59375 
L 35.5 0 
L 25.59375 0 
L 25.59375 64.59375 
L -0.296875 64.59375 
z
" id="DejaVuSans-84"/>
      <path d="M 44.28125 53.078125 
L 44.28125 44.578125 
Q 40.484375 46.53125 36.375 47.5 
Q 32.28125 48.484375 27.875 48.484375 
Q 21.1875 48.484375 17.84375 46.4375 
Q 14.5 44.390625 14.5 40.28125 
Q 14.5 37.15625 16.890625 35.375 
Q 19.28125 33.59375 26.515625 31.984375 
L 29.59375 31.296875 
Q 39.15625 29.25 43.1875 25.515625 
Q 47.21875 21.78125 47.21875 15.09375 
Q 47.21875 7.46875 41.1875 3.015625 
Q 35.15625 -1.421875 24.609375 -1.421875 
Q 20.21875 -1.421875 15.453125 -0.5625 
Q 10.6875 0.296875 5.421875 2 
L 5.421875 11.28125 
Q 10.40625 8.6875 15.234375 7.390625 
Q 20.0625 6.109375 24.8125 6.109375 
Q 31.15625 6.109375 34.5625 8.28125 
Q 37.984375 10.453125 37.984375 14.40625 
Q 37.984375 18.0625 35.515625 20.015625 
Q 33.0625 21.96875 24.703125 23.78125 
L 21.578125 24.515625 
Q 13.234375 26.265625 9.515625 29.90625 
Q 5.8125 33.546875 5.8125 39.890625 
Q 5.8125 47.609375 11.28125 51.796875 
Q 16.75 56 26.8125 56 
Q 31.78125 56 36.171875 55.265625 
Q 40.578125 54.546875 44.28125 53.078125 
z
" id="DejaVuSans-115"/>
      <path d="M 37.109375 75.984375 
L 37.109375 68.5 
L 28.515625 68.5 
Q 23.6875 68.5 21.796875 66.546875 
Q 19.921875 64.59375 19.921875 59.515625 
L 19.921875 54.6875 
L 34.71875 54.6875 
L 34.71875 47.703125 
L 19.921875 47.703125 
L 19.921875 0 
L 10.890625 0 
L 10.890625 47.703125 
L 2.296875 47.703125 
L 2.296875 54.6875 
L 10.890625 54.6875 
L 10.890625 58.5 
Q 10.890625 67.625 15.140625 71.796875 
Q 19.390625 75.984375 28.609375 75.984375 
z
" id="DejaVuSans-102"/>
      <path d="M 9.8125 72.90625 
L 55.90625 72.90625 
L 55.90625 64.59375 
L 19.671875 64.59375 
L 19.671875 43.015625 
L 54.390625 43.015625 
L 54.390625 34.71875 
L 19.671875 34.71875 
L 19.671875 8.296875 
L 56.78125 8.296875 
L 56.78125 0 
L 9.8125 0 
z
" id="DejaVuSans-69"/>
      <path d="M 32.171875 -5.078125 
Q 28.375 -14.84375 24.75 -17.8125 
Q 21.140625 -20.796875 15.09375 -20.796875 
L 7.90625 -20.796875 
L 7.90625 -13.28125 
L 13.1875 -13.28125 
Q 16.890625 -13.28125 18.9375 -11.515625 
Q 21 -9.765625 23.484375 -3.21875 
L 25.09375 0.875 
L 2.984375 54.6875 
L 12.5 54.6875 
L 29.59375 11.921875 
L 46.6875 54.6875 
L 56.203125 54.6875 
z
" id="DejaVuSans-121"/>
     </defs>
     <g style="fill:#262626;" transform="translate(35.737344 485.314844)rotate(-90)scale(0.3 -0.3)">
      <use xlink:href="#DejaVuSans-66"/>
      <use x="68.603516" xlink:href="#DejaVuSans-97"/>
      <use x="129.882812" xlink:href="#DejaVuSans-99"/>
      <use x="184.863281" xlink:href="#DejaVuSans-107"/>
      <use x="242.773438" xlink:href="#DejaVuSans-119"/>
      <use x="324.560547" xlink:href="#DejaVuSans-97"/>
      <use x="385.839844" xlink:href="#DejaVuSans-114"/>
      <use x="426.9375" xlink:href="#DejaVuSans-100"/>
      <use x="490.414062" xlink:href="#DejaVuSans-32"/>
      <use x="522.201172" xlink:href="#DejaVuSans-84"/>
      <use x="583.066406" xlink:href="#DejaVuSans-114"/>
      <use x="624.179688" xlink:href="#DejaVuSans-97"/>
      <use x="685.458984" xlink:href="#DejaVuSans-110"/>
      <use x="748.837891" xlink:href="#DejaVuSans-115"/>
      <use x="800.9375" xlink:href="#DejaVuSans-102"/>
      <use x="836.142578" xlink:href="#DejaVuSans-101"/>
      <use x="897.666016" xlink:href="#DejaVuSans-114"/>
      <use x="938.779297" xlink:href="#DejaVuSans-32"/>
      <use x="970.566406" xlink:href="#DejaVuSans-69"/>
      <use x="1033.75" xlink:href="#DejaVuSans-102"/>
      <use x="1068.955078" xlink:href="#DejaVuSans-102"/>
      <use x="1104.160156" xlink:href="#DejaVuSans-105"/>
      <use x="1131.943359" xlink:href="#DejaVuSans-99"/>
      <use x="1186.923828" xlink:href="#DejaVuSans-105"/>
      <use x="1214.707031" xlink:href="#DejaVuSans-101"/>
      <use x="1276.230469" xlink:href="#DejaVuSans-110"/>
      <use x="1339.609375" xlink:href="#DejaVuSans-99"/>
      <use x="1394.589844" xlink:href="#DejaVuSans-121"/>
     </g>
    </g>
   </g>
   <g id="line2d_10">
    <path clip-path="url(#p7c17193c23)" d="M 119.968091 240.933419 
L 121.12453 230.022532 
L 122.28097 241.797068 
L 123.43741 242.038463 
L 124.593849 226.303397 
L 125.750289 240.008531 
L 126.906728 235.761378 
L 128.063168 232.92389 
L 129.219608 223.801062 
L 130.376047 242.638487 
L 131.532487 245.210693 
L 132.688926 237.254451 
L 133.845366 244.639113 
L 135.001805 248.397913 
L 136.158245 237.51709 
L 137.314685 230.592062 
L 138.471124 241.039091 
L 139.627564 246.710788 
L 140.784003 238.65006 
L 141.940443 242.804462 
L 143.096883 245.309561 
L 144.253322 247.381972 
L 145.409762 227.872671 
L 146.566201 249.858886 
L 147.722641 245.971633 
L 148.879081 247.270272 
L 150.03552 245.236236 
L 151.19196 236.925839 
L 152.348399 238.584038 
L 153.504839 241.888634 
L 154.661279 240.726358 
L 155.817718 247.306855 
L 156.974158 250.168305 
L 158.130597 248.036112 
L 159.287037 235.192555 
L 160.443477 240.283775 
L 161.599916 242.738395 
L 162.756356 239.547636 
L 163.912795 247.307808 
L 165.069235 250.180376 
L 166.225675 251.049427 
L 167.382114 241.717715 
L 168.538554 245.549703 
L 169.694993 241.644647 
L 170.851433 253.093085 
L 172.007873 249.626103 
L 173.164312 264.324828 
L 174.320752 249.368457 
L 175.477191 246.120374 
L 176.633631 244.098882 
L 177.790071 248.343379 
L 178.94651 237.300441 
L 180.10295 252.003839 
L 181.259389 252.475107 
L 182.415829 245.583701 
L 183.572269 242.292099 
L 184.728708 243.511567 
L 185.885148 246.791543 
L 187.041587 247.537557 
L 188.198027 253.33149 
L 189.354466 260.429612 
L 190.510906 251.132021 
L 191.667346 263.657558 
L 192.823785 252.247887 
L 193.980225 246.047066 
L 195.136664 258.823288 
L 196.293104 253.607106 
L 197.449544 249.277674 
L 199.762423 264.620549 
L 200.918862 264.208409 
L 202.075302 255.40015 
L 203.231742 252.107413 
L 204.388181 265.938009 
L 205.544621 255.408796 
L 206.70106 252.718865 
L 207.8575 262.681009 
L 209.01394 245.544415 
L 210.170379 255.738763 
L 211.326819 260.2346 
L 212.483258 262.14416 
L 213.639698 255.013852 
L 214.796138 251.379591 
L 215.952577 265.28623 
L 217.109017 259.078671 
L 218.265456 259.428597 
L 219.421896 260.540737 
L 220.578336 247.405344 
L 221.734775 254.219846 
L 222.891215 258.504507 
L 224.047654 264.752174 
L 226.360534 251.345931 
L 227.516973 263.92811 
L 228.673413 261.198317 
L 229.829852 255.776137 
L 230.986292 258.114487 
L 232.142732 255.682489 
L 233.299171 261.684903 
L 234.455611 262.426779 
L 235.61205 260.153565 
L 236.76849 259.378098 
L 237.92493 256.685698 
L 239.081369 250.00724 
L 240.237809 253.003382 
L 241.394248 243.336707 
L 242.550688 261.55563 
L 243.707127 244.721415 
L 244.863567 266.744872 
L 246.020007 256.402708 
L 247.176446 260.753117 
L 248.332886 263.593608 
L 249.489325 255.037642 
L 250.645765 256.776953 
L 251.802205 250.862232 
L 252.958644 265.495051 
L 254.115084 261.911816 
L 255.271523 269.193788 
L 256.427963 259.812647 
L 257.584403 252.832239 
L 258.740842 276.386997 
L 259.897282 255.82012 
L 261.053721 262.067724 
L 262.210161 255.763243 
L 263.366601 260.190625 
L 264.52304 262.852237 
L 265.67948 260.817499 
L 266.835919 261.239174 
L 267.992359 264.257733 
L 269.148799 254.023806 
L 270.305238 259.733088 
L 271.461678 253.800347 
L 272.618117 268.396978 
L 273.774557 258.079194 
L 274.930997 261.619767 
L 276.087436 259.26228 
L 277.243876 266.602451 
L 278.400315 263.804823 
L 279.556755 258.93747 
L 280.713195 252.15488 
L 281.869634 259.809719 
L 283.026074 260.358282 
L 284.182513 262.604353 
L 285.338953 265.279452 
L 286.495393 253.898523 
L 287.651832 266.589447 
L 288.808272 266.592346 
L 289.964711 263.488818 
L 291.121151 252.327702 
L 292.27759 256.47748 
L 293.43403 253.595997 
L 294.59047 254.881137 
L 295.746909 254.293714 
L 296.903349 255.234975 
L 298.059788 257.764061 
L 299.216228 255.966739 
L 300.372668 260.215714 
L 301.529107 269.280917 
L 302.685547 258.716616 
L 303.841986 266.265279 
L 304.998426 262.80822 
L 306.154866 260.049658 
L 307.311305 261.928752 
L 308.467745 264.160941 
L 309.624184 259.58473 
L 310.780624 247.589272 
L 311.937064 268.865533 
L 313.093503 256.515231 
L 314.249943 250.014699 
L 315.406382 263.83768 
L 316.562822 260.757368 
L 317.719262 256.411292 
L 318.875701 252.627427 
L 320.032141 261.645209 
L 321.18858 254.961568 
L 322.34502 247.086272 
L 323.50146 241.506744 
L 324.657899 257.059536 
L 325.814339 260.704054 
L 326.970778 262.591323 
L 328.127218 260.444794 
L 329.283658 253.899297 
L 330.440097 256.341311 
L 331.596537 263.231056 
L 332.752976 265.813109 
L 333.909416 265.270827 
L 335.065856 250.663722 
L 336.222295 251.170824 
L 337.378735 258.158511 
L 338.535174 256.880403 
L 339.691614 257.469788 
L 340.848054 262.027806 
L 342.004493 260.182078 
L 343.160933 254.282032 
L 344.317372 259.993203 
L 345.473812 259.147204 
L 346.630251 263.463613 
L 347.786691 264.333185 
L 348.943131 269.983986 
L 350.09957 260.747202 
L 351.25601 248.740766 
L 352.412449 265.19308 
L 353.568889 256.445243 
L 354.725329 258.523553 
L 355.881768 253.633285 
L 357.038208 251.765044 
L 358.194647 258.158414 
L 359.351087 266.292897 
L 360.507527 258.596419 
L 361.663966 259.786506 
L 362.820406 246.652605 
L 363.976845 264.314437 
L 365.133285 256.05288 
L 366.289725 263.557594 
L 367.446164 261.704438 
L 369.759043 254.49834 
L 370.915483 266.439093 
L 372.071923 257.505991 
L 373.228362 264.766215 
L 374.384802 257.646605 
L 375.541241 260.139437 
L 377.854121 260.688979 
L 379.01056 254.203749 
L 380.167 265.952436 
L 381.323439 252.818465 
L 382.479879 266.372922 
L 383.636319 262.049499 
L 384.792758 252.123389 
L 385.949198 262.03345 
L 387.105637 265.661703 
L 388.262077 259.926879 
L 389.418517 252.250779 
L 390.574956 269.073623 
L 391.731396 266.826688 
L 392.887835 244.249447 
L 394.044275 258.77672 
L 395.200715 260.011968 
L 396.357154 265.019723 
L 397.513594 252.745456 
L 398.670033 256.86097 
L 399.826473 250.477246 
L 400.982912 251.821981 
L 402.139352 264.519902 
L 403.295792 253.190141 
L 404.452231 261.316173 
L 405.608671 255.128111 
L 406.76511 242.950533 
L 407.92155 254.806672 
L 409.07799 261.636264 
L 410.234429 250.719329 
L 411.390869 256.618761 
L 412.547308 257.769821 
L 413.703748 252.748012 
L 414.860188 246.269459 
L 416.016627 258.947371 
L 417.173067 250.746047 
L 418.329506 264.348925 
L 419.485946 269.028729 
L 420.642386 249.446902 
L 421.798825 256.024478 
L 422.955265 247.294306 
L 424.111704 259.010345 
L 425.268144 249.53582 
L 426.424584 253.62747 
L 427.581023 255.41193 
L 428.737463 258.678816 
L 429.893902 255.878041 
L 431.050342 247.550895 
L 432.206782 251.765044 
L 433.363221 249.09535 
L 434.519661 257.33011 
L 435.6761 263.430962 
L 437.98898 256.980359 
L 439.145419 248.684032 
L 440.301859 268.918577 
L 441.458298 247.076023 
L 442.614738 246.930769 
L 443.771178 243.771422 
L 444.927617 260.428905 
L 446.084057 256.141839 
L 447.240496 256.342318 
L 448.396936 254.319558 
L 449.553376 245.505237 
L 450.709815 260.134922 
L 453.022694 251.428154 
L 454.179134 254.792601 
L 455.335573 255.773864 
L 456.492013 256.388909 
L 457.648453 240.816096 
L 458.804892 252.113995 
L 459.961332 258.762375 
L 461.117771 239.95164 
L 462.274211 250.066418 
L 463.430651 252.597567 
L 464.58709 241.87462 
L 465.74353 258.111309 
L 466.899969 255.300986 
L 468.056409 248.375562 
L 469.212849 243.926026 
L 470.369288 249.102333 
L 471.525728 248.208395 
L 472.682167 255.588264 
L 473.838607 260.62176 
L 474.995047 241.740984 
L 476.151486 244.927615 
L 477.307926 241.730061 
L 478.464365 253.412739 
L 479.620805 243.272628 
L 480.777245 254.886265 
L 481.933684 256.488535 
L 483.090124 250.024667 
L 484.246563 242.668786 
L 485.403003 254.608593 
L 486.559443 250.66281 
L 487.715882 243.28129 
L 488.872322 242.545321 
L 490.028761 243.311613 
L 491.185201 252.478603 
L 492.341641 245.887132 
L 493.49808 247.251185 
L 494.65452 237.707554 
L 495.810959 241.776959 
L 496.967399 256.938304 
L 498.123839 226.346763 
L 499.280278 249.270273 
L 500.436718 229.763751 
L 501.593157 238.721038 
L 502.749597 241.519031 
L 503.906037 251.045572 
L 505.062476 247.061139 
L 506.218916 256.668068 
L 507.375355 229.449417 
L 508.531795 250.145519 
L 509.688234 256.220362 
L 510.844674 244.621476 
L 512.001114 262.468759 
L 513.157553 238.541645 
L 514.313993 228.560465 
L 515.470432 246.693448 
L 516.626872 239.913552 
L 517.783312 236.314082 
L 518.939751 236.097549 
L 520.096191 249.394548 
L 521.25263 238.622309 
L 522.40907 245.049333 
L 523.56551 240.134821 
L 524.721949 243.906252 
L 525.878389 231.459344 
L 527.034828 242.384116 
L 528.191268 232.169995 
L 529.347708 252.62513 
L 530.504147 234.060106 
L 531.660587 242.193444 
L 532.817026 242.772519 
L 533.973466 227.102041 
L 535.129906 237.854255 
L 535.129906 237.854255 
" style="fill:none;stroke:#e41a1c;stroke-linecap:round;stroke-width:1.5;"/>
   </g>
   <g id="line2d_11">
    <path clip-path="url(#p7c17193c23)" d="M 99.21 320.259412 
L 555.887996 320.259412 
" style="fill:none;stroke:#1a1a1a;stroke-dasharray:5.55,2.4;stroke-dashoffset:0;stroke-width:1.5;"/>
   </g>
   <g id="patch_3">
    <path d="M 99.21 492.54 
L 99.21 41.96 
" style="fill:none;stroke:#ffffff;stroke-linecap:square;stroke-linejoin:miter;stroke-width:1.25;"/>
   </g>
   <g id="patch_4">
    <path d="M 555.887996 492.54 
L 555.887996 41.96 
" style="fill:none;stroke:#ffffff;stroke-linecap:square;stroke-linejoin:miter;stroke-width:1.25;"/>
   </g>
   <g id="patch_5">
    <path d="M 99.21 492.54 
L 555.887996 492.54 
" style="fill:none;stroke:#ffffff;stroke-linecap:square;stroke-linejoin:miter;stroke-width:1.25;"/>
   </g>
   <g id="patch_6">
    <path d="M 99.21 41.96 
L 555.887996 41.96 
" style="fill:none;stroke:#ffffff;stroke-linecap:square;stroke-linejoin:miter;stroke-width:1.25;"/>
   </g>
   <g id="text_12">
    <!-- Task 1a BTE: Rotated CIFAR -->
    <defs>
     <path d="M 11.71875 12.40625 
L 22.015625 12.40625 
L 22.015625 0 
L 11.71875 0 
z
M 11.71875 51.703125 
L 22.015625 51.703125 
L 22.015625 39.3125 
L 11.71875 39.3125 
z
" id="DejaVuSans-58"/>
     <path d="M 64.40625 67.28125 
L 64.40625 56.890625 
Q 59.421875 61.53125 53.78125 63.8125 
Q 48.140625 66.109375 41.796875 66.109375 
Q 29.296875 66.109375 22.65625 58.46875 
Q 16.015625 50.828125 16.015625 36.375 
Q 16.015625 21.96875 22.65625 14.328125 
Q 29.296875 6.6875 41.796875 6.6875 
Q 48.140625 6.6875 53.78125 8.984375 
Q 59.421875 11.28125 64.40625 15.921875 
L 64.40625 5.609375 
Q 59.234375 2.09375 53.4375 0.328125 
Q 47.65625 -1.421875 41.21875 -1.421875 
Q 24.65625 -1.421875 15.125 8.703125 
Q 5.609375 18.84375 5.609375 36.375 
Q 5.609375 53.953125 15.125 64.078125 
Q 24.65625 74.21875 41.21875 74.21875 
Q 47.75 74.21875 53.53125 72.484375 
Q 59.328125 70.75 64.40625 67.28125 
z
" id="DejaVuSans-67"/>
     <path d="M 9.8125 72.90625 
L 19.671875 72.90625 
L 19.671875 0 
L 9.8125 0 
z
" id="DejaVuSans-73"/>
     <path d="M 9.8125 72.90625 
L 51.703125 72.90625 
L 51.703125 64.59375 
L 19.671875 64.59375 
L 19.671875 43.109375 
L 48.578125 43.109375 
L 48.578125 34.8125 
L 19.671875 34.8125 
L 19.671875 0 
L 9.8125 0 
z
" id="DejaVuSans-70"/>
    </defs>
    <g style="fill:#262626;" transform="translate(117.457592 35.96)scale(0.3 -0.3)">
     <use xlink:href="#DejaVuSans-84"/>
     <use x="60.833984" xlink:href="#DejaVuSans-97"/>
     <use x="122.113281" xlink:href="#DejaVuSans-115"/>
     <use x="174.212891" xlink:href="#DejaVuSans-107"/>
     <use x="232.123047" xlink:href="#DejaVuSans-32"/>
     <use x="263.910156" xlink:href="#DejaVuSans-49"/>
     <use x="327.533203" xlink:href="#DejaVuSans-97"/>
     <use x="388.8125" xlink:href="#DejaVuSans-32"/>
     <use x="420.599609" xlink:href="#DejaVuSans-66"/>
     <use x="489.203125" xlink:href="#DejaVuSans-84"/>
     <use x="550.287109" xlink:href="#DejaVuSans-69"/>
     <use x="613.470703" xlink:href="#DejaVuSans-58"/>
     <use x="647.162109" xlink:href="#DejaVuSans-32"/>
     <use x="678.949219" xlink:href="#DejaVuSans-82"/>
     <use x="748.369141" xlink:href="#DejaVuSans-111"/>
     <use x="809.550781" xlink:href="#DejaVuSans-116"/>
     <use x="848.759766" xlink:href="#DejaVuSans-97"/>
     <use x="910.039062" xlink:href="#DejaVuSans-116"/>
     <use x="949.248047" xlink:href="#DejaVuSans-101"/>
     <use x="1010.771484" xlink:href="#DejaVuSans-100"/>
     <use x="1074.248047" xlink:href="#DejaVuSans-32"/>
     <use x="1106.035156" xlink:href="#DejaVuSans-67"/>
     <use x="1175.859375" xlink:href="#DejaVuSans-73"/>
     <use x="1205.351562" xlink:href="#DejaVuSans-70"/>
     <use x="1262.730469" xlink:href="#DejaVuSans-65"/>
     <use x="1331.138672" xlink:href="#DejaVuSans-82"/>
    </g>
   </g>
  </g>
 </g>
 <defs>
  <clipPath id="p7c17193c23">
   <rect height="450.58" width="456.677996" x="99.21" y="41.96"/>
  </clipPath>
 </defs>
</svg>
