<?xml version="1.0" encoding="utf-8" standalone="no"?>
<!DOCTYPE svg PUBLIC "-//W3C//DTD SVG 1.1//EN"
  "http://www.w3.org/Graphics/SVG/1.1/DTD/svg11.dtd">
<!-- Created with matplotlib (https://matplotlib.org/) -->
<svg height="576pt" version="1.1" viewBox="0 0 576 576" width="576pt" xmlns="http://www.w3.org/2000/svg" xmlns:xlink="http://www.w3.org/1999/xlink">
 <defs>
  <style type="text/css">
*{stroke-linecap:butt;stroke-linejoin:round;}
  </style>
 </defs>
 <g id="figure_1">
  <g id="patch_1">
   <path d="M 0 576 
L 576 576 
L 576 0 
L 0 0 
z
" style="fill:#ffffff;"/>
  </g>
  <g id="axes_1">
   <g id="patch_2">
    <path d="M 99.21 492.54 
L 561.333654 492.54 
L 561.333654 41.96 
L 99.21 41.96 
z
" style="fill:#eaeaf2;"/>
   </g>
   <g id="matplotlib.axis_1">
    <g id="xtick_1">
     <g id="line2d_1">
      <path clip-path="url(#p77c89910f7)" d="M 120.215621 492.54 
L 120.215621 41.96 
" style="fill:none;stroke:#ffffff;stroke-linecap:round;"/>
     </g>
     <g id="text_1">
      <!-- 0 -->
      <defs>
       <path d="M 31.78125 66.40625 
Q 24.171875 66.40625 20.328125 58.90625 
Q 16.5 51.421875 16.5 36.375 
Q 16.5 21.390625 20.328125 13.890625 
Q 24.171875 6.390625 31.78125 6.390625 
Q 39.453125 6.390625 43.28125 13.890625 
Q 47.125 21.390625 47.125 36.375 
Q 47.125 51.421875 43.28125 58.90625 
Q 39.453125 66.40625 31.78125 66.40625 
z
M 31.78125 74.21875 
Q 44.046875 74.21875 50.515625 64.515625 
Q 56.984375 54.828125 56.984375 36.375 
Q 56.984375 17.96875 50.515625 8.265625 
Q 44.046875 -1.421875 31.78125 -1.421875 
Q 19.53125 -1.421875 13.0625 8.265625 
Q 6.59375 17.96875 6.59375 36.375 
Q 6.59375 54.828125 13.0625 64.515625 
Q 19.53125 74.21875 31.78125 74.21875 
z
" id="DejaVuSans-48"/>
      </defs>
      <g style="fill:#262626;" transform="translate(111.467183 522.935703)scale(0.275 -0.275)">
       <use xlink:href="#DejaVuSans-48"/>
      </g>
     </g>
    </g>
    <g id="xtick_2">
     <g id="line2d_2">
      <path clip-path="url(#p77c89910f7)" d="M 332.632009 492.54 
L 332.632009 41.96 
" style="fill:none;stroke:#ffffff;stroke-linecap:round;"/>
     </g>
     <g id="text_2">
      <!-- 45 -->
      <defs>
       <path d="M 37.796875 64.3125 
L 12.890625 25.390625 
L 37.796875 25.390625 
z
M 35.203125 72.90625 
L 47.609375 72.90625 
L 47.609375 25.390625 
L 58.015625 25.390625 
L 58.015625 17.1875 
L 47.609375 17.1875 
L 47.609375 0 
L 37.796875 0 
L 37.796875 17.1875 
L 4.890625 17.1875 
L 4.890625 26.703125 
z
" id="DejaVuSans-52"/>
       <path d="M 10.796875 72.90625 
L 49.515625 72.90625 
L 49.515625 64.59375 
L 19.828125 64.59375 
L 19.828125 46.734375 
Q 21.96875 47.46875 24.109375 47.828125 
Q 26.265625 48.1875 28.421875 48.1875 
Q 40.625 48.1875 47.75 41.5 
Q 54.890625 34.8125 54.890625 23.390625 
Q 54.890625 11.625 47.5625 5.09375 
Q 40.234375 -1.421875 26.90625 -1.421875 
Q 22.3125 -1.421875 17.546875 -0.640625 
Q 12.796875 0.140625 7.71875 1.703125 
L 7.71875 11.625 
Q 12.109375 9.234375 16.796875 8.0625 
Q 21.484375 6.890625 26.703125 6.890625 
Q 35.15625 6.890625 40.078125 11.328125 
Q 45.015625 15.765625 45.015625 23.390625 
Q 45.015625 31 40.078125 35.4375 
Q 35.15625 39.890625 26.703125 39.890625 
Q 22.75 39.890625 18.8125 39.015625 
Q 14.890625 38.140625 10.796875 36.28125 
z
" id="DejaVuSans-53"/>
      </defs>
      <g style="fill:#262626;" transform="translate(315.135134 522.935703)scale(0.275 -0.275)">
       <use xlink:href="#DejaVuSans-52"/>
       <use x="63.623047" xlink:href="#DejaVuSans-53"/>
      </g>
     </g>
    </g>
    <g id="xtick_3">
     <g id="line2d_3">
      <path clip-path="url(#p77c89910f7)" d="M 545.048398 492.54 
L 545.048398 41.96 
" style="fill:none;stroke:#ffffff;stroke-linecap:round;"/>
     </g>
     <g id="text_3">
      <!-- 90 -->
      <defs>
       <path d="M 10.984375 1.515625 
L 10.984375 10.5 
Q 14.703125 8.734375 18.5 7.8125 
Q 22.3125 6.890625 25.984375 6.890625 
Q 35.75 6.890625 40.890625 13.453125 
Q 46.046875 20.015625 46.78125 33.40625 
Q 43.953125 29.203125 39.59375 26.953125 
Q 35.25 24.703125 29.984375 24.703125 
Q 19.046875 24.703125 12.671875 31.3125 
Q 6.296875 37.9375 6.296875 49.421875 
Q 6.296875 60.640625 12.9375 67.421875 
Q 19.578125 74.21875 30.609375 74.21875 
Q 43.265625 74.21875 49.921875 64.515625 
Q 56.59375 54.828125 56.59375 36.375 
Q 56.59375 19.140625 48.40625 8.859375 
Q 40.234375 -1.421875 26.421875 -1.421875 
Q 22.703125 -1.421875 18.890625 -0.6875 
Q 15.09375 0.046875 10.984375 1.515625 
z
M 30.609375 32.421875 
Q 37.25 32.421875 41.125 36.953125 
Q 45.015625 41.5 45.015625 49.421875 
Q 45.015625 57.28125 41.125 61.84375 
Q 37.25 66.40625 30.609375 66.40625 
Q 23.96875 66.40625 20.09375 61.84375 
Q 16.21875 57.28125 16.21875 49.421875 
Q 16.21875 41.5 20.09375 36.953125 
Q 23.96875 32.421875 30.609375 32.421875 
z
" id="DejaVuSans-57"/>
      </defs>
      <g style="fill:#262626;" transform="translate(527.551523 522.935703)scale(0.275 -0.275)">
       <use xlink:href="#DejaVuSans-57"/>
       <use x="63.623047" xlink:href="#DejaVuSans-48"/>
      </g>
     </g>
    </g>
    <g id="text_4">
     <!-- Rotation Angle (Degree) -->
     <defs>
      <path d="M 44.390625 34.1875 
Q 47.5625 33.109375 50.5625 29.59375 
Q 53.5625 26.078125 56.59375 19.921875 
L 66.609375 0 
L 56 0 
L 46.6875 18.703125 
Q 43.0625 26.03125 39.671875 28.421875 
Q 36.28125 30.8125 30.421875 30.8125 
L 19.671875 30.8125 
L 19.671875 0 
L 9.8125 0 
L 9.8125 72.90625 
L 32.078125 72.90625 
Q 44.578125 72.90625 50.734375 67.671875 
Q 56.890625 62.453125 56.890625 51.90625 
Q 56.890625 45.015625 53.6875 40.46875 
Q 50.484375 35.9375 44.390625 34.1875 
z
M 19.671875 64.796875 
L 19.671875 38.921875 
L 32.078125 38.921875 
Q 39.203125 38.921875 42.84375 42.21875 
Q 46.484375 45.515625 46.484375 51.90625 
Q 46.484375 58.296875 42.84375 61.546875 
Q 39.203125 64.796875 32.078125 64.796875 
z
" id="DejaVuSans-82"/>
      <path d="M 30.609375 48.390625 
Q 23.390625 48.390625 19.1875 42.75 
Q 14.984375 37.109375 14.984375 27.296875 
Q 14.984375 17.484375 19.15625 11.84375 
Q 23.34375 6.203125 30.609375 6.203125 
Q 37.796875 6.203125 41.984375 11.859375 
Q 46.1875 17.53125 46.1875 27.296875 
Q 46.1875 37.015625 41.984375 42.703125 
Q 37.796875 48.390625 30.609375 48.390625 
z
M 30.609375 56 
Q 42.328125 56 49.015625 48.375 
Q 55.71875 40.765625 55.71875 27.296875 
Q 55.71875 13.875 49.015625 6.21875 
Q 42.328125 -1.421875 30.609375 -1.421875 
Q 18.84375 -1.421875 12.171875 6.21875 
Q 5.515625 13.875 5.515625 27.296875 
Q 5.515625 40.765625 12.171875 48.375 
Q 18.84375 56 30.609375 56 
z
" id="DejaVuSans-111"/>
      <path d="M 18.3125 70.21875 
L 18.3125 54.6875 
L 36.8125 54.6875 
L 36.8125 47.703125 
L 18.3125 47.703125 
L 18.3125 18.015625 
Q 18.3125 11.328125 20.140625 9.421875 
Q 21.96875 7.515625 27.59375 7.515625 
L 36.8125 7.515625 
L 36.8125 0 
L 27.59375 0 
Q 17.1875 0 13.234375 3.875 
Q 9.28125 7.765625 9.28125 18.015625 
L 9.28125 47.703125 
L 2.6875 47.703125 
L 2.6875 54.6875 
L 9.28125 54.6875 
L 9.28125 70.21875 
z
" id="DejaVuSans-116"/>
      <path d="M 34.28125 27.484375 
Q 23.390625 27.484375 19.1875 25 
Q 14.984375 22.515625 14.984375 16.5 
Q 14.984375 11.71875 18.140625 8.90625 
Q 21.296875 6.109375 26.703125 6.109375 
Q 34.1875 6.109375 38.703125 11.40625 
Q 43.21875 16.703125 43.21875 25.484375 
L 43.21875 27.484375 
z
M 52.203125 31.203125 
L 52.203125 0 
L 43.21875 0 
L 43.21875 8.296875 
Q 40.140625 3.328125 35.546875 0.953125 
Q 30.953125 -1.421875 24.3125 -1.421875 
Q 15.921875 -1.421875 10.953125 3.296875 
Q 6 8.015625 6 15.921875 
Q 6 25.140625 12.171875 29.828125 
Q 18.359375 34.515625 30.609375 34.515625 
L 43.21875 34.515625 
L 43.21875 35.40625 
Q 43.21875 41.609375 39.140625 45 
Q 35.0625 48.390625 27.6875 48.390625 
Q 23 48.390625 18.546875 47.265625 
Q 14.109375 46.140625 10.015625 43.890625 
L 10.015625 52.203125 
Q 14.9375 54.109375 19.578125 55.046875 
Q 24.21875 56 28.609375 56 
Q 40.484375 56 46.34375 49.84375 
Q 52.203125 43.703125 52.203125 31.203125 
z
" id="DejaVuSans-97"/>
      <path d="M 9.421875 54.6875 
L 18.40625 54.6875 
L 18.40625 0 
L 9.421875 0 
z
M 9.421875 75.984375 
L 18.40625 75.984375 
L 18.40625 64.59375 
L 9.421875 64.59375 
z
" id="DejaVuSans-105"/>
      <path d="M 54.890625 33.015625 
L 54.890625 0 
L 45.90625 0 
L 45.90625 32.71875 
Q 45.90625 40.484375 42.875 44.328125 
Q 39.84375 48.1875 33.796875 48.1875 
Q 26.515625 48.1875 22.3125 43.546875 
Q 18.109375 38.921875 18.109375 30.90625 
L 18.109375 0 
L 9.078125 0 
L 9.078125 54.6875 
L 18.109375 54.6875 
L 18.109375 46.1875 
Q 21.34375 51.125 25.703125 53.5625 
Q 30.078125 56 35.796875 56 
Q 45.21875 56 50.046875 50.171875 
Q 54.890625 44.34375 54.890625 33.015625 
z
" id="DejaVuSans-110"/>
      <path id="DejaVuSans-32"/>
      <path d="M 34.1875 63.1875 
L 20.796875 26.90625 
L 47.609375 26.90625 
z
M 28.609375 72.90625 
L 39.796875 72.90625 
L 67.578125 0 
L 57.328125 0 
L 50.6875 18.703125 
L 17.828125 18.703125 
L 11.1875 0 
L 0.78125 0 
z
" id="DejaVuSans-65"/>
      <path d="M 45.40625 27.984375 
Q 45.40625 37.75 41.375 43.109375 
Q 37.359375 48.484375 30.078125 48.484375 
Q 22.859375 48.484375 18.828125 43.109375 
Q 14.796875 37.75 14.796875 27.984375 
Q 14.796875 18.265625 18.828125 12.890625 
Q 22.859375 7.515625 30.078125 7.515625 
Q 37.359375 7.515625 41.375 12.890625 
Q 45.40625 18.265625 45.40625 27.984375 
z
M 54.390625 6.78125 
Q 54.390625 -7.171875 48.1875 -13.984375 
Q 42 -20.796875 29.203125 -20.796875 
Q 24.46875 -20.796875 20.265625 -20.09375 
Q 16.0625 -19.390625 12.109375 -17.921875 
L 12.109375 -9.1875 
Q 16.0625 -11.328125 19.921875 -12.34375 
Q 23.78125 -13.375 27.78125 -13.375 
Q 36.625 -13.375 41.015625 -8.765625 
Q 45.40625 -4.15625 45.40625 5.171875 
L 45.40625 9.625 
Q 42.625 4.78125 38.28125 2.390625 
Q 33.9375 0 27.875 0 
Q 17.828125 0 11.671875 7.65625 
Q 5.515625 15.328125 5.515625 27.984375 
Q 5.515625 40.671875 11.671875 48.328125 
Q 17.828125 56 27.875 56 
Q 33.9375 56 38.28125 53.609375 
Q 42.625 51.21875 45.40625 46.390625 
L 45.40625 54.6875 
L 54.390625 54.6875 
z
" id="DejaVuSans-103"/>
      <path d="M 9.421875 75.984375 
L 18.40625 75.984375 
L 18.40625 0 
L 9.421875 0 
z
" id="DejaVuSans-108"/>
      <path d="M 56.203125 29.59375 
L 56.203125 25.203125 
L 14.890625 25.203125 
Q 15.484375 15.921875 20.484375 11.0625 
Q 25.484375 6.203125 34.421875 6.203125 
Q 39.59375 6.203125 44.453125 7.46875 
Q 49.3125 8.734375 54.109375 11.28125 
L 54.109375 2.78125 
Q 49.265625 0.734375 44.1875 -0.34375 
Q 39.109375 -1.421875 33.890625 -1.421875 
Q 20.796875 -1.421875 13.15625 6.1875 
Q 5.515625 13.8125 5.515625 26.8125 
Q 5.515625 40.234375 12.765625 48.109375 
Q 20.015625 56 32.328125 56 
Q 43.359375 56 49.78125 48.890625 
Q 56.203125 41.796875 56.203125 29.59375 
z
M 47.21875 32.234375 
Q 47.125 39.59375 43.09375 43.984375 
Q 39.0625 48.390625 32.421875 48.390625 
Q 24.90625 48.390625 20.390625 44.140625 
Q 15.875 39.890625 15.1875 32.171875 
z
" id="DejaVuSans-101"/>
      <path d="M 31 75.875 
Q 24.46875 64.65625 21.28125 53.65625 
Q 18.109375 42.671875 18.109375 31.390625 
Q 18.109375 20.125 21.3125 9.0625 
Q 24.515625 -2 31 -13.1875 
L 23.1875 -13.1875 
Q 15.875 -1.703125 12.234375 9.375 
Q 8.59375 20.453125 8.59375 31.390625 
Q 8.59375 42.28125 12.203125 53.3125 
Q 15.828125 64.359375 23.1875 75.875 
z
" id="DejaVuSans-40"/>
      <path d="M 19.671875 64.796875 
L 19.671875 8.109375 
L 31.59375 8.109375 
Q 46.6875 8.109375 53.6875 14.9375 
Q 60.6875 21.78125 60.6875 36.53125 
Q 60.6875 51.171875 53.6875 57.984375 
Q 46.6875 64.796875 31.59375 64.796875 
z
M 9.8125 72.90625 
L 30.078125 72.90625 
Q 51.265625 72.90625 61.171875 64.09375 
Q 71.09375 55.28125 71.09375 36.53125 
Q 71.09375 17.671875 61.125 8.828125 
Q 51.171875 0 30.078125 0 
L 9.8125 0 
z
" id="DejaVuSans-68"/>
      <path d="M 41.109375 46.296875 
Q 39.59375 47.171875 37.8125 47.578125 
Q 36.03125 48 33.890625 48 
Q 26.265625 48 22.1875 43.046875 
Q 18.109375 38.09375 18.109375 28.8125 
L 18.109375 0 
L 9.078125 0 
L 9.078125 54.6875 
L 18.109375 54.6875 
L 18.109375 46.1875 
Q 20.953125 51.171875 25.484375 53.578125 
Q 30.03125 56 36.53125 56 
Q 37.453125 56 38.578125 55.875 
Q 39.703125 55.765625 41.0625 55.515625 
z
" id="DejaVuSans-114"/>
      <path d="M 8.015625 75.875 
L 15.828125 75.875 
Q 23.140625 64.359375 26.78125 53.3125 
Q 30.421875 42.28125 30.421875 31.390625 
Q 30.421875 20.453125 26.78125 9.375 
Q 23.140625 -1.703125 15.828125 -13.1875 
L 8.015625 -13.1875 
Q 14.5 -2 17.703125 9.0625 
Q 20.90625 20.125 20.90625 31.390625 
Q 20.90625 42.671875 17.703125 53.65625 
Q 14.5 64.65625 8.015625 75.875 
z
" id="DejaVuSans-41"/>
     </defs>
     <g style="fill:#262626;" transform="translate(148.026515 555.450156)scale(0.3 -0.3)">
      <use xlink:href="#DejaVuSans-82"/>
      <use x="69.419922" xlink:href="#DejaVuSans-111"/>
      <use x="130.601562" xlink:href="#DejaVuSans-116"/>
      <use x="169.810547" xlink:href="#DejaVuSans-97"/>
      <use x="231.089844" xlink:href="#DejaVuSans-116"/>
      <use x="270.298828" xlink:href="#DejaVuSans-105"/>
      <use x="298.082031" xlink:href="#DejaVuSans-111"/>
      <use x="359.263672" xlink:href="#DejaVuSans-110"/>
      <use x="422.642578" xlink:href="#DejaVuSans-32"/>
      <use x="454.429688" xlink:href="#DejaVuSans-65"/>
      <use x="522.837891" xlink:href="#DejaVuSans-110"/>
      <use x="586.216797" xlink:href="#DejaVuSans-103"/>
      <use x="649.693359" xlink:href="#DejaVuSans-108"/>
      <use x="677.476562" xlink:href="#DejaVuSans-101"/>
      <use x="739" xlink:href="#DejaVuSans-32"/>
      <use x="770.787109" xlink:href="#DejaVuSans-40"/>
      <use x="809.800781" xlink:href="#DejaVuSans-68"/>
      <use x="886.802734" xlink:href="#DejaVuSans-101"/>
      <use x="948.326172" xlink:href="#DejaVuSans-103"/>
      <use x="1011.802734" xlink:href="#DejaVuSans-114"/>
      <use x="1052.884766" xlink:href="#DejaVuSans-101"/>
      <use x="1114.408203" xlink:href="#DejaVuSans-101"/>
      <use x="1175.931641" xlink:href="#DejaVuSans-41"/>
     </g>
    </g>
   </g>
   <g id="matplotlib.axis_2">
    <g id="ytick_1">
     <g id="line2d_4">
      <path clip-path="url(#p77c89910f7)" d="M 99.21 452.782941 
L 561.333654 452.782941 
" style="fill:none;stroke:#ffffff;stroke-linecap:round;"/>
     </g>
     <g id="text_5">
      <!-- 0.9 -->
      <defs>
       <path d="M 10.6875 12.40625 
L 21 12.40625 
L 21 0 
L 10.6875 0 
z
" id="DejaVuSans-46"/>
      </defs>
      <g style="fill:#262626;" transform="translate(45.976406 463.230793)scale(0.275 -0.275)">
       <use xlink:href="#DejaVuSans-48"/>
       <use x="63.623047" xlink:href="#DejaVuSans-46"/>
       <use x="95.410156" xlink:href="#DejaVuSans-57"/>
      </g>
     </g>
    </g>
    <g id="ytick_2">
     <g id="line2d_5">
      <path clip-path="url(#p77c89910f7)" d="M 99.21 320.259412 
L 561.333654 320.259412 
" style="fill:none;stroke:#ffffff;stroke-linecap:round;"/>
     </g>
     <g id="text_6">
      <!-- 1.0 -->
      <defs>
       <path d="M 12.40625 8.296875 
L 28.515625 8.296875 
L 28.515625 63.921875 
L 10.984375 60.40625 
L 10.984375 69.390625 
L 28.421875 72.90625 
L 38.28125 72.90625 
L 38.28125 8.296875 
L 54.390625 8.296875 
L 54.390625 0 
L 12.40625 0 
z
" id="DejaVuSans-49"/>
      </defs>
      <g style="fill:#262626;" transform="translate(45.976406 330.707263)scale(0.275 -0.275)">
       <use xlink:href="#DejaVuSans-49"/>
       <use x="63.623047" xlink:href="#DejaVuSans-46"/>
       <use x="95.410156" xlink:href="#DejaVuSans-48"/>
      </g>
     </g>
    </g>
    <g id="ytick_3">
     <g id="line2d_6">
      <path clip-path="url(#p77c89910f7)" d="M 99.21 187.735882 
L 561.333654 187.735882 
" style="fill:none;stroke:#ffffff;stroke-linecap:round;"/>
     </g>
     <g id="text_7">
      <!-- 1.1 -->
      <g style="fill:#262626;" transform="translate(45.976406 198.183734)scale(0.275 -0.275)">
       <use xlink:href="#DejaVuSans-49"/>
       <use x="63.623047" xlink:href="#DejaVuSans-46"/>
       <use x="95.410156" xlink:href="#DejaVuSans-49"/>
      </g>
     </g>
    </g>
    <g id="ytick_4">
     <g id="line2d_7">
      <path clip-path="url(#p77c89910f7)" d="M 99.21 55.212353 
L 561.333654 55.212353 
" style="fill:none;stroke:#ffffff;stroke-linecap:round;"/>
     </g>
     <g id="text_8">
      <!-- 1.2 -->
      <defs>
       <path d="M 19.1875 8.296875 
L 53.609375 8.296875 
L 53.609375 0 
L 7.328125 0 
L 7.328125 8.296875 
Q 12.9375 14.109375 22.625 23.890625 
Q 32.328125 33.6875 34.8125 36.53125 
Q 39.546875 41.84375 41.421875 45.53125 
Q 43.3125 49.21875 43.3125 52.78125 
Q 43.3125 58.59375 39.234375 62.25 
Q 35.15625 65.921875 28.609375 65.921875 
Q 23.96875 65.921875 18.8125 64.3125 
Q 13.671875 62.703125 7.8125 59.421875 
L 7.8125 69.390625 
Q 13.765625 71.78125 18.9375 73 
Q 24.125 74.21875 28.421875 74.21875 
Q 39.75 74.21875 46.484375 68.546875 
Q 53.21875 62.890625 53.21875 53.421875 
Q 53.21875 48.921875 51.53125 44.890625 
Q 49.859375 40.875 45.40625 35.40625 
Q 44.1875 33.984375 37.640625 27.21875 
Q 31.109375 20.453125 19.1875 8.296875 
z
" id="DejaVuSans-50"/>
      </defs>
      <g style="fill:#262626;" transform="translate(45.976406 65.660205)scale(0.275 -0.275)">
       <use xlink:href="#DejaVuSans-49"/>
       <use x="63.623047" xlink:href="#DejaVuSans-46"/>
       <use x="95.410156" xlink:href="#DejaVuSans-50"/>
      </g>
     </g>
    </g>
    <g id="text_9">
     <!-- Backward Transfer Efficiency -->
     <defs>
      <path d="M 19.671875 34.8125 
L 19.671875 8.109375 
L 35.5 8.109375 
Q 43.453125 8.109375 47.28125 11.40625 
Q 51.125 14.703125 51.125 21.484375 
Q 51.125 28.328125 47.28125 31.5625 
Q 43.453125 34.8125 35.5 34.8125 
z
M 19.671875 64.796875 
L 19.671875 42.828125 
L 34.28125 42.828125 
Q 41.5 42.828125 45.03125 45.53125 
Q 48.578125 48.25 48.578125 53.8125 
Q 48.578125 59.328125 45.03125 62.0625 
Q 41.5 64.796875 34.28125 64.796875 
z
M 9.8125 72.90625 
L 35.015625 72.90625 
Q 46.296875 72.90625 52.390625 68.21875 
Q 58.5 63.53125 58.5 54.890625 
Q 58.5 48.1875 55.375 44.234375 
Q 52.25 40.28125 46.1875 39.3125 
Q 53.46875 37.75 57.5 32.78125 
Q 61.53125 27.828125 61.53125 20.40625 
Q 61.53125 10.640625 54.890625 5.3125 
Q 48.25 0 35.984375 0 
L 9.8125 0 
z
" id="DejaVuSans-66"/>
      <path d="M 48.78125 52.59375 
L 48.78125 44.1875 
Q 44.96875 46.296875 41.140625 47.34375 
Q 37.3125 48.390625 33.40625 48.390625 
Q 24.65625 48.390625 19.8125 42.84375 
Q 14.984375 37.3125 14.984375 27.296875 
Q 14.984375 17.28125 19.8125 11.734375 
Q 24.65625 6.203125 33.40625 6.203125 
Q 37.3125 6.203125 41.140625 7.25 
Q 44.96875 8.296875 48.78125 10.40625 
L 48.78125 2.09375 
Q 45.015625 0.34375 40.984375 -0.53125 
Q 36.96875 -1.421875 32.421875 -1.421875 
Q 20.0625 -1.421875 12.78125 6.34375 
Q 5.515625 14.109375 5.515625 27.296875 
Q 5.515625 40.671875 12.859375 48.328125 
Q 20.21875 56 33.015625 56 
Q 37.15625 56 41.109375 55.140625 
Q 45.0625 54.296875 48.78125 52.59375 
z
" id="DejaVuSans-99"/>
      <path d="M 9.078125 75.984375 
L 18.109375 75.984375 
L 18.109375 31.109375 
L 44.921875 54.6875 
L 56.390625 54.6875 
L 27.390625 29.109375 
L 57.625 0 
L 45.90625 0 
L 18.109375 26.703125 
L 18.109375 0 
L 9.078125 0 
z
" id="DejaVuSans-107"/>
      <path d="M 4.203125 54.6875 
L 13.1875 54.6875 
L 24.421875 12.015625 
L 35.59375 54.6875 
L 46.1875 54.6875 
L 57.421875 12.015625 
L 68.609375 54.6875 
L 77.59375 54.6875 
L 63.28125 0 
L 52.6875 0 
L 40.921875 44.828125 
L 29.109375 0 
L 18.5 0 
z
" id="DejaVuSans-119"/>
      <path d="M 45.40625 46.390625 
L 45.40625 75.984375 
L 54.390625 75.984375 
L 54.390625 0 
L 45.40625 0 
L 45.40625 8.203125 
Q 42.578125 3.328125 38.25 0.953125 
Q 33.9375 -1.421875 27.875 -1.421875 
Q 17.96875 -1.421875 11.734375 6.484375 
Q 5.515625 14.40625 5.515625 27.296875 
Q 5.515625 40.1875 11.734375 48.09375 
Q 17.96875 56 27.875 56 
Q 33.9375 56 38.25 53.625 
Q 42.578125 51.265625 45.40625 46.390625 
z
M 14.796875 27.296875 
Q 14.796875 17.390625 18.875 11.75 
Q 22.953125 6.109375 30.078125 6.109375 
Q 37.203125 6.109375 41.296875 11.75 
Q 45.40625 17.390625 45.40625 27.296875 
Q 45.40625 37.203125 41.296875 42.84375 
Q 37.203125 48.484375 30.078125 48.484375 
Q 22.953125 48.484375 18.875 42.84375 
Q 14.796875 37.203125 14.796875 27.296875 
z
" id="DejaVuSans-100"/>
      <path d="M -0.296875 72.90625 
L 61.375 72.90625 
L 61.375 64.59375 
L 35.5 64.59375 
L 35.5 0 
L 25.59375 0 
L 25.59375 64.59375 
L -0.296875 64.59375 
z
" id="DejaVuSans-84"/>
      <path d="M 44.28125 53.078125 
L 44.28125 44.578125 
Q 40.484375 46.53125 36.375 47.5 
Q 32.28125 48.484375 27.875 48.484375 
Q 21.1875 48.484375 17.84375 46.4375 
Q 14.5 44.390625 14.5 40.28125 
Q 14.5 37.15625 16.890625 35.375 
Q 19.28125 33.59375 26.515625 31.984375 
L 29.59375 31.296875 
Q 39.15625 29.25 43.1875 25.515625 
Q 47.21875 21.78125 47.21875 15.09375 
Q 47.21875 7.46875 41.1875 3.015625 
Q 35.15625 -1.421875 24.609375 -1.421875 
Q 20.21875 -1.421875 15.453125 -0.5625 
Q 10.6875 0.296875 5.421875 2 
L 5.421875 11.28125 
Q 10.40625 8.6875 15.234375 7.390625 
Q 20.0625 6.109375 24.8125 6.109375 
Q 31.15625 6.109375 34.5625 8.28125 
Q 37.984375 10.453125 37.984375 14.40625 
Q 37.984375 18.0625 35.515625 20.015625 
Q 33.0625 21.96875 24.703125 23.78125 
L 21.578125 24.515625 
Q 13.234375 26.265625 9.515625 29.90625 
Q 5.8125 33.546875 5.8125 39.890625 
Q 5.8125 47.609375 11.28125 51.796875 
Q 16.75 56 26.8125 56 
Q 31.78125 56 36.171875 55.265625 
Q 40.578125 54.546875 44.28125 53.078125 
z
" id="DejaVuSans-115"/>
      <path d="M 37.109375 75.984375 
L 37.109375 68.5 
L 28.515625 68.5 
Q 23.6875 68.5 21.796875 66.546875 
Q 19.921875 64.59375 19.921875 59.515625 
L 19.921875 54.6875 
L 34.71875 54.6875 
L 34.71875 47.703125 
L 19.921875 47.703125 
L 19.921875 0 
L 10.890625 0 
L 10.890625 47.703125 
L 2.296875 47.703125 
L 2.296875 54.6875 
L 10.890625 54.6875 
L 10.890625 58.5 
Q 10.890625 67.625 15.140625 71.796875 
Q 19.390625 75.984375 28.609375 75.984375 
z
" id="DejaVuSans-102"/>
      <path d="M 9.8125 72.90625 
L 55.90625 72.90625 
L 55.90625 64.59375 
L 19.671875 64.59375 
L 19.671875 43.015625 
L 54.390625 43.015625 
L 54.390625 34.71875 
L 19.671875 34.71875 
L 19.671875 8.296875 
L 56.78125 8.296875 
L 56.78125 0 
L 9.8125 0 
z
" id="DejaVuSans-69"/>
      <path d="M 32.171875 -5.078125 
Q 28.375 -14.84375 24.75 -17.8125 
Q 21.140625 -20.796875 15.09375 -20.796875 
L 7.90625 -20.796875 
L 7.90625 -13.28125 
L 13.1875 -13.28125 
Q 16.890625 -13.28125 18.9375 -11.515625 
Q 21 -9.765625 23.484375 -3.21875 
L 25.09375 0.875 
L 2.984375 54.6875 
L 12.5 54.6875 
L 29.59375 11.921875 
L 46.6875 54.6875 
L 56.203125 54.6875 
z
" id="DejaVuSans-121"/>
     </defs>
     <g style="fill:#262626;" transform="translate(35.737344 485.314844)rotate(-90)scale(0.3 -0.3)">
      <use xlink:href="#DejaVuSans-66"/>
      <use x="68.603516" xlink:href="#DejaVuSans-97"/>
      <use x="129.882812" xlink:href="#DejaVuSans-99"/>
      <use x="184.863281" xlink:href="#DejaVuSans-107"/>
      <use x="242.773438" xlink:href="#DejaVuSans-119"/>
      <use x="324.560547" xlink:href="#DejaVuSans-97"/>
      <use x="385.839844" xlink:href="#DejaVuSans-114"/>
      <use x="426.9375" xlink:href="#DejaVuSans-100"/>
      <use x="490.414062" xlink:href="#DejaVuSans-32"/>
      <use x="522.201172" xlink:href="#DejaVuSans-84"/>
      <use x="583.066406" xlink:href="#DejaVuSans-114"/>
      <use x="624.179688" xlink:href="#DejaVuSans-97"/>
      <use x="685.458984" xlink:href="#DejaVuSans-110"/>
      <use x="748.837891" xlink:href="#DejaVuSans-115"/>
      <use x="800.9375" xlink:href="#DejaVuSans-102"/>
      <use x="836.142578" xlink:href="#DejaVuSans-101"/>
      <use x="897.666016" xlink:href="#DejaVuSans-114"/>
      <use x="938.779297" xlink:href="#DejaVuSans-32"/>
      <use x="970.566406" xlink:href="#DejaVuSans-69"/>
      <use x="1033.75" xlink:href="#DejaVuSans-102"/>
      <use x="1068.955078" xlink:href="#DejaVuSans-102"/>
      <use x="1104.160156" xlink:href="#DejaVuSans-105"/>
      <use x="1131.943359" xlink:href="#DejaVuSans-99"/>
      <use x="1186.923828" xlink:href="#DejaVuSans-105"/>
      <use x="1214.707031" xlink:href="#DejaVuSans-101"/>
      <use x="1276.230469" xlink:href="#DejaVuSans-110"/>
      <use x="1339.609375" xlink:href="#DejaVuSans-99"/>
      <use x="1394.589844" xlink:href="#DejaVuSans-121"/>
     </g>
    </g>
   </g>
   <g id="PolyCollection_1">
    <defs>
     <path d="M 120.215621 -528.704418 
L 120.215621 -528.704418 
L 124.935985 -519.502919 
L 129.656349 -526.772285 
L 134.376713 -517.885326 
L 139.097077 -509.494081 
L 143.817442 -503.705728 
L 148.537806 -494.673275 
L 153.25817 -474.909595 
L 157.978534 -477.152159 
L 162.698898 -470.350077 
L 167.419263 -456.681457 
L 172.139627 -443.130417 
L 176.859991 -416.670615 
L 181.580355 -411.01818 
L 186.300719 -404.315018 
L 191.021084 -388.112995 
L 195.741448 -375.79803 
L 200.461812 -362.873 
L 205.182176 -349.909861 
L 209.90254 -315.69786 
L 214.622904 -321.047643 
L 219.343269 -302.469743 
L 224.063633 -280.639596 
L 228.783997 -280.523839 
L 233.504361 -266.256677 
L 238.224725 -248.829757 
L 242.94509 -238.790391 
L 247.665454 -226.976635 
L 252.385818 -220.055522 
L 257.106182 -201.075547 
L 261.826546 -191.775772 
L 266.546911 -179.280516 
L 271.267275 -179.615067 
L 275.987639 -163.384168 
L 280.708003 -162.63812 
L 285.428367 -153.749236 
L 290.148732 -160.248573 
L 294.869096 -131.694445 
L 299.58946 -124.359783 
L 304.309824 -126.464278 
L 309.030188 -131.826662 
L 313.750552 -125.866397 
L 318.470917 -117.098801 
L 323.191281 -111.933526 
L 327.911645 -114.325891 
L 332.632009 -120.631 
L 337.352373 -127.530697 
L 342.072738 -116.251119 
L 346.793102 -127.184569 
L 351.513466 -122.980734 
L 356.23383 -129.197051 
L 360.954194 -130.25168 
L 365.674559 -131.718056 
L 370.394923 -149.484721 
L 375.115287 -157.391276 
L 379.835651 -157.006694 
L 384.556015 -157.626947 
L 389.276379 -160.81765 
L 393.996744 -183.397121 
L 398.717108 -187.478375 
L 403.437472 -194.504705 
L 408.157836 -213.43399 
L 412.8782 -217.936132 
L 417.598565 -234.482116 
L 422.318929 -228.691107 
L 427.039293 -250.19108 
L 431.759657 -260.670307 
L 436.480021 -267.296895 
L 441.200386 -280.920505 
L 445.92075 -295.552991 
L 450.641114 -306.746723 
L 455.361478 -330.7638 
L 460.081842 -334.642841 
L 464.802207 -357.527617 
L 469.522571 -369.99481 
L 474.242935 -384.693204 
L 478.963299 -403.765963 
L 483.683663 -402.131262 
L 488.404027 -414.898736 
L 493.124392 -444.76683 
L 497.844756 -437.698088 
L 502.56512 -473.710183 
L 507.285484 -464.866966 
L 512.005848 -489.712267 
L 516.726213 -495.593977 
L 521.446577 -505.116565 
L 526.166941 -502.56444 
L 530.887305 -522.760663 
L 535.607669 -515.653081 
L 540.328034 -531.082465 
L 540.328034 -531.082465 
L 540.328034 -499.734562 
L 535.607669 -489.360879 
L 530.887305 -490.374321 
L 526.166941 -475.829546 
L 521.446577 -480.449737 
L 516.726213 -467.577447 
L 512.005848 -456.89419 
L 507.285484 -440.619185 
L 502.56512 -445.053646 
L 497.844756 -409.407055 
L 493.124392 -415.547113 
L 488.404027 -390.261205 
L 483.683663 -372.095434 
L 478.963299 -379.217409 
L 474.242935 -361.959759 
L 469.522571 -350.865838 
L 464.802207 -332.886005 
L 460.081842 -309.074803 
L 455.361478 -307.685948 
L 450.641114 -280.35687 
L 445.92075 -272.021592 
L 441.200386 -257.826316 
L 436.480021 -246.607 
L 431.759657 -236.12603 
L 427.039293 -230.501334 
L 422.318929 -208.709703 
L 417.598565 -214.347345 
L 412.8782 -199.924284 
L 408.157836 -193.350048 
L 403.437472 -174.869946 
L 398.717108 -165.85093 
L 393.996744 -161.85519 
L 389.276379 -142.941266 
L 384.556015 -136.246386 
L 379.835651 -136.752179 
L 375.115287 -137.300429 
L 370.394923 -126.987668 
L 365.674559 -110.671804 
L 360.954194 -111.430707 
L 356.23383 -106.855688 
L 351.513466 -106.882752 
L 346.793102 -109.572132 
L 342.072738 -97.535888 
L 337.352373 -110.461679 
L 332.632009 -102.514828 
L 327.911645 -96.771789 
L 323.191281 -87.889144 
L 318.470917 -95.885409 
L 313.750552 -105.417501 
L 309.030188 -112.973808 
L 304.309824 -105.700181 
L 299.58946 -104.662841 
L 294.869096 -110.76021 
L 290.148732 -138.542296 
L 285.428367 -131.702541 
L 280.708003 -141.353102 
L 275.987639 -143.331203 
L 271.267275 -159.65785 
L 266.546911 -162.299717 
L 261.826546 -170.602986 
L 257.106182 -178.001293 
L 252.385818 -199.955652 
L 247.665454 -203.791172 
L 242.94509 -218.086825 
L 238.224725 -230.518279 
L 233.504361 -241.236644 
L 228.783997 -260.289391 
L 224.063633 -261.629322 
L 219.343269 -277.582112 
L 214.622904 -295.62148 
L 209.90254 -292.452574 
L 205.182176 -326.868066 
L 200.461812 -339.537497 
L 195.741448 -347.555095 
L 191.021084 -368.15227 
L 186.300719 -378.67512 
L 181.580355 -387.437089 
L 176.859991 -392.348778 
L 172.139627 -416.785312 
L 167.419263 -428.118393 
L 162.698898 -440.207943 
L 157.978534 -448.169675 
L 153.25817 -450.652628 
L 148.537806 -461.18886 
L 143.817442 -477.552914 
L 139.097077 -478.177428 
L 134.376713 -489.167452 
L 129.656349 -494.87902 
L 124.935985 -493.656885 
L 120.215621 -497.471038 
z
" id="m74b00fdd69" style="stroke:#ffffff;stroke-opacity:0.15;"/>
    </defs>
    <g clip-path="url(#p77c89910f7)">
     <use style="fill:#e41a1c;fill-opacity:0.15;stroke:#ffffff;stroke-opacity:0.15;" x="0" xlink:href="#m74b00fdd69" y="576"/>
    </g>
   </g>
   <g id="line2d_8">
    <path clip-path="url(#p77c89910f7)" d="M 120.215621 62.912272 
L 124.935985 69.420098 
L 129.656349 65.174347 
L 134.376713 72.473611 
L 139.097077 82.164245 
L 143.817442 85.370679 
L 148.537806 98.068933 
L 153.25817 113.218889 
L 157.978534 113.339083 
L 162.698898 120.72099 
L 167.419263 133.600075 
L 172.139627 146.042136 
L 176.859991 171.490304 
L 181.580355 176.772366 
L 186.300719 184.504931 
L 191.021084 197.867367 
L 195.741448 214.323438 
L 200.461812 224.794751 
L 205.182176 237.611037 
L 209.90254 271.924783 
L 214.622904 267.665439 
L 219.343269 285.974072 
L 224.063633 304.865541 
L 228.783997 305.593385 
L 233.504361 322.253339 
L 238.224725 336.325982 
L 242.94509 347.561392 
L 247.665454 360.616096 
L 252.385818 365.994413 
L 257.106182 386.46158 
L 261.826546 394.810621 
L 266.546911 405.209884 
L 271.267275 406.363541 
L 275.987639 422.642315 
L 280.708003 424.004389 
L 285.428367 433.274112 
L 290.148732 426.604565 
L 294.869096 454.772673 
L 299.58946 461.488688 
L 304.309824 459.917771 
L 309.030188 453.599765 
L 313.750552 460.358051 
L 318.470917 469.507895 
L 323.191281 476.088665 
L 327.911645 470.45116 
L 332.632009 464.427086 
L 337.352373 457.003812 
L 342.072738 469.106497 
L 346.793102 457.62165 
L 351.513466 461.068257 
L 356.23383 457.973631 
L 360.954194 455.158807 
L 365.674559 454.80507 
L 370.394923 437.763805 
L 375.115287 428.654148 
L 379.835651 429.120563 
L 384.556015 429.063333 
L 389.276379 424.120542 
L 393.996744 403.373844 
L 398.717108 399.335347 
L 403.437472 391.312674 
L 408.157836 372.607981 
L 412.8782 367.069792 
L 417.598565 351.585269 
L 422.318929 357.299595 
L 427.039293 335.653793 
L 431.759657 327.601831 
L 436.480021 319.048053 
L 441.200386 306.62659 
L 445.92075 292.212709 
L 450.641114 282.448203 
L 455.361478 256.775126 
L 460.081842 254.141178 
L 464.802207 230.793189 
L 469.522571 215.569676 
L 474.242935 202.673518 
L 478.963299 184.508314 
L 483.683663 188.886652 
L 488.404027 173.42003 
L 493.124392 145.843028 
L 497.844756 152.447428 
L 502.56512 116.618085 
L 507.285484 123.256925 
L 512.005848 102.696771 
L 516.726213 94.414288 
L 521.446577 83.216849 
L 526.166941 86.803007 
L 530.887305 69.432508 
L 535.607669 73.49302 
L 540.328034 60.591487 
" style="fill:none;stroke:#e41a1c;stroke-linecap:round;stroke-width:1.5;"/>
   </g>
   <g id="line2d_9">
    <path clip-path="url(#p77c89910f7)" d="M 99.21 320.259412 
L 561.333654 320.259412 
" style="fill:none;stroke:#1a1a1a;stroke-dasharray:5.55,2.4;stroke-dashoffset:0;stroke-width:1.5;"/>
   </g>
   <g id="patch_3">
    <path d="M 99.21 492.54 
L 99.21 41.96 
" style="fill:none;stroke:#ffffff;stroke-linecap:square;stroke-linejoin:miter;stroke-width:1.25;"/>
   </g>
   <g id="patch_4">
    <path d="M 561.333654 492.54 
L 561.333654 41.96 
" style="fill:none;stroke:#ffffff;stroke-linecap:square;stroke-linejoin:miter;stroke-width:1.25;"/>
   </g>
   <g id="patch_5">
    <path d="M 99.21 492.54 
L 561.333654 492.54 
" style="fill:none;stroke:#ffffff;stroke-linecap:square;stroke-linejoin:miter;stroke-width:1.25;"/>
   </g>
   <g id="patch_6">
    <path d="M 99.21 41.96 
L 561.333654 41.96 
" style="fill:none;stroke:#ffffff;stroke-linecap:square;stroke-linejoin:miter;stroke-width:1.25;"/>
   </g>
   <g id="text_10">
    <!-- XOR BTE: Rotated XOR -->
    <defs>
     <path d="M 6.296875 72.90625 
L 16.890625 72.90625 
L 35.015625 45.796875 
L 53.21875 72.90625 
L 63.8125 72.90625 
L 40.375 37.890625 
L 65.375 0 
L 54.78125 0 
L 34.28125 31 
L 13.625 0 
L 2.984375 0 
L 29 38.921875 
z
" id="DejaVuSans-88"/>
     <path d="M 39.40625 66.21875 
Q 28.65625 66.21875 22.328125 58.203125 
Q 16.015625 50.203125 16.015625 36.375 
Q 16.015625 22.609375 22.328125 14.59375 
Q 28.65625 6.59375 39.40625 6.59375 
Q 50.140625 6.59375 56.421875 14.59375 
Q 62.703125 22.609375 62.703125 36.375 
Q 62.703125 50.203125 56.421875 58.203125 
Q 50.140625 66.21875 39.40625 66.21875 
z
M 39.40625 74.21875 
Q 54.734375 74.21875 63.90625 63.9375 
Q 73.09375 53.65625 73.09375 36.375 
Q 73.09375 19.140625 63.90625 8.859375 
Q 54.734375 -1.421875 39.40625 -1.421875 
Q 24.03125 -1.421875 14.8125 8.828125 
Q 5.609375 19.09375 5.609375 36.375 
Q 5.609375 53.65625 14.8125 63.9375 
Q 24.03125 74.21875 39.40625 74.21875 
z
" id="DejaVuSans-79"/>
     <path d="M 11.71875 12.40625 
L 22.015625 12.40625 
L 22.015625 0 
L 11.71875 0 
z
M 11.71875 51.703125 
L 22.015625 51.703125 
L 22.015625 39.3125 
L 11.71875 39.3125 
z
" id="DejaVuSans-58"/>
    </defs>
    <g style="fill:#262626;" transform="translate(157.706202 35.96)scale(0.3 -0.3)">
     <use xlink:href="#DejaVuSans-88"/>
     <use x="68.412109" xlink:href="#DejaVuSans-79"/>
     <use x="147.123047" xlink:href="#DejaVuSans-82"/>
     <use x="216.605469" xlink:href="#DejaVuSans-32"/>
     <use x="248.392578" xlink:href="#DejaVuSans-66"/>
     <use x="316.996094" xlink:href="#DejaVuSans-84"/>
     <use x="378.080078" xlink:href="#DejaVuSans-69"/>
     <use x="441.263672" xlink:href="#DejaVuSans-58"/>
     <use x="474.955078" xlink:href="#DejaVuSans-32"/>
     <use x="506.742188" xlink:href="#DejaVuSans-82"/>
     <use x="576.162109" xlink:href="#DejaVuSans-111"/>
     <use x="637.34375" xlink:href="#DejaVuSans-116"/>
     <use x="676.552734" xlink:href="#DejaVuSans-97"/>
     <use x="737.832031" xlink:href="#DejaVuSans-116"/>
     <use x="777.041016" xlink:href="#DejaVuSans-101"/>
     <use x="838.564453" xlink:href="#DejaVuSans-100"/>
     <use x="902.041016" xlink:href="#DejaVuSans-32"/>
     <use x="933.828125" xlink:href="#DejaVuSans-88"/>
     <use x="1002.240234" xlink:href="#DejaVuSans-79"/>
     <use x="1080.951172" xlink:href="#DejaVuSans-82"/>
    </g>
   </g>
   <g id="legend_1">
    <g id="patch_7">
     <path d="M 210.976124 92.985781 
L 449.56753 92.985781 
Q 454.06753 92.985781 454.06753 88.485781 
L 454.06753 57.71 
Q 454.06753 53.21 449.56753 53.21 
L 210.976124 53.21 
Q 206.476124 53.21 206.476124 57.71 
L 206.476124 88.485781 
Q 206.476124 92.985781 210.976124 92.985781 
z
" style="fill:#eaeaf2;opacity:0.8;stroke:#cccccc;stroke-linejoin:miter;"/>
    </g>
    <g id="line2d_10">
     <path d="M 215.476124 71.431484 
L 260.476124 71.431484 
" style="fill:none;stroke:#e41a1c;stroke-linecap:round;stroke-width:1.5;"/>
    </g>
    <g id="line2d_11"/>
    <g id="text_11">
     <!-- Lifelong Forest -->
     <defs>
      <path d="M 9.8125 72.90625 
L 19.671875 72.90625 
L 19.671875 8.296875 
L 55.171875 8.296875 
L 55.171875 0 
L 9.8125 0 
z
" id="DejaVuSans-76"/>
      <path d="M 9.8125 72.90625 
L 51.703125 72.90625 
L 51.703125 64.59375 
L 19.671875 64.59375 
L 19.671875 43.109375 
L 48.578125 43.109375 
L 48.578125 34.8125 
L 19.671875 34.8125 
L 19.671875 0 
L 9.8125 0 
z
" id="DejaVuSans-70"/>
     </defs>
     <g style="fill:#262626;" transform="translate(278.476124 79.306484)scale(0.225 -0.225)">
      <use xlink:href="#DejaVuSans-76"/>
      <use x="55.712891" xlink:href="#DejaVuSans-105"/>
      <use x="83.496094" xlink:href="#DejaVuSans-102"/>
      <use x="118.701172" xlink:href="#DejaVuSans-101"/>
      <use x="180.224609" xlink:href="#DejaVuSans-108"/>
      <use x="208.007812" xlink:href="#DejaVuSans-111"/>
      <use x="269.189453" xlink:href="#DejaVuSans-110"/>
      <use x="332.568359" xlink:href="#DejaVuSans-103"/>
      <use x="396.044922" xlink:href="#DejaVuSans-32"/>
      <use x="427.832031" xlink:href="#DejaVuSans-70"/>
      <use x="485.304688" xlink:href="#DejaVuSans-111"/>
      <use x="546.486328" xlink:href="#DejaVuSans-114"/>
      <use x="587.568359" xlink:href="#DejaVuSans-101"/>
      <use x="649.091797" xlink:href="#DejaVuSans-115"/>
      <use x="701.191406" xlink:href="#DejaVuSans-116"/>
     </g>
    </g>
   </g>
  </g>
 </g>
 <defs>
  <clipPath id="p77c89910f7">
   <rect height="450.58" width="462.123654" x="99.21" y="41.96"/>
  </clipPath>
 </defs>
</svg>
